<?xml version="1.0" encoding="iso-8859-1"?>
<!-- Generator: Adobe Illustrator 15.1.0, SVG Export Plug-In . SVG Version: 6.00 Build 0)  -->
<!DOCTYPE svg PUBLIC "-//W3C//DTD SVG 1.1//EN" "http://www.w3.org/Graphics/SVG/1.1/DTD/svg11.dtd">
<svg version="1.1" id="Layer_1" xmlns="http://www.w3.org/2000/svg" xmlns:xlink="http://www.w3.org/1999/xlink" x="0px" y="0px"
	 width="34px" height="45.5px" viewBox="0 0 34 45.5" style="enable-background:new 0 0 34 45.5;" xml:space="preserve">
<path style="fill:none;stroke:#C22D05;stroke-width:3;stroke-miterlimit:10;" d="M-175.756-58.554
	c47.229,0,76.414,32.555,76.414,76.413c0,43.856-35.039,76.821-76.821,76.821c-41.779,0-77.357-36.742-77.357-77.358
	C-253.521-23.292-222.982-58.554-175.756-58.554z"/>
<g>
	<path style="fill:#C22D05;" d="M-175.957,91.622c-39.562,0-74.266-34.703-74.266-74.265c0-41.55,32.091-72.883,74.646-72.883
		c21.84,0,40.4,7.24,53.673,20.936c12.711,13.117,19.711,31.743,19.711,52.447c0,20.143-7.758,38.849-21.845,52.674
		C-137.895,84.132-156.333,91.622-175.957,91.622z"/>
	<path style="fill:#494241;" d="M-175.576-53.525c44.119,0,71.385,30.413,71.385,71.383c0,40.972-32.734,71.765-71.766,71.765
		c-39.03,0-72.266-34.324-72.266-72.265C-248.223-20.584-219.694-53.525-175.576-53.525 M-175.576-57.525
		c-21.85,0-41.643,7.963-55.732,22.422c-13.487,13.84-20.914,32.471-20.914,52.461c0,40.627,35.638,76.265,76.266,76.265
		c20.15,0,39.087-7.693,53.321-21.663c14.474-14.204,22.444-33.418,22.444-54.102c0-21.227-7.201-40.348-20.275-53.839
		C-134.125-50.076-153.182-57.525-175.576-57.525L-175.576-57.525z"/>
</g>
<circle style="fill:#F1F4ED;" cx="-222.399" cy="23.18" r="4"/>
<circle style="fill:#F1F4ED;" cx="-139.648" cy="12.43" r="8.25"/>
<circle style="fill:#F1F4ED;" cx="-210.649" cy="-27.569" r="8.25"/>
<circle style="fill:#F1F4ED;" cx="-127.398" cy="41.181" r="4"/>
<circle style="fill:#F1F4ED;" cx="-175.399" cy="38.181" r="4"/>
<circle style="fill:#F1F4ED;" cx="-209.649" cy="42.431" r="8.25"/>
<g>
	<path style="fill:#C22D05;" d="M-63,60v51h-227V60H-63 M-61,58h-1.658H-289.99H-292v2.208v50.549V113h2.01h227.332H-61v-2.243
		V60.208V58L-61,58z"/>
</g>
<g>
	<rect x="-288" y="62" style="fill:#C22D05;" width="223" height="47"/>
	<path style="fill:#494241;" d="M-67,64v43h-219V64H-67 M-63,60h-3.555h-219.02H-290v3.892v43.574V111h4.426h219.02H-63v-3.534
		V63.892V60L-63,60z"/>
</g>
<g>
	<path style="fill:#F9F0EF;" d="M-282.889,76.141h8.936c1.599,0,2.896,0.16,3.888,0.482c0.993,0.321,1.765,0.754,2.317,1.296
		c0.551,0.543,0.924,1.167,1.116,1.876c0.193,0.707,0.291,1.456,0.291,2.246c0,0.92-0.194,1.719-0.581,2.398
		c-0.386,0.683-0.909,1.248-1.571,1.697c-0.661,0.451-1.431,0.791-2.303,1.021c-0.874,0.229-1.807,0.345-2.799,0.345h-2.096v4.273
		h1.683v3.641h-8.881v-3.641h1.544V79.752h-1.544V76.141z M-275.69,79.725v4.799h1.24c0.81,0,1.462-0.199,1.958-0.593
		c0.497-0.396,0.745-0.962,0.745-1.696c0-0.828-0.226-1.451-0.676-1.875c-0.45-0.422-1.079-0.635-1.889-0.635H-275.69z"/>
	<path style="fill:#F9F0EF;" d="M-265.238,76.141h9.156v3.638h-1.711v11.97h1.711v3.668h-9.156v-3.668h1.737v-11.97h-1.737V76.141z"
		/>
	<path style="fill:#F9F0EF;" d="M-254.538,83.393v-7.252h18.091v3.668l-10.039,11.967h5.103v-3.528h4.91v7.169h-18.23v-3.585
		l10.038-12.053h-5.212v3.614H-254.538z"/>
	<path style="fill:#F9F0EF;" d="M-234.849,83.393v-7.252h18.093v3.668l-10.039,11.967h5.102v-3.528h4.909v7.169h-18.229v-3.585
		l10.038-12.053h-5.212v3.614H-234.849z"/>
	<path style="fill:#F9F0EF;" d="M-193.729,95.416h-11.06v-3.611h2.621l-0.579-1.877h-5.654l-0.58,1.877h2.152v3.611h-8.771v-3.611
		h1.875L-210,79.697h-1.131v-3.557h10.589l4.881,15.664h1.932V95.416z M-207.381,86.619h3.612l-1.818-5.957L-207.381,86.619z"/>
	<path style="fill:#F9F0EF;" d="M-185.732,76.141h8.937c1.599,0,2.896,0.16,3.888,0.482c0.992,0.321,1.766,0.754,2.316,1.296
		c0.552,0.543,0.924,1.167,1.117,1.876c0.193,0.707,0.29,1.456,0.29,2.246c0,0.92-0.194,1.719-0.579,2.398
		c-0.387,0.683-0.911,1.248-1.572,1.697c-0.662,0.451-1.43,0.791-2.303,1.021s-1.807,0.345-2.8,0.345h-2.096v4.273h1.683v3.641
		h-8.881v-3.641h1.544V79.752h-1.544V76.141z M-178.534,79.725v4.799h1.242c0.808,0,1.461-0.199,1.956-0.593
		c0.498-0.396,0.745-0.962,0.745-1.696c0-0.828-0.225-1.451-0.676-1.875c-0.451-0.422-1.079-0.635-1.889-0.635H-178.534z"/>
	<path style="fill:#F9F0EF;" d="M-168.081,76.141h8.714v3.638h-1.462v11.97h3.558v-3.501h4.634v7.169h-15.443v-3.668h1.516v-11.97
		h-1.516V76.141z"/>
	<path style="fill:#F9F0EF;" d="M-129.666,95.416h-11.059v-3.611h2.619l-0.578-1.877h-5.654l-0.579,1.877h2.151v3.611h-8.77v-3.611
		h1.875l3.723-12.107h-1.13v-3.557h10.589l4.883,15.664h1.93V95.416z M-143.317,86.619h3.612l-1.819-5.957L-143.317,86.619z"/>
	<path style="fill:#F9F0EF;" d="M-107.438,79.697h-1.822v15.719h-5.928l-7.031-10.506v6.948h2.123v3.558h-8.467v-3.558h1.627V79.697
		h-1.6v-3.557h7.914l6.785,10.121v-6.564h-1.902v-3.557h8.301V79.697z"/>
	<path style="fill:#F9F0EF;" d="M-106.059,76.141h16.629v6.094h-4.771v-2.456h-4.412v3.808h5.24v3.668h-5.24v4.494h4.412v-2.564
		h4.771v6.232h-16.629v-3.668h1.736v-11.97h-1.736V76.141z"/>
	<path style="fill:#F9F0EF;" d="M-69.82,76.141v7.17h-4.057v-3.532h-2.314v11.97h2.287v3.668h-10.258v-3.668h2.262v-11.97h-2.373
		v3.532h-4.053v-7.17H-69.82z"/>
</g>
<g>
	<g>
		<path style="fill:#C22D05;" d="M-156.06-53.368l1.78,0.403c0.356,0.081,0.712,0.173,1.054,0.275
			c18.558,4.967,33.081,16.255,41.945,32.628c0.049,0.081,0.096,0.164,0.141,0.246l0.952,1.746l-1.694,1.045l-68.214,37.721
			L-156.06-53.368z"/>
		<path style="fill:#494241;" d="M-154.721-51.015c0.311,0.07,0.621,0.15,0.92,0.24c18.451,4.939,32.451,16.28,40.791,31.72
			c0.059,0.09,0.109,0.19,0.16,0.28l-63.78,35.269L-154.721-51.015 M-157.398-55.722l-1.127,3.473l-21.909,67.509l-3.128,9.639
			l8.869-4.904l63.78-35.269l3.534-1.953l-1.987-3.516c-0.061-0.11-0.118-0.212-0.174-0.307
			c-9.125-16.833-24.049-28.44-43.17-33.574c-0.356-0.105-0.734-0.204-1.126-0.292L-157.398-55.722L-157.398-55.722z"/>
	</g>
	<path style="fill:none;stroke:#C22D05;stroke-width:2;stroke-linejoin:round;stroke-miterlimit:10;" d="M-156.747-56.547
		c0,0,32.905,3.934,50.104,38.898"/>
	<circle style="fill:#F1F4ED;" cx="-140.648" cy="-29.569" r="8.25"/>
	<circle style="fill:#F1F4ED;" cx="-164.398" cy="0.18" r="4"/>
</g>
<g>
	<title>pepper</title>
	<g>
		<g>
			<path style="fill:#FFFFFF;" d="M28.921,13.309c-1.048-0.888-2.316-1.476-3.67-1.702c-0.854-0.141-1.723-0.163-2.582-0.064
				c-0.748,0.092-1.505,0.073-2.247-0.054c-0.6-0.116-1.121-0.485-1.429-1.014c-0.383-0.73-0.448-1.589-0.183-2.369
				c0.569-1.889,2.383-2.855,4.131-3.057c0.39-0.038,0.688-0.364,0.691-0.757c-0.001-0.422-0.345-0.764-0.768-0.762
				c-0.029,0-0.06,0.002-0.09,0.006c-2.271,0.262-4.649,1.567-5.423,4.129c-0.343,1.069-0.284,2.229,0.164,3.259
				c-1.448,0.648-4.934,2.775-5.241,8.321c-0.021,0.42,0.302,0.778,0.722,0.8c0.419,0.021,0.777-0.302,0.799-0.723
				c0.304-5.468,4.031-6.935,4.667-7.146c0.467,0.392,1.021,0.664,1.618,0.795c0.888,0.166,1.797,0.196,2.693,0.09
				c0.722-0.086,1.451-0.073,2.169,0.036c1.09,0.176,2.112,0.64,2.962,1.345c1.691,1.517,2.397,4.042,1.799,6.434
				c-0.175,0.693-0.354,1.384-0.533,2.074c-0.579,2.228-1.178,4.53-1.563,6.866c-0.113,0.689-0.185,1.393-0.254,2.073
				c-0.079,1.195-0.28,2.379-0.601,3.533c-0.241,0.762-1.197,3.229-3.407,3.283c-0.271-0.055-1.137-0.222-2.277-0.362
				c2.26-2.909,3.185-6.637,2.547-10.265c-0.082-0.412-0.482-0.68-0.894-0.598c-0.41,0.08-0.679,0.479-0.6,0.889
				c0.615,3.543-0.464,7.171-2.916,9.801c-0.447-0.026-0.908-0.043-1.371-0.043c-0.521,0-1.038,0.021-1.538,0.053
				c-1.874-0.956-2.546-5.683-2.566-8.955c-0.001-0.42-0.344-0.759-0.764-0.757s-0.759,0.344-0.757,0.764
				c0.015,1.959,0.248,6.71,2.077,9.151c-0.984,0.131-1.718,0.272-1.963,0.322c-2.21-0.054-3.166-2.521-3.408-3.283
				c-0.319-1.154-0.521-2.338-0.6-3.533c-0.069-0.681-0.141-1.384-0.254-2.073C7.679,27.48,7.08,25.178,6.501,22.95
				c-0.179-0.69-0.358-1.381-0.533-2.074c-0.599-2.392,0.106-4.917,1.799-6.434c1.561-1.398,3.57-1.511,5.723-1.488
				c0.42,0.004,0.765-0.334,0.769-0.755c0.004-0.419-0.333-0.762-0.752-0.768c-2.3-0.024-4.789,0.114-6.756,1.877
				c-2.107,1.89-2.994,5.004-2.259,7.938c0.175,0.696,0.355,1.392,0.536,2.086c0.57,2.194,1.16,4.464,1.533,6.73
				c0.105,0.644,0.172,1.292,0.242,1.979c0.088,1.3,0.311,2.587,0.664,3.841c0.863,2.722,2.707,4.346,4.932,4.346l0.16-0.017
				c1.738-0.347,3.504-0.535,5.277-0.563c1.772,0.027,3.539,0.217,5.277,0.563l0.159,0.017c2.226,0,4.069-1.624,4.933-4.346
				c0.354-1.254,0.576-2.541,0.664-3.841c0.07-0.688,0.137-1.336,0.242-1.979c0.373-2.267,0.963-4.536,1.533-6.73
				c0.181-0.694,0.361-1.39,0.536-2.086C31.916,18.313,31.029,15.198,28.921,13.309z"/>
			<path style="fill:#FFFFFF;" d="M22.157,22.711h0.011c0.418-0.018,0.743-0.369,0.727-0.786c0-0.008-0.001-0.016-0.001-0.023
				c-0.086-1.279-0.318-3.591-0.923-5.046c-0.161-0.386-0.604-0.568-0.99-0.407c-0.385,0.16-0.567,0.602-0.408,0.986
				c0.414,0.995,0.69,2.977,0.801,4.568C21.4,22.413,21.749,22.727,22.157,22.711z"/>
			<path style="fill:#FFFFFF;" d="M27.85,20.092c0.421-0.042,0.728-0.418,0.684-0.838c-0.001-0.021-0.005-0.044-0.009-0.066
				c-0.188-1.255-0.74-2.428-1.587-3.374c-0.302-0.302-0.791-0.305-1.096-0.006c-0.28,0.294-0.28,0.757-0.002,1.053
				c0.646,0.737,1.061,1.649,1.191,2.621C27.104,19.866,27.46,20.132,27.85,20.092z"/>
		</g>
	</g>
</g>
</svg>
