<?xml version="1.0" encoding="iso-8859-1"?>
<!-- Generator: Adobe Illustrator 15.1.0, SVG Export Plug-In . SVG Version: 6.00 Build 0)  -->
<!DOCTYPE svg PUBLIC "-//W3C//DTD SVG 1.1//EN" "http://www.w3.org/Graphics/SVG/1.1/DTD/svg11.dtd">
<svg version="1.1" id="Layer_1" xmlns="http://www.w3.org/2000/svg" xmlns:xlink="http://www.w3.org/1999/xlink" x="0px" y="0px"
	 width="246.118px" height="191.765px" viewBox="0 0 246.118 191.765" style="enable-background:new 0 0 246.118 191.765;"
	 xml:space="preserve">
<path style="fill:none;stroke:#C22D05;stroke-width:3;stroke-miterlimit:10;" d="M123.362,11.035
	c47.229,0,76.414,32.555,76.414,76.413c0,43.856-35.039,76.821-76.821,76.821c-41.779,0-77.357-36.742-77.357-77.358
	C45.597,46.296,76.135,11.035,123.362,11.035z"/>
<g>
	<path style="fill:#C22D05;" d="M123.161,161.21c-39.562,0-74.266-34.703-74.266-74.265c0-41.55,32.091-72.883,74.646-72.883
		c21.84,0,40.4,7.24,53.673,20.936c12.711,13.117,19.711,31.743,19.711,52.447c0,20.143-7.758,38.849-21.845,52.674
		C161.223,153.72,142.784,161.21,123.161,161.21z"/>
	<path style="fill:#494241;" d="M123.542,16.063c44.119,0,71.385,30.413,71.385,71.383c0,40.972-32.734,71.765-71.766,71.765
		c-39.03,0-72.266-34.324-72.266-72.265C50.895,49.004,79.423,16.063,123.542,16.063 M123.542,12.063
		c-21.85,0-41.643,7.963-55.732,22.422c-13.487,13.84-20.914,32.471-20.914,52.461c0,40.627,35.638,76.265,76.266,76.265
		c20.15,0,39.087-7.693,53.321-21.663c14.474-14.204,22.444-33.418,22.444-54.102c0-21.227-7.201-40.348-20.275-53.839
		C164.992,19.513,145.936,12.063,123.542,12.063L123.542,12.063z"/>
</g>
<circle style="fill:#F1F4ED;" cx="76.718" cy="92.768" r="4"/>
<circle style="fill:#F1F4ED;" cx="159.469" cy="82.018" r="8.25"/>
<circle style="fill:#F1F4ED;" cx="88.468" cy="42.019" r="8.25"/>
<circle style="fill:#F1F4ED;" cx="171.719" cy="110.769" r="4"/>
<circle style="fill:#F1F4ED;" cx="123.719" cy="107.769" r="4"/>
<g>
	<g>
		<path style="fill:#C22D05;" d="M143.058,16.22l1.78,0.403c0.356,0.081,0.712,0.173,1.054,0.275
			c18.558,4.967,33.081,16.255,41.945,32.628c0.049,0.081,0.096,0.164,0.141,0.246l0.952,1.746l-1.694,1.045l-68.214,37.721
			L143.058,16.22z"/>
		<path style="fill:#494241;" d="M144.397,18.574c0.311,0.07,0.621,0.15,0.92,0.24c18.451,4.939,32.451,16.28,40.791,31.72
			c0.059,0.09,0.109,0.19,0.16,0.28l-63.78,35.269L144.397,18.574 M141.719,13.866l-1.127,3.473l-21.909,67.509l-3.128,9.639
			l8.869-4.904l63.78-35.269l3.534-1.953l-1.987-3.516c-0.061-0.11-0.118-0.212-0.174-0.307
			c-9.125-16.833-24.049-28.44-43.17-33.574c-0.356-0.105-0.734-0.204-1.126-0.292L141.719,13.866L141.719,13.866z"/>
	</g>
	<path style="fill:none;stroke:#C22D05;stroke-width:2;stroke-linejoin:round;stroke-miterlimit:10;" d="M142.371,13.042
		c0,0,32.905,3.934,50.104,38.898"/>
	<circle style="fill:#F1F4ED;" cx="158.469" cy="40.019" r="8.25"/>
	<circle style="fill:#F1F4ED;" cx="134.719" cy="69.768" r="4"/>
</g>
<circle style="fill:#F1F4ED;" cx="89.468" cy="112.019" r="8.25"/>
<g>
	<path style="fill:#C22D05;" d="M236.118,129.588v51h-227v-51H236.118 M238.118,127.588h-1.658H9.127h-2.01v2.208v50.549v2.243h2.01
		h227.332h1.658v-2.243v-50.549V127.588L238.118,127.588z"/>
</g>
<g>
	<rect x="11.118" y="131.588" style="fill:#C22D05;" width="223" height="47"/>
	<path style="fill:#494241;" d="M232.118,133.588v43h-219v-43H232.118 M236.118,129.588h-3.555H13.543H9.118v3.892v43.574v3.534
		h4.426h219.02h3.555v-3.534V133.48V129.588L236.118,129.588z"/>
</g>
<g>
	<path style="fill:#F9F0EF;" d="M16.229,145.729h8.936c1.599,0,2.896,0.16,3.888,0.482c0.993,0.321,1.765,0.754,2.317,1.296
		c0.551,0.543,0.924,1.167,1.116,1.876c0.193,0.707,0.291,1.456,0.291,2.246c0,0.92-0.194,1.719-0.581,2.398
		c-0.386,0.683-0.909,1.248-1.571,1.697c-0.661,0.451-1.431,0.791-2.303,1.021c-0.874,0.229-1.807,0.345-2.799,0.345h-2.096v4.273
		h1.683v3.641h-8.881v-3.641h1.544V149.34h-1.544V145.729z M23.427,149.313v4.799h1.24c0.81,0,1.462-0.199,1.958-0.593
		c0.497-0.396,0.745-0.962,0.745-1.696c0-0.828-0.226-1.451-0.676-1.875c-0.45-0.422-1.079-0.635-1.889-0.635H23.427z"/>
	<path style="fill:#F9F0EF;" d="M33.879,145.729h9.156v3.638h-1.711v11.97h1.711v3.668h-9.156v-3.668h1.737v-11.97h-1.737V145.729z"
		/>
	<path style="fill:#F9F0EF;" d="M44.58,152.981v-7.252H62.67v3.668l-10.039,11.967h5.103v-3.528h4.91v7.169h-18.23v-3.585
		l10.038-12.053H49.24v3.614H44.58z"/>
	<path style="fill:#F9F0EF;" d="M64.269,152.981v-7.252h18.093v3.668l-10.039,11.967h5.102v-3.528h4.909v7.169H64.104v-3.585
		l10.038-12.053H68.93v3.614H64.269z"/>
	<path style="fill:#F9F0EF;" d="M105.388,165.004h-11.06v-3.611h2.621l-0.579-1.877h-5.654l-0.58,1.877h2.152v3.611h-8.771v-3.611
		h1.875l3.725-12.107h-1.131v-3.557h10.589l4.881,15.664h1.932V165.004z M91.737,156.208h3.612l-1.818-5.957L91.737,156.208z"/>
	<path style="fill:#F9F0EF;" d="M113.385,145.729h8.937c1.599,0,2.896,0.16,3.888,0.482c0.992,0.321,1.766,0.754,2.316,1.296
		c0.552,0.543,0.924,1.167,1.117,1.876c0.193,0.707,0.29,1.456,0.29,2.246c0,0.92-0.194,1.719-0.579,2.398
		c-0.387,0.683-0.911,1.248-1.572,1.697c-0.662,0.451-1.43,0.791-2.303,1.021s-1.807,0.345-2.8,0.345h-2.096v4.273h1.683v3.641
		h-8.881v-3.641h1.544V149.34h-1.544V145.729z M120.583,149.313v4.799h1.242c0.808,0,1.461-0.199,1.956-0.593
		c0.498-0.396,0.745-0.962,0.745-1.696c0-0.828-0.225-1.451-0.676-1.875c-0.451-0.422-1.079-0.635-1.889-0.635H120.583z"/>
	<path style="fill:#F9F0EF;" d="M131.037,145.729h8.714v3.638h-1.462v11.97h3.558v-3.501h4.634v7.169h-15.443v-3.668h1.516v-11.97
		h-1.516V145.729z"/>
	<path style="fill:#F9F0EF;" d="M169.452,165.004h-11.059v-3.611h2.619l-0.578-1.877h-5.654l-0.579,1.877h2.151v3.611h-8.77v-3.611
		h1.875l3.723-12.107h-1.13v-3.557h10.589l4.883,15.664h1.93V165.004z M155.8,156.208h3.612l-1.819-5.957L155.8,156.208z"/>
	<path style="fill:#F9F0EF;" d="M191.68,149.286h-1.822v15.719h-5.928l-7.031-10.506v6.948h2.123v3.558h-8.467v-3.558h1.627v-12.161
		h-1.6v-3.557h7.914l6.785,10.121v-6.564h-1.902v-3.557h8.301V149.286z"/>
	<path style="fill:#F9F0EF;" d="M193.059,145.729h16.629v6.094h-4.771v-2.456h-4.412v3.808h5.24v3.668h-5.24v4.494h4.412v-2.564
		h4.771v6.232h-16.629v-3.668h1.736v-11.97h-1.736V145.729z"/>
	<path style="fill:#F9F0EF;" d="M229.297,145.729v7.17h-4.057v-3.532h-2.314v11.97h2.287v3.668h-10.258v-3.668h2.262v-11.97h-2.373
		v3.532h-4.053v-7.17H229.297z"/>
</g>
</svg>
