<?xml version="1.0" encoding="iso-8859-1"?>
<!-- Generator: Adobe Illustrator 15.1.0, SVG Export Plug-In . SVG Version: 6.00 Build 0)  -->
<!DOCTYPE svg PUBLIC "-//W3C//DTD SVG 1.1//EN" "http://www.w3.org/Graphics/SVG/1.1/DTD/svg11.dtd">
<svg version="1.1" xmlns="http://www.w3.org/2000/svg" xmlns:xlink="http://www.w3.org/1999/xlink" x="0px" y="0px" width="462px"
	 height="260px" viewBox="0 0 462 260" style="enable-background:new 0 0 462 260;" xml:space="preserve">
<g id="bg" style="display:none;">
	<rect x="-12" y="-3" style="display:inline;fill:#494241;" width="480" height="286"/>
</g>
<g id="Layer_1">
	<path style="fill:none;stroke:#C22D05;stroke-width:3;stroke-miterlimit:10;" d="M71.244-403.554
		c47.229,0,76.414,32.555,76.414,76.413c0,43.856-35.039,76.821-76.821,76.821c-41.779,0-77.357-36.742-77.357-77.358
		C-6.521-368.292,24.018-403.554,71.244-403.554z"/>
	<g>
		<path style="fill:#C22D05;" d="M71.043-253.378c-39.562,0-74.266-34.703-74.266-74.265c0-41.55,32.091-72.883,74.646-72.883
			c21.84,0,40.4,7.24,53.673,20.936c12.711,13.117,19.711,31.743,19.711,52.447c0,20.143-7.758,38.849-21.845,52.674
			C109.105-260.868,90.667-253.378,71.043-253.378z"/>
		<path style="fill:#494241;" d="M71.424-398.525c44.119,0,71.385,30.413,71.385,71.383c0,40.972-32.734,71.765-71.766,71.765
			c-39.03,0-72.266-34.324-72.266-72.265C-1.223-365.584,27.306-398.525,71.424-398.525 M71.424-402.525
			c-21.85,0-41.643,7.963-55.732,22.422c-13.487,13.84-20.914,32.471-20.914,52.461c0,40.627,35.638,76.265,76.266,76.265
			c20.15,0,39.087-7.693,53.321-21.663c14.474-14.204,22.444-33.418,22.444-54.102c0-21.227-7.201-40.348-20.275-53.839
			C112.875-395.076,93.818-402.525,71.424-402.525L71.424-402.525z"/>
	</g>
	<circle style="fill:#F1F4ED;" cx="24.601" cy="-321.82" r="4"/>
	<circle style="fill:#F1F4ED;" cx="107.352" cy="-332.57" r="8.25"/>
	<circle style="fill:#F1F4ED;" cx="36.351" cy="-372.569" r="8.25"/>
	<circle style="fill:#F1F4ED;" cx="119.602" cy="-303.819" r="4"/>
	<circle style="fill:#F1F4ED;" cx="71.601" cy="-306.819" r="4"/>
	<circle style="fill:#F1F4ED;" cx="37.351" cy="-302.569" r="8.25"/>
	<g>
		<path style="fill:#C22D05;" d="M184-285v51H-43v-51H184 M186-287h-1.658H-42.99H-45v2.208v50.549V-232h2.01h227.332H186v-2.243
			v-50.549V-287L186-287z"/>
	</g>
	<g>
		<rect x="-41" y="-283" style="fill:#C22D05;" width="223" height="47"/>
		<path style="fill:#494241;" d="M180-281v43H-39v-43H180 M184-285h-3.555h-219.02H-43v3.892v43.574V-234h4.426h219.02H184v-3.534
			v-43.574V-285L184-285z"/>
	</g>
	<g>
		<path style="fill:#F9F0EF;" d="M-35.889-268.859h8.936c1.599,0,2.896,0.16,3.888,0.482c0.993,0.321,1.765,0.754,2.317,1.296
			c0.551,0.543,0.924,1.167,1.116,1.876c0.193,0.707,0.291,1.456,0.291,2.246c0,0.92-0.194,1.719-0.581,2.398
			c-0.386,0.683-0.909,1.248-1.571,1.697c-0.661,0.451-1.431,0.791-2.303,1.021c-0.874,0.229-1.807,0.345-2.799,0.345h-2.096v4.273
			h1.683v3.641h-8.881v-3.641h1.544v-12.023h-1.544V-268.859z M-28.69-265.275v4.799h1.24c0.81,0,1.462-0.199,1.958-0.593
			c0.497-0.396,0.745-0.962,0.745-1.696c0-0.828-0.226-1.451-0.676-1.875c-0.45-0.422-1.079-0.635-1.889-0.635H-28.69z"/>
		<path style="fill:#F9F0EF;" d="M-18.238-268.859h9.156v3.638h-1.711v11.97h1.711v3.668h-9.156v-3.668h1.737v-11.97h-1.737
			V-268.859z"/>
		<path style="fill:#F9F0EF;" d="M-7.538-261.607v-7.252h18.091v3.668L0.514-253.225h5.103v-3.528h4.91v7.169h-18.23v-3.585
			l10.038-12.053h-5.212v3.614H-7.538z"/>
		<path style="fill:#F9F0EF;" d="M12.151-261.607v-7.252h18.093v3.668l-10.039,11.967h5.102v-3.528h4.909v7.169H11.986v-3.585
			l10.038-12.053h-5.212v3.614H12.151z"/>
		<path style="fill:#F9F0EF;" d="M53.271-249.584h-11.06v-3.611h2.621l-0.579-1.877h-5.654l-0.58,1.877h2.152v3.611H31.4v-3.611
			h1.875L37-265.303h-1.131v-3.557h10.589l4.881,15.664h1.932V-249.584z M39.619-258.381h3.612l-1.818-5.957L39.619-258.381z"/>
		<path style="fill:#F9F0EF;" d="M61.268-268.859h8.937c1.599,0,2.896,0.16,3.888,0.482c0.992,0.321,1.766,0.754,2.316,1.296
			c0.552,0.543,0.924,1.167,1.117,1.876c0.193,0.707,0.29,1.456,0.29,2.246c0,0.92-0.194,1.719-0.579,2.398
			c-0.387,0.683-0.911,1.248-1.572,1.697c-0.662,0.451-1.43,0.791-2.303,1.021s-1.807,0.345-2.8,0.345h-2.096v4.273h1.683v3.641
			h-8.881v-3.641h1.544v-12.023h-1.544V-268.859z M68.466-265.275v4.799h1.242c0.808,0,1.461-0.199,1.956-0.593
			c0.498-0.396,0.745-0.962,0.745-1.696c0-0.828-0.225-1.451-0.676-1.875c-0.451-0.422-1.079-0.635-1.889-0.635H68.466z"/>
		<path style="fill:#F9F0EF;" d="M78.919-268.859h8.714v3.638h-1.462v11.97h3.558v-3.501h4.634v7.169H78.919v-3.668h1.516v-11.97
			h-1.516V-268.859z"/>
		<path style="fill:#F9F0EF;" d="M117.334-249.584h-11.059v-3.611h2.619l-0.578-1.877h-5.654l-0.579,1.877h2.151v3.611h-8.77v-3.611
			h1.875l3.723-12.107h-1.13v-3.557h10.589l4.883,15.664h1.93V-249.584z M103.683-258.381h3.612l-1.819-5.957L103.683-258.381z"/>
		<path style="fill:#F9F0EF;" d="M139.563-265.303h-1.822v15.719h-5.928l-7.031-10.506v6.948h2.123v3.558h-8.467v-3.558h1.627
			v-12.161h-1.6v-3.557h7.914l6.785,10.121v-6.564h-1.902v-3.557h8.301V-265.303z"/>
		<path style="fill:#F9F0EF;" d="M140.941-268.859h16.629v6.094h-4.771v-2.456h-4.412v3.808h5.24v3.668h-5.24v4.494h4.412v-2.564
			h4.771v6.232h-16.629v-3.668h1.736v-11.97h-1.736V-268.859z"/>
		<path style="fill:#F9F0EF;" d="M177.18-268.859v7.17h-4.057v-3.532h-2.314v11.97h2.287v3.668h-10.258v-3.668h2.262v-11.97h-2.373
			v3.532h-4.053v-7.17H177.18z"/>
	</g>
	<g>
		<g>
			<path style="fill:#C22D05;" d="M90.94-398.368l1.78,0.403c0.356,0.081,0.712,0.173,1.054,0.275
				c18.558,4.967,33.081,16.255,41.945,32.628c0.049,0.081,0.096,0.164,0.141,0.246l0.952,1.746l-1.694,1.045l-68.214,37.721
				L90.94-398.368z"/>
			<path style="fill:#494241;" d="M92.279-396.015c0.311,0.07,0.621,0.15,0.92,0.24c18.451,4.939,32.451,16.28,40.791,31.72
				c0.059,0.09,0.109,0.19,0.16,0.28l-63.78,35.269L92.279-396.015 M89.602-400.722l-1.127,3.473L66.565-329.74l-3.128,9.639
				l8.869-4.904l63.78-35.269l3.534-1.953l-1.987-3.516c-0.061-0.11-0.118-0.212-0.174-0.307
				c-9.125-16.833-24.049-28.44-43.17-33.574c-0.356-0.105-0.734-0.204-1.126-0.292L89.602-400.722L89.602-400.722z"/>
		</g>
		<path style="fill:none;stroke:#C22D05;stroke-width:2;stroke-linejoin:round;stroke-miterlimit:10;" d="M90.253-401.547
			c0,0,32.905,3.934,50.104,38.898"/>
		<circle style="fill:#F1F4ED;" cx="106.352" cy="-374.569" r="8.25"/>
		<circle style="fill:#F1F4ED;" cx="82.602" cy="-344.82" r="4"/>
	</g>
	<g>
		<title>pepper</title>
		<g>
			<g>
				<path style="fill:#FFFFFF;stroke:#000000;stroke-miterlimit:10;" d="M275.921-331.691c-1.048-0.888-2.316-1.476-3.67-1.702
					c-0.854-0.141-1.723-0.163-2.582-0.064c-0.748,0.092-1.505,0.073-2.247-0.054c-0.6-0.116-1.121-0.485-1.429-1.014
					c-0.383-0.73-0.448-1.589-0.183-2.369c0.569-1.889,2.383-2.855,4.131-3.057c0.39-0.038,0.688-0.364,0.691-0.757
					c-0.001-0.422-0.345-0.764-0.768-0.762c-0.029,0-0.06,0.002-0.09,0.006c-2.271,0.262-4.649,1.567-5.423,4.129
					c-0.343,1.069-0.284,2.229,0.164,3.259c-1.448,0.648-4.934,2.775-5.241,8.321c-0.021,0.42,0.302,0.778,0.722,0.8
					c0.419,0.021,0.777-0.302,0.799-0.723c0.304-5.468,4.031-6.935,4.667-7.146c0.467,0.392,1.021,0.664,1.618,0.795
					c0.888,0.166,1.797,0.196,2.693,0.09c0.722-0.086,1.451-0.073,2.169,0.036c1.09,0.176,2.112,0.64,2.962,1.345
					c1.691,1.517,2.397,4.042,1.799,6.434c-0.175,0.693-0.354,1.384-0.533,2.074c-0.579,2.228-1.178,4.53-1.563,6.866
					c-0.113,0.689-0.185,1.393-0.254,2.073c-0.079,1.195-0.28,2.379-0.601,3.533c-0.241,0.762-1.197,3.229-3.407,3.283
					c-0.271-0.055-1.137-0.222-2.277-0.362c2.26-2.909,3.185-6.637,2.547-10.265c-0.082-0.412-0.482-0.68-0.894-0.598
					c-0.41,0.08-0.679,0.479-0.6,0.889c0.615,3.543-0.464,7.171-2.916,9.801c-0.447-0.026-0.908-0.043-1.371-0.043
					c-0.521,0-1.038,0.021-1.538,0.053c-1.874-0.956-2.546-5.683-2.566-8.955c-0.001-0.42-0.344-0.759-0.764-0.757
					s-0.759,0.344-0.757,0.764c0.015,1.959,0.248,6.71,2.077,9.151c-0.984,0.131-1.718,0.272-1.963,0.322
					c-2.21-0.054-3.166-2.521-3.408-3.283c-0.319-1.154-0.521-2.338-0.6-3.533c-0.069-0.681-0.141-1.384-0.254-2.073
					c-0.385-2.336-0.983-4.639-1.563-6.866c-0.179-0.69-0.358-1.381-0.533-2.074c-0.599-2.392,0.106-4.917,1.799-6.434
					c1.561-1.398,3.57-1.511,5.723-1.488c0.42,0.004,0.765-0.334,0.769-0.755c0.004-0.419-0.333-0.762-0.752-0.768
					c-2.3-0.024-4.789,0.114-6.756,1.877c-2.107,1.89-2.994,5.004-2.259,7.938c0.175,0.696,0.355,1.392,0.536,2.086
					c0.57,2.194,1.16,4.464,1.533,6.73c0.105,0.644,0.172,1.292,0.242,1.979c0.088,1.3,0.311,2.587,0.664,3.841
					c0.863,2.722,2.707,4.346,4.932,4.346l0.16-0.017c1.738-0.347,3.504-0.535,5.277-0.563c1.772,0.027,3.539,0.217,5.277,0.563
					l0.159,0.017c2.226,0,4.069-1.624,4.933-4.346c0.354-1.254,0.576-2.541,0.664-3.841c0.07-0.688,0.137-1.336,0.242-1.979
					c0.373-2.267,0.963-4.536,1.533-6.73c0.181-0.694,0.361-1.39,0.536-2.086C278.916-326.688,278.029-329.802,275.921-331.691z"/>
				<path style="fill:#FFFFFF;stroke:#000000;stroke-miterlimit:10;" d="M269.157-322.289h0.011
					c0.418-0.018,0.743-0.369,0.727-0.786c0-0.008-0.001-0.016-0.001-0.023c-0.086-1.279-0.318-3.591-0.923-5.046
					c-0.161-0.386-0.604-0.568-0.99-0.407c-0.385,0.16-0.567,0.602-0.408,0.986c0.414,0.995,0.69,2.977,0.801,4.568
					C268.4-322.587,268.749-322.273,269.157-322.289z"/>
				<path style="fill:#FFFFFF;stroke:#000000;stroke-miterlimit:10;" d="M274.85-324.908c0.421-0.042,0.728-0.418,0.684-0.838
					c-0.001-0.021-0.005-0.044-0.009-0.066c-0.188-1.255-0.74-2.428-1.587-3.374c-0.302-0.302-0.791-0.305-1.096-0.006
					c-0.28,0.294-0.28,0.757-0.002,1.053c0.646,0.737,1.061,1.649,1.191,2.621C274.104-325.134,274.46-324.868,274.85-324.908z"/>
			</g>
		</g>
	</g>
</g>
<g id="veg">
	<g>
		<title>pepper</title>
		<g>
			<g>
				<path style="fill:#FFFFFF;" d="M101.74,18.904c-0.469-0.253-0.995-0.375-1.525-0.354c-0.335,0.015-0.666,0.075-0.983,0.181
					c-0.275,0.095-0.564,0.147-0.854,0.159c-0.236,0.003-0.464-0.096-0.622-0.271c-0.202-0.245-0.296-0.566-0.258-0.883
					c0.066-0.76,0.676-1.27,1.322-1.485c0.144-0.046,0.231-0.192,0.201-0.342c-0.033-0.159-0.191-0.261-0.352-0.227
					c-0.01,0.002-0.021,0.005-0.033,0.009c-0.839,0.279-1.637,0.963-1.726,1.995c-0.045,0.432,0.07,0.866,0.321,1.22
					c-0.497,0.361-1.647,1.443-1.324,3.568c0.025,0.16,0.176,0.271,0.337,0.245c0.16-0.025,0.271-0.176,0.245-0.337
					c-0.319-2.095,0.976-2.946,1.2-3.076c0.208,0.11,0.439,0.17,0.676,0.172c0.35-0.008,0.695-0.067,1.027-0.18
					c0.266-0.09,0.543-0.143,0.824-0.158c0.427-0.021,0.851,0.074,1.229,0.273c0.761,0.44,1.229,1.34,1.192,2.294
					c-0.012,0.276-0.025,0.552-0.037,0.827c-0.043,0.89-0.086,1.81-0.047,2.725c0.013,0.271,0.041,0.543,0.068,0.806
					c0.065,0.459,0.083,0.923,0.054,1.386c-0.031,0.308-0.197,1.318-1.029,1.514c-0.107,0.001-0.448,0.007-0.892,0.044
					c0.624-1.282,0.679-2.767,0.148-4.09c-0.063-0.148-0.236-0.22-0.385-0.155c-0.149,0.063-0.22,0.235-0.157,0.385
					c0.515,1.292,0.395,2.752-0.325,3.943c-0.172,0.025-0.348,0.056-0.523,0.092c-0.196,0.042-0.391,0.091-0.578,0.143
					c-0.785-0.214-1.415-1.949-1.684-3.188c-0.033-0.159-0.189-0.26-0.349-0.227c-0.159,0.034-0.26,0.191-0.226,0.351
					c0.161,0.74,0.626,2.521,1.513,3.3c-0.362,0.128-0.629,0.24-0.718,0.278c-0.841,0.155-1.399-0.704-1.552-0.973
					c-0.212-0.411-0.382-0.844-0.507-1.291c-0.08-0.252-0.163-0.513-0.261-0.765c-0.331-0.854-0.741-1.679-1.138-2.476
					c-0.122-0.248-0.244-0.494-0.366-0.744c-0.416-0.858-0.351-1.87,0.17-2.579c0.48-0.653,1.232-0.855,2.05-1.019
					c0.158-0.031,0.263-0.187,0.23-0.346s-0.187-0.263-0.346-0.231c-0.873,0.173-1.806,0.424-2.409,1.247
					c-0.647,0.884-0.736,2.133-0.225,3.186c0.12,0.25,0.244,0.499,0.369,0.748c0.39,0.785,0.793,1.598,1.114,2.427
					c0.091,0.234,0.168,0.476,0.249,0.73c0.137,0.485,0.323,0.955,0.556,1.402c0.544,0.962,1.371,1.431,2.214,1.253l0.06-0.019
					c0.631-0.27,1.284-0.48,1.954-0.632c0.673-0.13,1.356-0.199,2.042-0.206l0.063-0.007c0.843-0.177,1.412-0.938,1.522-2.037
					c0.034-0.504,0.017-1.009-0.054-1.508c-0.027-0.266-0.054-0.517-0.065-0.769c-0.039-0.889,0.004-1.795,0.046-2.671
					c0.014-0.276,0.027-0.555,0.038-0.832C103.271,20.562,102.688,19.453,101.74,18.904z"/>
				<path style="fill:#FFFFFF;" d="M99.924,23.002l0.004-0.001c0.158-0.04,0.252-0.198,0.214-0.354
					c-0.001-0.004-0.002-0.006-0.003-0.01c-0.134-0.478-0.406-1.334-0.75-1.837c-0.092-0.134-0.274-0.167-0.408-0.076
					c-0.132,0.092-0.167,0.273-0.076,0.407c0.236,0.343,0.499,1.071,0.666,1.665C99.615,22.949,99.771,23.041,99.924,23.002z"/>
				<path style="fill:#FFFFFF;" d="M101.873,21.559c0.155-0.05,0.242-0.216,0.192-0.372c-0.002-0.008-0.006-0.016-0.009-0.024
					c-0.171-0.461-0.474-0.86-0.869-1.151c-0.138-0.091-0.323-0.053-0.415,0.085c-0.083,0.133-0.046,0.309,0.082,0.398
					c0.304,0.228,0.532,0.54,0.66,0.897C101.572,21.532,101.728,21.604,101.873,21.559z"/>
			</g>
		</g>
	</g>
	<g>
		<path style="fill:#FFFFFF;" d="M362.423,126.043c0.497-1.57-0.592-2.83-0.729-2.979l-1.396-1.894
			c-0.093-0.139-0.333-0.584-0.343-0.965c-0.004-0.146-0.125-0.263-0.272-0.259c-0.146,0.004-0.263,0.125-0.26,0.272
			c0.016,0.609,0.414,1.22,0.439,1.256l1.412,1.917c0.006,0.008,0.014,0.016,0.021,0.024c0.011,0.011,1.046,1.123,0.619,2.466
			c-0.301,0.947-1.204,1.178-1.989,1.184c0.05-0.052,0.1-0.103,0.146-0.16c0.89-1.126,0.351-2.978,0.326-3.057
			c-0.041-0.141-0.189-0.221-0.33-0.178c-0.141,0.042-0.221,0.189-0.179,0.33c0.004,0.017,0.483,1.668-0.236,2.576
			c-0.354,0.445-0.959,0.649-1.802,0.604c-0.146-0.03-1.28-0.308-1.527-1.587c-0.028-0.145-0.169-0.238-0.313-0.212
			c-0.144,0.029-0.238,0.169-0.21,0.313c0.049,0.25,0.124,0.47,0.218,0.662c-0.42-0.029-0.819-0.196-1.136-0.485
			c-0.388-0.353-0.588-0.827-0.561-1.336c0.072-1.402,1.41-2.105,1.423-2.112c0.009-0.005,0.018-0.01,0.026-0.015l1.977-1.319
			c0.035-0.022,0.349-0.238,0.782-0.988c0.071-0.128,0.028-0.29-0.1-0.364c-0.127-0.072-0.29-0.028-0.362,0.099
			c-0.363,0.63-0.609,0.809-0.611,0.81l-1.969,1.313c-0.175,0.093-1.612,0.906-1.698,2.55c-0.034,0.662,0.233,1.302,0.734,1.759
			c0.343,0.312,0.761,0.515,1.206,0.592c0.207,0.036,0.419,0.045,0.634,0.026c0.579,0.669,1.36,0.815,1.407,0.823
			c0.01,0.002,0.021,0.004,0.03,0.004c0.526,0.031,0.98-0.024,1.364-0.164C360.884,127.779,362.04,127.245,362.423,126.043z"/>
		<path style="fill:#FFFFFF;" d="M357.428,122.072c-0.08,0.072-0.793,0.725-1.023,1.205c-0.063,0.134-0.006,0.292,0.127,0.354
			c0.022,0.012,0.045,0.019,0.069,0.021c0.113,0.021,0.232-0.036,0.285-0.147c0.155-0.326,0.702-0.86,0.899-1.039
			c0.108-0.099,0.117-0.268,0.019-0.376C357.705,121.981,357.537,121.973,357.428,122.072z"/>
		<path style="fill:#FFFFFF;" d="M359.168,119.529c0.145,0.026,0.283-0.07,0.308-0.215l0.234-1.33
			c0.025-0.145-0.072-0.282-0.217-0.308s-0.282,0.071-0.308,0.216l-0.233,1.329C358.927,119.366,359.023,119.505,359.168,119.529z"
			/>
		<path style="fill:#FFFFFF;" d="M359.812,119.607c0.037,0.03,0.08,0.05,0.124,0.058c0.092,0.016,0.188-0.017,0.251-0.092
			l0.39-0.468c0.094-0.112,0.078-0.28-0.034-0.374c-0.113-0.094-0.281-0.079-0.375,0.033l-0.39,0.468
			C359.684,119.345,359.698,119.513,359.812,119.607z"/>
		<path style="fill:#FFFFFF;" d="M358.233,119.293c0.042,0.057,0.103,0.091,0.166,0.102c0.07,0.013,0.146-0.004,0.206-0.05
			c0.118-0.088,0.141-0.256,0.052-0.373l-0.469-0.617c-0.089-0.116-0.255-0.14-0.372-0.051c-0.117,0.088-0.141,0.256-0.052,0.373
			L358.233,119.293z"/>
	</g>
	<g>
		<circle style="fill:none;stroke:#FFFFFF;stroke-miterlimit:10;" cx="29.157" cy="53.22" r="3.869"/>
		<circle style="fill:#FFFFFF;" cx="27.278" cy="52.093" r="0.558"/>
		<circle style="fill:#FFFFFF;" cx="29.292" cy="54.046" r="0.713"/>
		<circle style="fill:#FFFFFF;" cx="27.836" cy="54.325" r="0.248"/>
		<circle style="fill:#FFFFFF;" cx="26.843" cy="53.581" r="0.373"/>
		<circle style="fill:#FFFFFF;" cx="30.326" cy="51.646" r="0.372"/>
	</g>
	<g>
		<g>
			<path style="fill:#FFFFFF;" d="M409.453,222.614c-0.101,0.06-0.232,0.026-0.291-0.076l-0.613-1.041
				c-0.06-0.103-0.025-0.234,0.076-0.293c0.102-0.061,0.232-0.025,0.291,0.076l0.613,1.041
				C409.59,222.424,409.557,222.555,409.453,222.614z"/>
		</g>
		<g>
			<path style="fill:#FFFFFF;" d="M408.061,223.083c-0.095,0.055-0.219,0.03-0.282-0.063c-0.067-0.096-0.046-0.229,0.052-0.297
				c0.525-0.371,0.787-1.232,0.79-1.241c0.03-0.101,0.128-0.165,0.233-0.15c0.008,0.001,0.853,0.111,1.38-0.198
				c0.103-0.061,0.233-0.026,0.292,0.075c0.061,0.102,0.027,0.232-0.076,0.293c-0.495,0.291-1.162,0.29-1.477,0.27
				c-0.115,0.306-0.402,0.953-0.896,1.302C408.071,223.076,408.066,223.08,408.061,223.083z"/>
		</g>
		<g>
			<path style="fill:#FFFFFF;" d="M410.453,220.833l-2.104,1.236c-0.101,0.061-0.231,0.026-0.291-0.075
				c-0.061-0.101-0.026-0.233,0.075-0.293l2.104-1.236c0.101-0.06,0.232-0.026,0.292,0.075
				C410.589,220.643,410.555,220.773,410.453,220.833z"/>
		</g>
		<g>
			<path style="fill:#FFFFFF;" d="M408.776,221.449c-2.275,1.339-5.14,0.707-6.383-1.408c-1.243-2.114-0.405-4.923,1.871-6.262
				c2.274-1.339,5.138-0.707,6.382,1.407C411.891,217.302,411.052,220.111,408.776,221.449z M404.481,214.147
				c-2.073,1.22-2.845,3.766-1.72,5.677c1.125,1.913,3.726,2.476,5.799,1.257c2.072-1.219,2.843-3.766,1.719-5.677
				C409.154,213.492,406.555,212.928,404.481,214.147z"/>
		</g>
		<g>
			<path style="fill:#FFFFFF;" d="M408.776,221.449c-1.802,1.061-4.279,0.202-5.523-1.913c-1.243-2.115-0.79-4.697,1.012-5.757
				s4.279-0.202,5.523,1.913C411.032,217.807,410.578,220.39,408.776,221.449z M404.481,214.147c-1.6,0.939-1.985,3.26-0.86,5.172
				s3.34,2.702,4.939,1.762c1.598-0.939,1.984-3.261,0.859-5.173C408.295,213.997,406.08,213.207,404.481,214.147z"/>
		</g>
		<g>
			<path style="fill:#FFFFFF;" d="M408.776,221.449c-1.023,0.603-2.817-0.61-4.081-2.762c-1.266-2.149-1.454-4.307-0.431-4.908
				c1.022-0.602,2.815,0.61,4.081,2.761S409.801,220.848,408.776,221.449z M404.481,214.147c-0.704,0.413-0.639,2.25,0.581,4.324
				c1.221,2.073,2.793,3.023,3.498,2.609c0.703-0.414,0.637-2.25-0.583-4.324C406.758,214.684,405.185,213.733,404.481,214.147z"/>
		</g>
		<g>
			<path style="fill:#FFFFFF;" d="M404.037,214.47c-0.047,0.027-0.106,0.038-0.162,0.021c-0.115-0.029-0.183-0.146-0.152-0.259
				c0.002-0.008,0.139-0.574-0.191-1.077c-0.268-0.407-0.768-0.673-1.484-0.79c-0.116-0.021-0.195-0.129-0.176-0.246
				c0.02-0.116,0.129-0.195,0.244-0.177c0.846,0.139,1.442,0.471,1.777,0.984c0.432,0.665,0.25,1.383,0.242,1.413
				C404.12,214.396,404.084,214.441,404.037,214.47z"/>
		</g>
		<g>
			<path style="fill:#FFFFFF;" d="M404.943,213.937c-0.047,0.027-0.104,0.037-0.162,0.023c-0.029-0.01-0.745-0.199-1.117-0.899
				c-0.285-0.543-0.285-1.226,0.004-2.03c0.041-0.111,0.162-0.168,0.273-0.129c0.111,0.04,0.168,0.162,0.129,0.273
				c-0.246,0.687-0.256,1.254-0.027,1.686c0.285,0.536,0.84,0.684,0.846,0.686c0.114,0.029,0.182,0.146,0.153,0.259
				C405.027,213.863,404.99,213.909,404.943,213.937z"/>
		</g>
	</g>
	<g>
		<g>
			<path style="fill:#FFFFFF;" d="M30.796,169.354c-0.117,0.014-0.223-0.071-0.236-0.188l-0.129-1.202
				c-0.012-0.118,0.073-0.223,0.189-0.236c0.118-0.012,0.223,0.073,0.235,0.19l0.129,1.201
				C30.998,169.237,30.914,169.343,30.796,169.354z"/>
		</g>
		<g>
			<path style="fill:#FFFFFF;" d="M29.333,169.209c-0.107,0.011-0.21-0.063-0.231-0.173c-0.023-0.116,0.053-0.229,0.169-0.25
				c0.632-0.121,1.225-0.799,1.23-0.806c0.069-0.08,0.186-0.098,0.276-0.042c0.007,0.005,0.731,0.454,1.339,0.389
				c0.118-0.014,0.223,0.071,0.236,0.189c0.012,0.116-0.072,0.222-0.19,0.234c-0.571,0.062-1.178-0.215-1.458-0.362
				c-0.23,0.232-0.758,0.702-1.352,0.817C29.345,169.207,29.339,169.208,29.333,169.209z"/>
		</g>
		<g>
			<path style="fill:#FFFFFF;" d="M32.441,168.143l-2.427,0.262c-0.117,0.013-0.222-0.071-0.234-0.189
				c-0.013-0.116,0.072-0.223,0.189-0.235l2.426-0.262c0.117-0.013,0.223,0.073,0.235,0.189
				C32.642,168.025,32.558,168.13,32.441,168.143z"/>
		</g>
		<g>
			<path style="fill:#FFFFFF;" d="M30.659,168.015c-2.625,0.283-4.975-1.473-5.238-3.911c-0.264-2.439,1.658-4.653,4.283-4.937
				c2.624-0.283,4.974,1.471,5.237,3.91C35.204,165.517,33.284,167.731,30.659,168.015z M29.75,159.592
				c-2.391,0.258-4.142,2.262-3.904,4.466c0.238,2.206,2.376,3.789,4.767,3.531c2.389-0.257,4.141-2.261,3.903-4.466
				C34.279,160.918,32.141,159.333,29.75,159.592z"/>
		</g>
		<g>
			<path style="fill:#FFFFFF;" d="M30.659,168.015c-2.08,0.224-3.983-1.578-4.247-4.018c-0.262-2.439,1.214-4.606,3.292-4.83
				c2.078-0.224,3.983,1.578,4.246,4.018C34.213,165.624,32.736,167.791,30.659,168.015z M29.75,159.592
				c-1.844,0.198-3.151,2.154-2.913,4.359c0.237,2.205,1.931,3.838,3.776,3.638c1.843-0.198,3.151-2.153,2.913-4.358
				C33.289,161.025,31.594,159.393,29.75,159.592z"/>
		</g>
		<g>
			<path style="fill:#FFFFFF;" d="M30.659,168.015c-1.182,0.127-2.316-1.716-2.583-4.197c-0.267-2.48,0.448-4.523,1.629-4.65
				c1.18-0.128,2.315,1.717,2.583,4.196C32.555,165.845,31.839,167.887,30.659,168.015z M29.75,159.592
				c-0.813,0.087-1.508,1.788-1.25,4.181c0.258,2.392,1.3,3.904,2.113,3.816c0.811-0.087,1.506-1.787,1.249-4.18
				C31.604,161.018,30.562,159.504,29.75,159.592z"/>
		</g>
		<g>
			<path style="fill:#FFFFFF;" d="M29.213,159.702c-0.055,0.006-0.112-0.01-0.158-0.046c-0.091-0.075-0.105-0.209-0.032-0.3
				c0.005-0.007,0.363-0.467,0.27-1.061c-0.077-0.48-0.421-0.929-1.027-1.331c-0.098-0.065-0.125-0.198-0.06-0.296
				c0.066-0.098,0.199-0.125,0.296-0.06c0.713,0.474,1.12,1.021,1.213,1.628c0.12,0.783-0.34,1.363-0.36,1.387
				C29.319,159.67,29.267,159.696,29.213,159.702z"/>
		</g>
		<g>
			<path style="fill:#FFFFFF;" d="M30.258,159.59c-0.054,0.005-0.11-0.009-0.156-0.046c-0.024-0.021-0.598-0.487-0.648-1.279
				c-0.038-0.612,0.244-1.233,0.839-1.849c0.083-0.084,0.217-0.087,0.302-0.005c0.085,0.083,0.087,0.218,0.005,0.302
				c-0.508,0.524-0.749,1.038-0.719,1.525c0.039,0.605,0.483,0.969,0.489,0.973c0.091,0.073,0.106,0.208,0.034,0.299
				C30.365,159.557,30.313,159.584,30.258,159.59z"/>
		</g>
	</g>
	<g>
		<title>pepper</title>
		<g>
			<g>
				<path style="fill:#FFFFFF;" d="M67.314,214.742c-0.275-0.455-0.668-0.827-1.138-1.077c-0.296-0.155-0.612-0.271-0.939-0.34
					c-0.285-0.059-0.562-0.158-0.817-0.296c-0.206-0.117-0.352-0.316-0.399-0.548c-0.052-0.314,0.03-0.639,0.225-0.893
					c0.44-0.622,1.225-0.754,1.892-0.613c0.146,0.035,0.297-0.048,0.346-0.191c0.052-0.156-0.032-0.323-0.188-0.375
					c-0.011-0.004-0.022-0.006-0.033-0.009c-0.865-0.183-1.898,0.003-2.498,0.849c-0.257,0.35-0.379,0.782-0.34,1.216
					c-0.611,0.06-2.152,0.411-2.947,2.408c-0.059,0.151,0.016,0.323,0.167,0.383c0.15,0.059,0.322-0.016,0.381-0.168
					c0.784-1.968,2.332-2.049,2.592-2.047c0.123,0.2,0.293,0.369,0.496,0.49c0.306,0.17,0.634,0.293,0.978,0.364
					c0.275,0.057,0.541,0.15,0.791,0.28c0.379,0.197,0.696,0.494,0.922,0.857c0.434,0.765,0.381,1.777-0.131,2.582
					c-0.15,0.232-0.303,0.463-0.451,0.695c-0.486,0.745-0.99,1.517-1.418,2.326c-0.127,0.239-0.238,0.489-0.348,0.729
					c-0.176,0.429-0.396,0.838-0.654,1.223c-0.184,0.25-0.837,1.037-1.654,0.786c-0.094-0.054-0.391-0.222-0.791-0.414
					c1.186-0.789,1.984-2.043,2.196-3.452c0.021-0.161-0.093-0.309-0.255-0.33c-0.16-0.021-0.309,0.092-0.328,0.254
					c-0.211,1.375-1.053,2.573-2.276,3.236c-0.161-0.065-0.327-0.127-0.497-0.185c-0.191-0.063-0.383-0.119-0.57-0.17
					c-0.57-0.581-0.236-2.397,0.159-3.601c0.052-0.154-0.033-0.321-0.187-0.371c-0.154-0.052-0.321,0.032-0.372,0.187
					c-0.235,0.721-0.734,2.493-0.364,3.613c-0.377-0.073-0.662-0.111-0.76-0.123c-0.804-0.292-0.851-1.315-0.846-1.624
					c0.023-0.463,0.097-0.921,0.215-1.37c0.058-0.258,0.118-0.524,0.162-0.792c0.146-0.904,0.209-1.823,0.27-2.711
					c0.02-0.276,0.039-0.551,0.061-0.826c0.074-0.951,0.643-1.791,1.451-2.141c0.744-0.32,1.495-0.114,2.283,0.159
					c0.152,0.053,0.32-0.029,0.373-0.183s-0.028-0.32-0.181-0.375c-0.841-0.292-1.772-0.546-2.71-0.142
					c-1.005,0.434-1.713,1.468-1.805,2.635c-0.021,0.277-0.041,0.554-0.06,0.831c-0.061,0.875-0.124,1.78-0.267,2.658
					c-0.039,0.249-0.095,0.495-0.153,0.757c-0.128,0.486-0.204,0.986-0.229,1.49c-0.018,1.104,0.459,1.927,1.276,2.2l0.061,0.014
					c0.681,0.087,1.352,0.235,2.005,0.443c0.646,0.228,1.271,0.515,1.867,0.854l0.057,0.025c0.816,0.274,1.692-0.095,2.344-0.987
					c0.283-0.417,0.524-0.861,0.716-1.328c0.11-0.243,0.216-0.473,0.333-0.696c0.415-0.786,0.91-1.546,1.389-2.28
					c0.152-0.232,0.305-0.466,0.454-0.699C67.796,216.945,67.855,215.694,67.314,214.742z"/>
				<path style="fill:#FFFFFF;" d="M63.675,217.359l0.004,0.002c0.156,0.044,0.318-0.045,0.363-0.2
					c0.002-0.003,0.002-0.005,0.004-0.009c0.125-0.479,0.324-1.355,0.281-1.964c-0.012-0.161-0.152-0.283-0.313-0.271
					c-0.16,0.01-0.282,0.15-0.271,0.312c0.029,0.415-0.113,1.177-0.269,1.774C63.435,217.157,63.524,217.315,63.675,217.359z"/>
				<path style="fill:#FFFFFF;" d="M66.086,217.099c0.159,0.036,0.317-0.063,0.354-0.224c0.003-0.007,0.005-0.017,0.006-0.024
					c0.085-0.484,0.026-0.982-0.169-1.434c-0.072-0.147-0.252-0.209-0.4-0.137c-0.139,0.073-0.195,0.242-0.13,0.386
					c0.146,0.35,0.187,0.736,0.114,1.107C65.841,216.925,65.938,217.065,66.086,217.099z"/>
			</g>
		</g>
	</g>
	<g>
		<path style="fill:#FFFFFF;" d="M449.153,70.335c-0.575-1.544-2.209-1.866-2.408-1.899l-2.266-0.632
			c-0.159-0.053-0.622-0.256-0.863-0.549c-0.095-0.114-0.261-0.13-0.375-0.037c-0.113,0.093-0.131,0.261-0.038,0.375
			c0.388,0.471,1.078,0.706,1.12,0.719l2.293,0.641c0.011,0.003,0.021,0.004,0.032,0.006c0.015,0.003,1.516,0.242,2.006,1.562
			c0.347,0.932-0.224,1.669-0.839,2.158c0.008-0.071,0.017-0.143,0.017-0.215c0.008-1.437-1.558-2.563-1.625-2.61
			c-0.119-0.084-0.285-0.057-0.371,0.063c-0.084,0.12-0.056,0.285,0.063,0.37c0.014,0.011,1.408,1.017,1.4,2.175
			c-0.003,0.569-0.356,1.102-1.048,1.586c-0.134,0.066-1.197,0.546-2.181-0.31c-0.111-0.098-0.279-0.085-0.376,0.025
			c-0.097,0.111-0.084,0.278,0.027,0.375c0.191,0.168,0.386,0.294,0.579,0.389c-0.35,0.234-0.768,0.348-1.193,0.316
			c-0.524-0.039-0.974-0.289-1.266-0.708c-0.805-1.149-0.186-2.526-0.18-2.539c0.005-0.01,0.008-0.02,0.012-0.029l0.745-2.255
			c0.014-0.04,0.128-0.403,0.007-1.261c-0.021-0.146-0.155-0.247-0.302-0.226c-0.145,0.021-0.246,0.155-0.226,0.3
			c0.103,0.72,0.018,1.013,0.017,1.014l-0.742,2.247c-0.08,0.181-0.712,1.707,0.232,3.056c0.381,0.542,0.986,0.882,1.662,0.933
			c0.462,0.034,0.916-0.063,1.314-0.276c0.186-0.099,0.358-0.224,0.515-0.369c0.869,0.17,1.575-0.196,1.617-0.218
			c0.009-0.005,0.018-0.011,0.025-0.017c0.434-0.3,0.758-0.623,0.974-0.969C449.011,72.649,449.593,71.518,449.153,70.335z"/>
		<path style="fill:#FFFFFF;" d="M442.772,70.281c-0.019,0.107-0.179,1.062-0.063,1.581c0.032,0.143,0.176,0.233,0.318,0.202
			c0.024-0.006,0.047-0.014,0.067-0.025c0.103-0.056,0.162-0.173,0.135-0.294c-0.079-0.353,0.021-1.109,0.067-1.372
			c0.025-0.145-0.071-0.282-0.217-0.308C442.936,70.04,442.798,70.138,442.772,70.281z"/>
		<path style="fill:#FFFFFF;" d="M442.578,67.208c0.129-0.069,0.179-0.23,0.109-0.36l-0.635-1.19c-0.069-0.13-0.23-0.179-0.36-0.11
			c-0.129,0.068-0.178,0.23-0.109,0.36l0.636,1.19C442.287,67.228,442.448,67.277,442.578,67.208z"/>
		<path style="fill:#FFFFFF;" d="M443.133,66.872c0.049,0.001,0.094-0.01,0.134-0.031c0.081-0.043,0.138-0.129,0.141-0.227
			l0.02-0.607c0.004-0.146-0.111-0.271-0.259-0.274c-0.146-0.005-0.269,0.11-0.273,0.258l-0.02,0.607
			C442.871,66.744,442.986,66.867,443.133,66.872z"/>
		<path style="fill:#FFFFFF;" d="M441.696,67.597c0.067,0.019,0.137,0.009,0.192-0.021c0.063-0.034,0.113-0.094,0.133-0.168
			c0.038-0.142-0.047-0.287-0.188-0.324l-0.75-0.198c-0.142-0.036-0.287,0.047-0.325,0.189c-0.038,0.142,0.047,0.287,0.189,0.325
			L441.696,67.597z"/>
	</g>
	<g>
		<title>Noun Project</title>
		<path style="fill:#FFFFFF;" d="M368.262,176.78L368.262,176.78c0.971,1.093,3.289,1.22,4.926-0.234
			c1.639-1.454,1.786-3.774,0.816-4.866l-0.041-0.046c-0.278-0.313-0.754-0.349-1.076-0.082l-1.063,0.942l-1.835-2.066
			c-0.253-0.284-0.688-0.311-0.972-0.058l-1.466,1.301c-0.284,0.253-0.31,0.688-0.058,0.973l1.831,2.063l-1.063,0.944
			c-0.306,0.295-0.32,0.781-0.031,1.094L368.262,176.78z M367.79,172.381c-0.105-0.121-0.095-0.304,0.024-0.41l1.465-1.301
			c0.121-0.105,0.304-0.095,0.411,0.024l1.831,2.062l-1.9,1.688L367.79,172.381z M368.525,175.95l4.615-4.1
			c0.165-0.124,0.398-0.097,0.528,0.063l0.032,0.036c0.828,0.934,0.666,3.019-0.781,4.304c-1.449,1.287-3.533,1.193-4.36,0.262
			l-0.032-0.036C368.387,176.331,368.385,176.099,368.525,175.95L368.525,175.95z"/>
	</g>
	<g>
		<path style="fill:#FFFFFF;" d="M399.707,99.817c0.619,1.528,2.261,1.802,2.463,1.829l2.282,0.565
			c0.16,0.049,0.63,0.236,0.88,0.524c0.096,0.11,0.264,0.122,0.375,0.025c0.11-0.096,0.122-0.265,0.026-0.375
			c-0.4-0.46-1.098-0.675-1.14-0.688l-2.312-0.572c-0.01-0.003-0.021-0.005-0.03-0.006c-0.017-0.002-1.522-0.197-2.052-1.503
			c-0.373-0.921,0.176-1.675,0.776-2.182c-0.007,0.072-0.013,0.145-0.011,0.216c0.034,1.436,1.632,2.517,1.699,2.563
			c0.123,0.081,0.288,0.048,0.369-0.073c0.081-0.123,0.049-0.288-0.074-0.37c-0.014-0.009-1.437-0.975-1.463-2.133
			c-0.012-0.568,0.325-1.112,1.002-1.614c0.132-0.071,1.182-0.582,2.189,0.245c0.113,0.094,0.281,0.076,0.374-0.037
			c0.094-0.113,0.076-0.28-0.037-0.374c-0.196-0.161-0.395-0.282-0.591-0.371c0.343-0.245,0.757-0.371,1.186-0.352
			c0.524,0.024,0.979,0.263,1.284,0.671c0.838,1.126,0.259,2.521,0.253,2.534c-0.004,0.01-0.007,0.02-0.011,0.029l-0.68,2.276
			c-0.012,0.039-0.117,0.405,0.03,1.26c0.025,0.145,0.162,0.241,0.308,0.217c0.145-0.024,0.242-0.162,0.217-0.307
			c-0.122-0.717-0.046-1.012-0.046-1.014l0.677-2.268c0.075-0.183,0.662-1.727-0.321-3.046c-0.396-0.532-1.011-0.854-1.688-0.886
			c-0.462-0.02-0.912,0.091-1.306,0.315c-0.183,0.104-0.351,0.232-0.504,0.384c-0.873-0.145-1.569,0.242-1.609,0.266
			c-0.009,0.004-0.018,0.01-0.025,0.016c-0.424,0.313-0.739,0.646-0.944,0.998C399.782,97.5,399.232,98.648,399.707,99.817z"/>
		<path style="fill:#FFFFFF;" d="M406.087,99.687c0.015-0.108,0.147-1.066,0.017-1.582c-0.036-0.143-0.183-0.229-0.323-0.192
			c-0.024,0.006-0.047,0.015-0.066,0.027c-0.102,0.057-0.157,0.178-0.127,0.297c0.09,0.35,0.011,1.11-0.027,1.374
			c-0.021,0.146,0.079,0.279,0.226,0.301C405.931,99.932,406.065,99.83,406.087,99.687z"/>
		<path style="fill:#FFFFFF;" d="M406.37,102.753c-0.128,0.073-0.172,0.235-0.1,0.362l0.669,1.173
			c0.073,0.128,0.236,0.172,0.363,0.099c0.128-0.073,0.172-0.234,0.1-0.362l-0.67-1.173
			C406.659,102.725,406.498,102.68,406.37,102.753z"/>
		<path style="fill:#FFFFFF;" d="M405.825,103.104c-0.048,0.001-0.093,0.014-0.133,0.036c-0.079,0.046-0.134,0.132-0.134,0.229
			l-0.002,0.608c0,0.147,0.119,0.267,0.267,0.267c0.146,0,0.266-0.118,0.266-0.265l0.002-0.608
			C406.091,103.225,405.972,103.105,405.825,103.104z"/>
		<path style="fill:#FFFFFF;" d="M407.239,102.338c-0.067-0.016-0.136-0.004-0.191,0.028c-0.063,0.035-0.11,0.096-0.127,0.171
			c-0.033,0.143,0.056,0.286,0.198,0.319l0.756,0.176c0.142,0.033,0.285-0.056,0.318-0.199c0.034-0.143-0.056-0.285-0.198-0.319
			L407.239,102.338z"/>
	</g>
	<g>
		<path style="fill:#FFFFFF;" d="M151.542,63.986c-0.621-1.525-2.264-1.797-2.465-1.824l-2.283-0.563
			c-0.16-0.048-0.63-0.236-0.88-0.522c-0.097-0.11-0.265-0.122-0.376-0.025c-0.11,0.097-0.122,0.265-0.025,0.375
			c0.401,0.459,1.098,0.674,1.14,0.686l2.313,0.569c0.011,0.004,0.021,0.006,0.031,0.007c0.016,0.002,1.522,0.195,2.054,1.499
			c0.375,0.922-0.173,1.676-0.774,2.183c0.007-0.071,0.013-0.143,0.011-0.215c-0.035-1.436-1.635-2.515-1.703-2.56
			c-0.122-0.082-0.287-0.048-0.368,0.073c-0.082,0.123-0.049,0.288,0.074,0.369c0.014,0.01,1.438,0.974,1.466,2.131
			c0.013,0.569-0.323,1.113-1,1.616c-0.132,0.071-1.181,0.584-2.189-0.242c-0.114-0.094-0.281-0.076-0.374,0.037
			c-0.094,0.113-0.076,0.281,0.037,0.374c0.197,0.161,0.396,0.282,0.591,0.37c-0.342,0.245-0.756,0.372-1.183,0.353
			c-0.525-0.022-0.981-0.261-1.286-0.668c-0.841-1.125-0.263-2.521-0.257-2.534c0.004-0.01,0.008-0.019,0.01-0.029l0.678-2.276
			c0.012-0.04,0.116-0.407-0.031-1.26c-0.026-0.146-0.163-0.242-0.309-0.217c-0.144,0.024-0.241,0.162-0.217,0.307
			c0.124,0.717,0.048,1.012,0.048,1.013l-0.674,2.269c-0.075,0.184-0.66,1.728,0.325,3.047c0.396,0.531,1.012,0.852,1.689,0.882
			c0.462,0.021,0.913-0.091,1.305-0.315c0.183-0.105,0.352-0.234,0.504-0.385c0.873,0.143,1.568-0.243,1.609-0.268
			c0.009-0.004,0.018-0.01,0.025-0.016c0.424-0.313,0.738-0.647,0.943-0.999C151.471,66.305,152.018,65.156,151.542,63.986z"/>
		<path style="fill:#FFFFFF;" d="M145.163,64.127c-0.016,0.108-0.146,1.066-0.016,1.582c0.036,0.142,0.182,0.229,0.324,0.192
			c0.024-0.006,0.046-0.016,0.066-0.028c0.101-0.057,0.156-0.177,0.125-0.296c-0.089-0.351-0.011-1.11,0.027-1.375
			c0.021-0.145-0.081-0.279-0.227-0.3C145.318,63.881,145.184,63.982,145.163,64.127z"/>
		<path style="fill:#FFFFFF;" d="M144.876,61.061c0.127-0.073,0.171-0.235,0.098-0.362l-0.67-1.172
			c-0.073-0.128-0.236-0.172-0.363-0.099s-0.171,0.235-0.098,0.362l0.67,1.172C144.586,61.09,144.748,61.134,144.876,61.061z"/>
		<path style="fill:#FFFFFF;" d="M145.42,60.709c0.048-0.001,0.094-0.014,0.132-0.036c0.08-0.046,0.135-0.132,0.135-0.23v-0.608
			c0-0.146-0.119-0.266-0.266-0.266c-0.147,0-0.267,0.119-0.267,0.266v0.607C145.154,60.589,145.273,60.708,145.42,60.709z"/>
		<path style="fill:#FFFFFF;" d="M144.006,61.477c0.068,0.017,0.136,0.004,0.192-0.028c0.063-0.035,0.109-0.096,0.126-0.171
			c0.034-0.143-0.056-0.285-0.197-0.319l-0.756-0.175c-0.144-0.032-0.286,0.057-0.319,0.199s0.056,0.286,0.199,0.318L144.006,61.477
			z"/>
	</g>
	<g>
		<g>
			<path style="fill:#FFFFFF;" d="M409.549,243.415c-0.005,0-0.01,0.003-0.015,0.003c-0.077-0.104-0.2-0.163-0.335-0.146
				c-0.511,0.067-1.238,0.248-1.803,0.726c-0.226,0.191-0.408,0.417-0.544,0.67l-0.521-0.615c-0.215-0.254-0.571-0.305-0.798-0.114
				l-0.364,0.31c-0.227,0.19-0.234,0.552-0.021,0.805l0.573,0.676c-0.149,0.087-0.352,0.219-0.567,0.401
				c-0.516,0.436-0.88,0.959-1.086,1.561c-0.054,0.153,0,0.321,0.138,0.414c0.024,0.015,0.05,0.028,0.075,0.038
				c-0.013,0.015-0.025,0.034-0.038,0.051c-0.031,0.044-0.052,0.094-0.062,0.148c-0.268,1.52,0.122,3.036,1.07,4.156
				c1.858,2.196,5.323,2.333,7.725,0.301s2.842-5.471,0.982-7.668C412.896,243.876,411.288,243.248,409.549,243.415z
				 M405.432,246.457c0.228-0.191,0.436-0.32,0.571-0.394c0.194-0.107,0.246-0.376,0.102-0.548l-0.627-0.74
				c-0.061-0.076-0.065-0.168-0.029-0.198l0.365-0.31c0.036-0.031,0.126-0.011,0.189,0.063l0.592,0.699
				c0.063,0.076,0.152,0.119,0.25,0.127c0.146,0.009,0.287-0.073,0.351-0.206c0.112-0.236,0.273-0.445,0.481-0.622
				c0.397-0.337,0.902-0.503,1.321-0.586c-0.009,0.006-0.017,0.014-0.026,0.021c-0.007,0.005-0.013,0.011-0.02,0.017
				c-0.021,0.017-0.036,0.034-0.054,0.049c-0.339,0.288-0.594,0.552-0.765,0.787c-0.086,0.118-0.092,0.275-0.015,0.399
				c0.078,0.126,0.224,0.191,0.374,0.167c0.615-0.105,1.036,0.041,1.309,0.226c-0.813,0.014-1.427,0.424-1.67,0.62
				c-0.075,0.063-0.119,0.15-0.127,0.248s0.023,0.191,0.089,0.266c0.729,0.835,0.916,1.648,0.964,2.049
				c-0.455-0.206-1.13-0.903-1.633-1.52c-0.117-0.141-0.323-0.173-0.479-0.071c-0.047,0.03-0.093,0.065-0.135,0.1
				c-0.009,0.008-0.016,0.017-0.023,0.023c-0.022,0.018-0.04,0.039-0.062,0.061c-0.033,0.035-0.066,0.066-0.096,0.104
				c-0.018,0.02-0.033,0.041-0.05,0.061c-0.033,0.042-0.063,0.084-0.092,0.129c-0.013,0.019-0.026,0.039-0.037,0.06
				c-0.03,0.048-0.059,0.098-0.087,0.148c-0.009,0.02-0.019,0.037-0.03,0.058c-0.027,0.054-0.052,0.108-0.075,0.165
				c-0.007,0.018-0.016,0.037-0.022,0.056c-0.022,0.057-0.045,0.115-0.064,0.171c-0.006,0.02-0.015,0.038-0.022,0.058
				c-0.02,0.057-0.036,0.113-0.054,0.17c-0.006,0.02-0.013,0.042-0.019,0.062c-0.018,0.06-0.031,0.12-0.047,0.179
				c-0.003,0.013-0.008,0.028-0.012,0.044c-0.05-0.25-0.067-0.479-0.063-0.681c0.004-0.256,0.037-0.471,0.077-0.634
				c0.002-0.01,0.005-0.024,0.007-0.031c0.003-0.014,0.007-0.022,0.011-0.034c0.007-0.028,0.014-0.057,0.022-0.081
				c0.037-0.128,0.002-0.269-0.096-0.362c-0.097-0.095-0.238-0.126-0.366-0.082c-0.011,0.003-0.022,0.009-0.033,0.013
				c-0.049,0.02-0.099,0.041-0.151,0.066c-0.026,0.015-0.055,0.026-0.081,0.043c-0.008,0.003-0.012,0.007-0.018,0.01
				c-0.004,0.002-0.007,0.005-0.01,0.008c-0.217,0.127-0.442,0.312-0.676,0.555C404.83,247.071,405.095,246.742,405.432,246.457z
				 M412.7,252.472c-2.219,1.877-5.412,1.764-7.118-0.253c-0.864-1.021-1.219-2.401-0.977-3.791
				c0.276-0.397,0.596-0.798,0.938-1.181c0.026-0.017,0.052-0.029,0.077-0.042c-0.036,0.146-0.07,0.333-0.084,0.551
				c0,0.006,0.001,0.011-0.002,0.015c-0.003,0.068-0.007,0.138-0.008,0.21c0,0.027,0.002,0.056,0.003,0.083
				c0,0.054,0,0.107,0.005,0.163c0.003,0.055,0.01,0.109,0.017,0.167c0.003,0.033,0.005,0.063,0.009,0.097
				c0.013,0.088,0.025,0.178,0.048,0.271c0,0.003,0,0.004,0.002,0.01c0.021,0.094,0.045,0.192,0.075,0.295
				c0.034,0.118,0.122,0.204,0.236,0.24c0.197,0.059,0.425-0.077,0.461-0.283c0.145-0.794,0.401-1.376,0.747-1.628
				c0.386,0.467,1.262,1.451,1.898,1.646c0.118,0.036,0.245,0.01,0.339-0.069c0.088-0.074,0.136-0.188,0.127-0.302
				c-0.024-0.333-0.147-1.121-0.747-1.984c-0.084-0.123-0.181-0.247-0.287-0.372c0.255-0.187,0.812-0.521,1.521-0.47
				c0.201,0.013,0.38-0.155,0.386-0.353c0.002-0.104-0.041-0.202-0.119-0.272c-0.223-0.204-0.563-0.417-1.054-0.483
				c-0.014-0.002-0.027-0.005-0.042-0.007c-0.02-0.004-0.042-0.001-0.063-0.004c-0.155-0.012-0.32-0.013-0.503,0.008
				c0.127-0.153,0.33-0.361,0.64-0.622c0.014-0.013,0.029-0.025,0.042-0.036c0.021-0.018,0.04-0.034,0.062-0.052l0.063-0.046
				c0.055-0.034,0.107-0.068,0.161-0.105l0.046-0.03c1.591-0.146,3.057,0.425,4.024,1.568
				C415.335,247.427,414.92,250.594,412.7,252.472z"/>
			<path style="fill:#FFFFFF;" d="M406.424,251.859c-0.09-0.079-0.225-0.072-0.302,0.02c-0.08,0.09-0.072,0.225,0.018,0.304
				c0.242,0.215,0.518,0.376,0.817,0.479c0.076,0.026,0.153,0.008,0.209-0.039c0.028-0.022,0.053-0.055,0.064-0.094
				c0.041-0.113-0.021-0.236-0.132-0.274C406.854,252.17,406.623,252.033,406.424,251.859z"/>
			<path style="fill:#FFFFFF;" d="M405.848,251.491c0.003-0.003,0.008-0.007,0.012-0.01c0.085-0.072,0.103-0.199,0.034-0.292
				c-0.144-0.199-0.261-0.412-0.344-0.637c-0.042-0.113-0.165-0.169-0.278-0.129c-0.111,0.041-0.167,0.166-0.126,0.277
				c0.097,0.263,0.231,0.514,0.4,0.743C405.617,251.538,405.751,251.562,405.848,251.491z"/>
		</g>
	</g>
	<g>
		<g>
			<path style="fill:#FFFFFF;" d="M367.153,79.277c-0.001-0.005-0.003-0.009-0.003-0.015c0.109-0.069,0.178-0.188,0.169-0.324
				c-0.03-0.514-0.159-1.252-0.595-1.85c-0.175-0.238-0.387-0.437-0.63-0.59l0.651-0.476c0.27-0.195,0.346-0.549,0.171-0.787
				l-0.282-0.387c-0.175-0.237-0.533-0.271-0.801-0.077l-0.717,0.523c-0.075-0.155-0.191-0.367-0.358-0.595
				c-0.398-0.544-0.894-0.945-1.479-1.194c-0.15-0.064-0.321-0.022-0.424,0.108c-0.017,0.023-0.031,0.048-0.042,0.072
				c-0.016-0.014-0.034-0.026-0.05-0.042c-0.041-0.034-0.091-0.058-0.144-0.072c-1.497-0.375-3.037-0.093-4.221,0.771
				c-2.324,1.697-2.707,5.144-0.853,7.684c1.856,2.54,5.255,3.225,7.579,1.527C366.455,82.583,367.195,81.024,367.153,79.277z
				 M364.412,74.954c0.176,0.24,0.289,0.457,0.352,0.598c0.094,0.201,0.357,0.272,0.54,0.141l0.783-0.572
				c0.079-0.056,0.172-0.054,0.199-0.016l0.282,0.387c0.028,0.038,0.002,0.127-0.076,0.184l-0.739,0.541
				c-0.08,0.059-0.13,0.144-0.145,0.241c-0.02,0.145,0.052,0.291,0.18,0.364c0.228,0.128,0.426,0.305,0.586,0.524
				c0.308,0.421,0.439,0.936,0.491,1.359c-0.006-0.009-0.012-0.018-0.021-0.027c-0.004-0.008-0.01-0.015-0.015-0.022
				c-0.016-0.02-0.031-0.038-0.045-0.057c-0.264-0.357-0.509-0.631-0.73-0.817c-0.112-0.095-0.268-0.111-0.397-0.044
				c-0.131,0.069-0.207,0.21-0.194,0.361c0.063,0.621-0.113,1.03-0.317,1.289c0.045-0.813-0.321-1.453-0.499-1.71
				c-0.057-0.079-0.142-0.129-0.238-0.144c-0.097-0.016-0.193,0.01-0.272,0.069c-0.884,0.668-1.709,0.796-2.112,0.814
				c0.238-0.438,0.981-1.061,1.633-1.521c0.148-0.106,0.195-0.309,0.105-0.473c-0.027-0.048-0.058-0.097-0.091-0.142
				c-0.007-0.009-0.014-0.017-0.021-0.024c-0.017-0.023-0.037-0.043-0.057-0.065c-0.031-0.036-0.061-0.071-0.097-0.104
				c-0.018-0.02-0.039-0.037-0.058-0.054c-0.039-0.036-0.079-0.068-0.122-0.101c-0.018-0.014-0.037-0.03-0.056-0.042
				c-0.046-0.033-0.094-0.065-0.144-0.096c-0.018-0.011-0.034-0.022-0.054-0.035c-0.053-0.031-0.105-0.06-0.16-0.087
				c-0.017-0.008-0.035-0.019-0.054-0.026c-0.055-0.027-0.111-0.054-0.166-0.076c-0.019-0.008-0.035-0.018-0.056-0.027
				c-0.056-0.023-0.11-0.044-0.166-0.065c-0.02-0.007-0.04-0.016-0.06-0.022c-0.059-0.021-0.117-0.041-0.174-0.061
				c-0.015-0.004-0.028-0.009-0.043-0.014c0.252-0.032,0.48-0.033,0.684-0.016c0.254,0.022,0.465,0.071,0.625,0.122
				c0.01,0.004,0.024,0.007,0.031,0.01c0.014,0.004,0.021,0.008,0.033,0.013c0.027,0.01,0.056,0.018,0.079,0.027
				c0.125,0.048,0.267,0.022,0.368-0.069c0.103-0.09,0.143-0.229,0.108-0.358c-0.002-0.012-0.008-0.023-0.011-0.035
				c-0.016-0.05-0.034-0.1-0.055-0.154c-0.013-0.028-0.023-0.058-0.038-0.085c-0.002-0.007-0.006-0.012-0.008-0.019
				c-0.002-0.004-0.004-0.007-0.008-0.01c-0.111-0.227-0.279-0.464-0.504-0.713C363.842,74.311,364.151,74.597,364.412,74.954z
				 M357.895,81.775c-1.714-2.348-1.373-5.524,0.76-7.083c1.079-0.787,2.482-1.043,3.852-0.703c0.377,0.305,0.753,0.652,1.111,1.021
				c0.014,0.026,0.024,0.052,0.036,0.079c-0.144-0.046-0.328-0.094-0.544-0.123c-0.006-0.001-0.011,0-0.015-0.002
				c-0.068-0.009-0.136-0.019-0.209-0.023c-0.027-0.002-0.056-0.002-0.083-0.004c-0.054-0.004-0.106-0.008-0.163-0.008
				c-0.054,0-0.109,0.004-0.167,0.006c-0.034,0.001-0.063,0.001-0.098,0.002c-0.089,0.006-0.179,0.014-0.273,0.027
				c-0.002,0-0.004,0.002-0.01,0.003c-0.096,0.015-0.195,0.03-0.299,0.054c-0.12,0.025-0.213,0.106-0.257,0.218
				c-0.073,0.193,0.046,0.43,0.249,0.481c0.782,0.2,1.344,0.498,1.571,0.86c-0.493,0.353-1.538,1.154-1.778,1.776
				c-0.044,0.115-0.026,0.244,0.045,0.344c0.067,0.092,0.177,0.147,0.292,0.147c0.333-0.001,1.13-0.067,2.032-0.604
				c0.129-0.075,0.26-0.163,0.393-0.26c0.167,0.268,0.461,0.847,0.359,1.55c-0.027,0.199,0.128,0.39,0.324,0.409
				c0.104,0.011,0.204-0.026,0.28-0.098c0.22-0.208,0.456-0.533,0.558-1.019c0.003-0.013,0.007-0.025,0.01-0.04
				c0.005-0.019,0.004-0.043,0.007-0.063c0.023-0.154,0.037-0.318,0.029-0.502c0.144,0.138,0.337,0.354,0.576,0.682
				c0.011,0.016,0.022,0.032,0.032,0.046c0.016,0.021,0.031,0.041,0.047,0.064l0.041,0.065c0.031,0.058,0.061,0.113,0.094,0.17
				l0.026,0.048c0.032,1.597-0.642,3.018-1.852,3.901C362.737,84.763,359.608,84.123,357.895,81.775z"/>
			<path style="fill:#FFFFFF;" d="M358.953,75.56c0.086-0.085,0.088-0.221,0.002-0.304c-0.083-0.087-0.219-0.089-0.305-0.005
				c-0.231,0.228-0.411,0.489-0.536,0.782c-0.031,0.073-0.02,0.152,0.022,0.212c0.023,0.029,0.052,0.056,0.091,0.07
				c0.109,0.049,0.236-0.004,0.282-0.112C358.611,75.966,358.766,75.743,358.953,75.56z"/>
			<path style="fill:#FFFFFF;" d="M359.361,75.01c0.002,0.004,0.007,0.009,0.009,0.012c0.065,0.091,0.192,0.117,0.288,0.056
				c0.209-0.13,0.431-0.23,0.661-0.298c0.115-0.032,0.18-0.152,0.146-0.267c-0.032-0.115-0.152-0.18-0.268-0.146
				c-0.268,0.078-0.528,0.194-0.77,0.346C359.33,74.776,359.298,74.908,359.361,75.01z"/>
		</g>
	</g>
	<g>
		<circle style="fill:none;stroke:#FFFFFF;stroke-miterlimit:10;" cx="76.994" cy="254.635" r="3.87"/>
		<circle style="fill:#FFFFFF;" cx="75.115" cy="253.508" r="0.558"/>
		<circle style="fill:#FFFFFF;" cx="77.129" cy="255.461" r="0.713"/>
		<circle style="fill:#FFFFFF;" cx="75.673" cy="255.739" r="0.248"/>
		<circle style="fill:#FFFFFF;" cx="74.68" cy="254.996" r="0.373"/>
		<circle style="fill:#FFFFFF;" cx="78.163" cy="253.062" r="0.372"/>
	</g>
	<g>
		<circle style="fill:none;stroke:#FFFFFF;stroke-miterlimit:10;" cx="77.738" cy="103.693" r="3.869"/>
		<circle style="fill:#FFFFFF;" cx="75.859" cy="102.566" r="0.558"/>
		<circle style="fill:#FFFFFF;" cx="77.874" cy="104.52" r="0.713"/>
		<circle style="fill:#FFFFFF;" cx="76.417" cy="104.799" r="0.248"/>
		<circle style="fill:#FFFFFF;" cx="75.425" cy="104.055" r="0.372"/>
		<circle style="fill:#FFFFFF;" cx="78.907" cy="102.12" r="0.372"/>
	</g>
	<g>
		<g>
			<path style="fill:#FFFFFF;" d="M156.223,134.808c-0.101,0.06-0.232,0.026-0.291-0.076l-0.613-1.041
				c-0.06-0.103-0.025-0.234,0.076-0.293c0.102-0.061,0.232-0.025,0.291,0.076l0.613,1.041
				C156.359,134.617,156.326,134.748,156.223,134.808z"/>
		</g>
		<g>
			<path style="fill:#FFFFFF;" d="M154.83,135.276c-0.095,0.055-0.219,0.03-0.282-0.063c-0.067-0.096-0.046-0.229,0.052-0.297
				c0.525-0.371,0.787-1.232,0.79-1.241c0.03-0.101,0.128-0.165,0.233-0.15c0.008,0.001,0.853,0.111,1.38-0.198
				c0.103-0.061,0.233-0.026,0.292,0.075c0.061,0.102,0.027,0.232-0.076,0.293c-0.495,0.291-1.162,0.29-1.477,0.27
				c-0.115,0.306-0.402,0.953-0.896,1.302C154.841,135.27,154.836,135.273,154.83,135.276z"/>
		</g>
		<g>
			<path style="fill:#FFFFFF;" d="M157.223,133.026l-2.104,1.236c-0.101,0.061-0.231,0.026-0.291-0.075
				c-0.061-0.101-0.026-0.233,0.075-0.293l2.104-1.236c0.101-0.06,0.232-0.026,0.292,0.075
				C157.358,132.836,157.324,132.967,157.223,133.026z"/>
		</g>
		<g>
			<path style="fill:#FFFFFF;" d="M155.546,133.643c-2.275,1.339-5.14,0.707-6.383-1.408c-1.243-2.114-0.405-4.923,1.871-6.262
				c2.274-1.339,5.138-0.707,6.382,1.407C158.66,129.495,157.821,132.305,155.546,133.643z M151.251,126.341
				c-2.073,1.22-2.845,3.766-1.72,5.677c1.125,1.913,3.726,2.476,5.799,1.257c2.072-1.219,2.843-3.766,1.719-5.677
				C155.924,125.686,153.324,125.121,151.251,126.341z"/>
		</g>
		<g>
			<path style="fill:#FFFFFF;" d="M155.546,133.643c-1.802,1.061-4.279,0.202-5.523-1.913c-1.243-2.115-0.79-4.697,1.012-5.757
				s4.279-0.202,5.523,1.913C157.802,130,157.348,132.583,155.546,133.643z M151.251,126.341c-1.6,0.939-1.985,3.26-0.86,5.172
				s3.34,2.702,4.939,1.762c1.598-0.939,1.984-3.261,0.859-5.173C155.064,126.19,152.85,125.4,151.251,126.341z"/>
		</g>
		<g>
			<path style="fill:#FFFFFF;" d="M155.546,133.643c-1.023,0.603-2.817-0.61-4.081-2.762c-1.266-2.149-1.454-4.307-0.431-4.908
				c1.022-0.602,2.815,0.61,4.081,2.761S156.57,133.041,155.546,133.643z M151.251,126.341c-0.704,0.413-0.639,2.25,0.581,4.324
				c1.221,2.073,2.793,3.023,3.498,2.609c0.703-0.414,0.637-2.25-0.583-4.324C153.527,126.877,151.954,125.927,151.251,126.341z"/>
		</g>
		<g>
			<path style="fill:#FFFFFF;" d="M150.807,126.663c-0.047,0.027-0.106,0.038-0.162,0.021c-0.115-0.029-0.183-0.146-0.152-0.259
				c0.002-0.008,0.139-0.574-0.191-1.077c-0.268-0.407-0.768-0.673-1.484-0.79c-0.116-0.021-0.195-0.129-0.176-0.246
				c0.02-0.116,0.129-0.195,0.244-0.177c0.846,0.139,1.442,0.471,1.777,0.984c0.432,0.665,0.25,1.383,0.242,1.413
				C150.89,126.59,150.854,126.635,150.807,126.663z"/>
		</g>
		<g>
			<path style="fill:#FFFFFF;" d="M151.713,126.13c-0.047,0.027-0.104,0.037-0.162,0.023c-0.029-0.01-0.745-0.199-1.117-0.899
				c-0.285-0.543-0.285-1.226,0.004-2.03c0.041-0.111,0.162-0.168,0.273-0.129c0.111,0.04,0.168,0.162,0.129,0.273
				c-0.246,0.687-0.256,1.254-0.027,1.686c0.285,0.536,0.84,0.684,0.846,0.686c0.114,0.029,0.182,0.146,0.153,0.259
				C151.797,126.057,151.76,126.103,151.713,126.13z"/>
		</g>
	</g>
	<g>
		<title>Noun Project</title>
		<path style="fill:#FFFFFF;" d="M206.688,23.538L206.688,23.538c0.971,1.093,3.289,1.22,4.926-0.234
			c1.639-1.454,1.786-3.774,0.816-4.866l-0.041-0.046c-0.278-0.313-0.754-0.349-1.076-0.082l-1.063,0.942l-1.835-2.066
			c-0.253-0.284-0.688-0.311-0.972-0.058l-1.466,1.301c-0.284,0.253-0.31,0.688-0.058,0.973l1.831,2.063l-1.063,0.944
			c-0.306,0.295-0.32,0.781-0.031,1.094L206.688,23.538z M206.217,19.139c-0.105-0.121-0.095-0.304,0.024-0.41l1.465-1.301
			c0.121-0.105,0.304-0.095,0.411,0.024l1.831,2.062l-1.9,1.688L206.217,19.139z M206.952,22.708l4.615-4.1
			c0.165-0.124,0.398-0.097,0.528,0.063l0.032,0.036c0.828,0.934,0.666,3.019-0.781,4.304c-1.449,1.287-3.533,1.193-4.36,0.262
			l-0.032-0.036C206.813,23.089,206.812,22.856,206.952,22.708L206.952,22.708z"/>
	</g>
	<g>
		<g>
			<path style="fill:#FFFFFF;" d="M387.976,42.162c-0.001-0.005-0.003-0.009-0.003-0.015c0.109-0.069,0.178-0.188,0.169-0.324
				c-0.03-0.514-0.159-1.252-0.595-1.85c-0.175-0.238-0.387-0.437-0.63-0.59l0.651-0.476c0.27-0.195,0.346-0.549,0.171-0.787
				l-0.282-0.387c-0.175-0.237-0.533-0.271-0.801-0.077l-0.717,0.523c-0.075-0.155-0.191-0.367-0.358-0.595
				c-0.398-0.544-0.894-0.945-1.479-1.194c-0.15-0.064-0.321-0.022-0.424,0.108c-0.017,0.023-0.031,0.048-0.042,0.072
				c-0.016-0.014-0.034-0.026-0.05-0.042c-0.041-0.034-0.091-0.058-0.144-0.072c-1.497-0.375-3.037-0.093-4.221,0.771
				c-2.324,1.697-2.707,5.144-0.853,7.684c1.856,2.54,5.255,3.225,7.579,1.527C387.277,45.468,388.018,43.909,387.976,42.162z
				 M385.234,37.839c0.176,0.24,0.289,0.457,0.352,0.598c0.094,0.201,0.357,0.272,0.54,0.141l0.783-0.572
				c0.079-0.056,0.172-0.054,0.199-0.016l0.282,0.387c0.028,0.038,0.002,0.127-0.076,0.184l-0.739,0.541
				c-0.08,0.059-0.13,0.144-0.145,0.241c-0.02,0.145,0.052,0.291,0.18,0.364c0.228,0.128,0.426,0.305,0.586,0.524
				c0.308,0.421,0.439,0.936,0.491,1.359c-0.006-0.009-0.012-0.018-0.021-0.027c-0.004-0.008-0.01-0.015-0.015-0.022
				c-0.016-0.02-0.031-0.038-0.045-0.057c-0.264-0.357-0.509-0.631-0.73-0.817c-0.112-0.095-0.268-0.111-0.397-0.044
				c-0.131,0.069-0.207,0.21-0.194,0.361c0.063,0.621-0.113,1.03-0.317,1.289c0.045-0.813-0.321-1.453-0.499-1.71
				c-0.057-0.079-0.142-0.129-0.238-0.144c-0.097-0.016-0.193,0.01-0.272,0.069c-0.884,0.668-1.709,0.796-2.112,0.814
				c0.238-0.438,0.981-1.061,1.633-1.521c0.148-0.106,0.195-0.309,0.105-0.473c-0.027-0.048-0.058-0.097-0.091-0.142
				c-0.007-0.009-0.014-0.017-0.021-0.024c-0.017-0.023-0.037-0.043-0.057-0.065c-0.031-0.036-0.061-0.071-0.097-0.104
				c-0.018-0.02-0.039-0.037-0.058-0.054c-0.039-0.036-0.079-0.068-0.122-0.101c-0.018-0.014-0.037-0.03-0.056-0.042
				c-0.046-0.033-0.094-0.065-0.144-0.096c-0.018-0.011-0.034-0.022-0.054-0.035c-0.053-0.031-0.105-0.06-0.16-0.087
				c-0.017-0.008-0.035-0.019-0.054-0.026c-0.055-0.027-0.111-0.054-0.166-0.076c-0.019-0.008-0.035-0.018-0.056-0.027
				c-0.056-0.023-0.11-0.044-0.166-0.065c-0.02-0.007-0.04-0.016-0.06-0.022c-0.059-0.021-0.117-0.041-0.174-0.061
				c-0.015-0.004-0.028-0.009-0.043-0.014c0.252-0.032,0.48-0.033,0.684-0.016c0.254,0.022,0.465,0.071,0.625,0.122
				c0.01,0.004,0.024,0.007,0.031,0.01c0.014,0.004,0.021,0.008,0.033,0.013c0.027,0.01,0.056,0.018,0.079,0.027
				c0.125,0.048,0.267,0.022,0.368-0.069c0.103-0.09,0.143-0.229,0.108-0.358c-0.002-0.012-0.008-0.023-0.011-0.035
				c-0.016-0.05-0.034-0.1-0.055-0.154c-0.013-0.028-0.023-0.058-0.038-0.085c-0.002-0.007-0.006-0.012-0.008-0.019
				c-0.002-0.004-0.004-0.007-0.008-0.01c-0.111-0.227-0.279-0.464-0.504-0.713C384.664,37.195,384.974,37.481,385.234,37.839z
				 M378.717,44.66c-1.714-2.348-1.373-5.524,0.76-7.083c1.079-0.787,2.482-1.043,3.852-0.703c0.377,0.305,0.753,0.652,1.111,1.021
				c0.014,0.026,0.024,0.052,0.036,0.079c-0.144-0.046-0.328-0.094-0.544-0.123c-0.006-0.001-0.011,0-0.015-0.002
				c-0.068-0.009-0.136-0.019-0.209-0.023c-0.027-0.002-0.056-0.002-0.083-0.004c-0.054-0.004-0.106-0.008-0.163-0.008
				c-0.054,0-0.109,0.004-0.167,0.006c-0.034,0.001-0.063,0.001-0.098,0.002c-0.089,0.006-0.179,0.014-0.273,0.027
				c-0.002,0-0.004,0.002-0.01,0.003c-0.096,0.015-0.195,0.03-0.299,0.054c-0.12,0.025-0.213,0.106-0.257,0.218
				c-0.073,0.193,0.046,0.43,0.249,0.481c0.782,0.2,1.344,0.498,1.571,0.86c-0.493,0.353-1.538,1.154-1.778,1.776
				c-0.044,0.115-0.026,0.244,0.045,0.344c0.067,0.092,0.177,0.147,0.292,0.147c0.333-0.001,1.13-0.067,2.032-0.604
				c0.129-0.075,0.26-0.163,0.393-0.26c0.167,0.268,0.461,0.847,0.359,1.55c-0.027,0.199,0.128,0.39,0.324,0.409
				c0.104,0.011,0.204-0.026,0.28-0.098c0.22-0.208,0.456-0.533,0.558-1.019c0.003-0.013,0.007-0.025,0.01-0.04
				c0.005-0.019,0.004-0.043,0.007-0.063c0.023-0.154,0.037-0.318,0.029-0.502c0.144,0.138,0.337,0.354,0.576,0.682
				c0.011,0.016,0.022,0.032,0.032,0.046c0.016,0.021,0.031,0.041,0.047,0.064l0.041,0.065c0.031,0.058,0.061,0.113,0.094,0.17
				l0.026,0.048c0.032,1.597-0.642,3.018-1.852,3.901C383.56,47.647,380.431,47.008,378.717,44.66z"/>
			<path style="fill:#FFFFFF;" d="M379.775,38.444c0.086-0.085,0.088-0.221,0.002-0.304c-0.083-0.087-0.219-0.089-0.305-0.005
				c-0.231,0.228-0.411,0.489-0.536,0.782c-0.031,0.073-0.02,0.152,0.022,0.212c0.023,0.029,0.052,0.056,0.091,0.07
				c0.109,0.049,0.236-0.004,0.282-0.112C379.434,38.851,379.588,38.628,379.775,38.444z"/>
			<path style="fill:#FFFFFF;" d="M380.184,37.895c0.002,0.004,0.007,0.009,0.009,0.012c0.065,0.091,0.192,0.117,0.288,0.056
				c0.209-0.13,0.431-0.23,0.661-0.298c0.115-0.032,0.18-0.152,0.146-0.267c-0.032-0.115-0.152-0.18-0.268-0.146
				c-0.268,0.078-0.528,0.194-0.77,0.346C380.152,37.661,380.12,37.793,380.184,37.895z"/>
		</g>
	</g>
	<g>
		<title>pepper</title>
		<g>
			<g>
				<path style="fill:#FFFFFF;" d="M458.666,239.317c-0.275-0.455-0.668-0.827-1.138-1.077c-0.296-0.155-0.612-0.271-0.939-0.34
					c-0.285-0.059-0.562-0.158-0.817-0.296c-0.206-0.117-0.352-0.316-0.399-0.548c-0.052-0.314,0.03-0.639,0.225-0.893
					c0.44-0.622,1.225-0.754,1.892-0.613c0.146,0.035,0.297-0.048,0.346-0.191c0.052-0.156-0.032-0.323-0.188-0.375
					c-0.011-0.004-0.022-0.006-0.033-0.009c-0.865-0.183-1.898,0.003-2.498,0.849c-0.257,0.35-0.379,0.782-0.34,1.216
					c-0.611,0.06-2.152,0.411-2.947,2.408c-0.059,0.151,0.016,0.323,0.167,0.383c0.15,0.059,0.322-0.016,0.381-0.168
					c0.784-1.968,2.332-2.049,2.592-2.047c0.123,0.2,0.293,0.369,0.496,0.49c0.306,0.17,0.634,0.293,0.978,0.364
					c0.275,0.057,0.541,0.15,0.791,0.28c0.379,0.197,0.696,0.494,0.922,0.857c0.434,0.765,0.381,1.777-0.131,2.582
					c-0.15,0.232-0.303,0.463-0.451,0.695c-0.486,0.745-0.99,1.517-1.418,2.326c-0.127,0.239-0.238,0.489-0.348,0.729
					c-0.176,0.429-0.396,0.838-0.654,1.223c-0.184,0.25-0.837,1.037-1.654,0.786c-0.094-0.054-0.391-0.222-0.791-0.414
					c1.186-0.789,1.984-2.043,2.196-3.452c0.021-0.161-0.093-0.309-0.255-0.33c-0.16-0.021-0.309,0.092-0.328,0.254
					c-0.211,1.375-1.053,2.573-2.276,3.236c-0.161-0.065-0.327-0.127-0.497-0.185c-0.191-0.063-0.383-0.119-0.57-0.17
					c-0.57-0.581-0.236-2.397,0.159-3.601c0.052-0.154-0.033-0.321-0.187-0.371c-0.154-0.052-0.321,0.032-0.372,0.187
					c-0.235,0.721-0.734,2.493-0.364,3.613c-0.377-0.073-0.662-0.111-0.76-0.123c-0.804-0.292-0.851-1.315-0.846-1.624
					c0.023-0.463,0.097-0.921,0.215-1.37c0.058-0.258,0.118-0.524,0.162-0.792c0.146-0.904,0.209-1.823,0.27-2.711
					c0.02-0.276,0.039-0.551,0.061-0.826c0.074-0.951,0.643-1.791,1.451-2.141c0.744-0.32,1.495-0.114,2.283,0.159
					c0.152,0.053,0.32-0.029,0.373-0.183s-0.028-0.32-0.181-0.375c-0.841-0.292-1.772-0.546-2.71-0.142
					c-1.005,0.434-1.713,1.468-1.805,2.635c-0.021,0.277-0.041,0.554-0.06,0.831c-0.061,0.875-0.124,1.78-0.267,2.658
					c-0.039,0.249-0.095,0.495-0.153,0.757c-0.128,0.486-0.204,0.986-0.229,1.49c-0.018,1.104,0.459,1.927,1.276,2.2l0.061,0.014
					c0.681,0.087,1.352,0.235,2.005,0.443c0.646,0.228,1.271,0.515,1.867,0.854l0.057,0.025c0.816,0.274,1.692-0.095,2.344-0.987
					c0.283-0.417,0.524-0.861,0.716-1.328c0.11-0.243,0.216-0.473,0.333-0.696c0.415-0.786,0.91-1.546,1.389-2.28
					c0.152-0.232,0.305-0.466,0.454-0.699C459.148,241.521,459.207,240.27,458.666,239.317z"/>
				<path style="fill:#FFFFFF;" d="M455.027,241.935l0.004,0.002c0.156,0.044,0.318-0.045,0.363-0.2
					c0.002-0.003,0.002-0.005,0.004-0.009c0.125-0.479,0.324-1.355,0.281-1.964c-0.012-0.161-0.152-0.283-0.313-0.271
					c-0.16,0.01-0.282,0.15-0.271,0.312c0.029,0.415-0.113,1.177-0.269,1.774C454.787,241.732,454.876,241.891,455.027,241.935z"/>
				<path style="fill:#FFFFFF;" d="M457.438,241.674c0.159,0.036,0.317-0.063,0.354-0.224c0.003-0.007,0.005-0.017,0.006-0.024
					c0.085-0.484,0.026-0.982-0.169-1.434c-0.072-0.147-0.252-0.209-0.4-0.137c-0.139,0.073-0.195,0.242-0.13,0.386
					c0.146,0.35,0.187,0.736,0.114,1.107C457.193,241.5,457.29,241.641,457.438,241.674z"/>
			</g>
		</g>
	</g>
	<g>
		<path style="fill:#FFFFFF;" d="M92.653,68.363l0.009,0.01c0.05,0.05,0.071,0.104,0.064,0.166
			c-0.209,1.173-0.632,2.235-1.268,3.186c1.006,0.174,1.972,0.54,2.898,1.103c0.062,0.036,0.092,0.089,0.092,0.157
			c0.012,0.068-0.014,0.123-0.083,0.166c-1.049,0.821-2.175,1.383-3.379,1.686l-0.24,0.056c0.03,0.247,0.04,0.466,0.027,0.658
			c0,1.407-0.466,2.604-1.398,3.592c0,0.02-0.003,0.022-0.009,0.01l-2.871,2.852c-0.957,0.796-2.087,1.201-3.389,1.214
			c-0.414-0.013-0.796-0.05-1.149-0.112l-0.009-0.008c-0.976-0.191-1.846-0.67-2.611-1.437c-0.753-0.753-1.228-1.62-1.426-2.603
			l-0.019-0.008c-0.062-0.358-0.099-0.745-0.111-1.158c0.006-1.303,0.417-2.427,1.231-3.371c0.142-0.179,0.25-0.308,0.324-0.389
			l2.528-2.5c0.988-0.933,2.186-1.404,3.592-1.417c0.266,0.013,0.494,0.028,0.686,0.047l0.092-0.444
			c0.31-1.143,0.849-2.198,1.621-3.167c0.049-0.068,0.107-0.093,0.176-0.074c0.074,0,0.126,0.031,0.157,0.093
			c0.575,0.933,0.942,1.904,1.102,2.916c0.963-0.642,2.029-1.069,3.195-1.286C92.547,68.293,92.603,68.313,92.653,68.363z
			 M86.652,69.919l-0.102,0.417c0.895,0.168,1.707,0.567,2.435,1.204c0.031-0.544,0.015-1.062-0.047-1.556
			c-0.135-1-0.451-1.947-0.944-2.844C87.359,67.999,86.912,68.925,86.652,69.919z M86.17,70.697
			c-0.271-0.037-0.508-0.052-0.713-0.047c-1.259-0.005-2.342,0.401-3.25,1.223v2.555h3.954L86.17,70.697z M86.588,74.42h3.667
			c-0.192-0.872-0.631-1.651-1.316-2.344c-0.691-0.691-1.475-1.132-2.351-1.324V74.42z M91.069,72.076
			c-0.482-0.062-1.016-0.08-1.603-0.055c0.637,0.734,1.041,1.55,1.213,2.444l0.195-0.038c1.055-0.252,2.056-0.725,3-1.416
			c-0.889-0.481-1.821-0.79-2.797-0.926L91.069,72.076z M86.578,74.846V78.8h2.556c0.814-0.901,1.222-1.984,1.222-3.25
			c0.006-0.235-0.003-0.47-0.027-0.704H86.578z M89.393,71.613c0.586-0.024,1.124-0.009,1.611,0.047
			c0.598-0.865,1.015-1.824,1.25-2.88c-1.05,0.222-2.016,0.645-2.899,1.269C89.424,70.536,89.437,71.059,89.393,71.613z
			 M86.578,79.216l0.01,2.148l2.138-2.14L86.578,79.216z M86.162,79.216h-3.954v3.519c0.321,0.038,0.621,0.057,0.898,0.057
			c1.167,0.012,2.185-0.337,3.056-1.047V79.216z M86.17,74.836l-3.963,0.01V78.8h3.954L86.17,74.836z M79.624,74.438l2.167-0.011
			v-2.156L79.624,74.438z M79.263,74.854c-0.704,0.858-1.056,1.873-1.056,3.047c-0.006,0.271,0.016,0.571,0.065,0.898h3.519v-3.954
			L79.263,74.854z M81.791,82.651v-3.436h-3.436c0.228,0.815,0.654,1.534,1.278,2.158C80.257,81.99,80.975,82.417,81.791,82.651z"/>
	</g>
	<g>
		<path style="fill:#FFFFFF;" d="M310.171,22.001l0.013,0.003c0.068,0.017,0.115,0.053,0.143,0.107
			c0.437,1.109,0.633,2.234,0.591,3.378c0.948-0.38,1.962-0.574,3.046-0.581c0.071-0.002,0.125,0.027,0.161,0.086
			c0.046,0.051,0.052,0.112,0.017,0.186c-0.464,1.249-1.127,2.317-1.994,3.207l-0.176,0.174c0.154,0.193,0.277,0.376,0.368,0.545
			c0.737,1.199,0.97,2.463,0.694,3.792c0.01,0.016,0.008,0.021-0.004,0.013l-0.948,3.935c-0.397,1.18-1.147,2.116-2.251,2.811
			c-0.357,0.206-0.703,0.375-1.035,0.508l-0.013-0.004c-0.931,0.349-1.923,0.397-2.977,0.147c-1.036-0.246-1.896-0.736-2.579-1.468
			l-0.02,0.002c-0.241-0.272-0.475-0.583-0.702-0.928c-0.678-1.112-0.917-2.284-0.72-3.516c0.027-0.228,0.052-0.394,0.072-0.501
			l0.842-3.455c0.353-1.312,1.125-2.342,2.316-3.09c0.232-0.128,0.436-0.235,0.607-0.32l-0.154-0.427
			c-0.336-1.135-0.43-2.316-0.281-3.547c0.007-0.083,0.044-0.135,0.111-0.154c0.063-0.039,0.124-0.04,0.182-0.004
			c0.979,0.492,1.801,1.128,2.469,1.905c0.483-1.052,1.166-1.975,2.045-2.771C310.045,21.996,310.104,21.985,310.171,22.001z
			 M305.878,26.473l0.132,0.408c0.85-0.328,1.751-0.412,2.705-0.252c-0.26-0.479-0.544-0.912-0.856-1.301
			c-0.64-0.78-1.404-1.422-2.294-1.926C305.473,24.467,305.578,25.49,305.878,26.473z M305.876,27.387
			c-0.251,0.111-0.461,0.223-0.632,0.335c-1.076,0.656-1.784,1.57-2.127,2.745l1.34,2.176l3.367-2.073L305.876,27.387z
			 M308.183,30.339l3.122-1.924c-0.619-0.641-1.402-1.075-2.349-1.305c-0.95-0.227-1.851-0.19-2.696,0.105L308.183,30.339z
			 M310.77,25.993c-0.441,0.199-0.906,0.465-1.393,0.793c0.927,0.292,1.699,0.773,2.314,1.445l0.146-0.134
			c0.766-0.769,1.371-1.695,1.813-2.779c-1.01,0.056-1.965,0.282-2.867,0.678L310.77,25.993z M308.398,30.706l2.073,3.367
			l2.177-1.341c0.221-1.194-0.001-2.331-0.664-3.408c-0.118-0.204-0.249-0.398-0.393-0.585L308.398,30.706z M309.1,26.479
			c0.486-0.329,0.952-0.598,1.396-0.806c0.057-1.05-0.092-2.086-0.445-3.108c-0.777,0.74-1.378,1.606-1.803,2.601
			C308.562,25.544,308.846,25.982,309.1,26.479z M310.689,34.428l1.135,1.824l0.7-2.943L310.689,34.428z M310.336,34.646
			l-3.367,2.073l1.846,2.996c0.292-0.136,0.557-0.277,0.793-0.423c1-0.602,1.686-1.433,2.055-2.493L310.336,34.646z M308.047,30.912
			l-3.371,2.086l2.074,3.366l3.367-2.073L308.047,30.912z M302.264,34.006l1.839-1.145l-1.131-1.836L302.264,34.006z M302.174,34.55
			c-0.149,1.101,0.084,2.149,0.699,3.147c0.138,0.235,0.313,0.479,0.526,0.731l2.996-1.847l-2.073-3.366L302.174,34.55z
			 M308.416,39.863l-1.802-2.926l-2.926,1.802c0.622,0.574,1.361,0.964,2.22,1.167C306.762,40.105,307.598,40.091,308.416,39.863z"
			/>
	</g>
	<g>
		<path style="fill:#FFFFFF;" d="M452.829,132.16l-0.012,0.008c-0.059,0.037-0.117,0.045-0.176,0.026
			c-1.097-0.466-2.037-1.115-2.822-1.947c-0.394,0.943-0.967,1.802-1.721,2.58c-0.049,0.052-0.107,0.07-0.174,0.056
			c-0.068-0.004-0.117-0.043-0.145-0.119c-0.566-1.207-0.863-2.43-0.889-3.671l-0.001-0.247c-0.247-0.024-0.463-0.064-0.647-0.119
			c-1.372-0.314-2.436-1.034-3.189-2.164c-0.02-0.004-0.021-0.008-0.007-0.011l-2.142-3.434c-0.563-1.11-0.706-2.302-0.427-3.575
			c0.104-0.4,0.226-0.765,0.364-1.095l0.01-0.007c0.405-0.908,1.064-1.65,1.982-2.226c0.902-0.565,1.854-0.836,2.854-0.811
			l0.013-0.016c0.363,0.02,0.748,0.069,1.153,0.149c1.269,0.297,2.272,0.946,3.012,1.952c0.143,0.178,0.245,0.312,0.308,0.402
			l1.873,3.021c0.688,1.171,0.882,2.443,0.58,3.818c-0.07,0.256-0.137,0.476-0.198,0.657l0.413,0.189
			c1.045,0.556,1.953,1.316,2.727,2.285c0.055,0.063,0.066,0.127,0.033,0.188c-0.018,0.072-0.059,0.117-0.126,0.133
			c-1.036,0.352-2.066,0.493-3.089,0.425c0.411,1.082,0.592,2.215,0.542,3.4C452.923,132.074,452.889,132.124,452.829,132.16z
			 M452.65,125.964l-0.384-0.191c-0.362,0.835-0.934,1.537-1.716,2.105c0.523,0.151,1.03,0.251,1.526,0.301
			c1.006,0.092,1.999-0.005,2.982-0.286C454.364,127.081,453.562,126.438,452.65,125.964z M452,125.321
			c0.096-0.256,0.163-0.484,0.204-0.685c0.286-1.228,0.13-2.373-0.468-3.44l-2.491-0.57l-0.882,3.855L452,125.321z M448.278,124.898
			l-0.817,3.574c0.891,0.008,1.75-0.246,2.577-0.76c0.827-0.521,1.432-1.186,1.814-1.997L448.278,124.898z M449.563,129.79
			c0.169-0.456,0.305-0.973,0.411-1.55c-0.857,0.456-1.742,0.668-2.653,0.638l-0.007,0.197c0.012,1.086,0.248,2.167,0.712,3.241
			c0.668-0.76,1.177-1.599,1.526-2.52L449.563,129.79z M447.864,124.794l-3.854-0.881l-0.57,2.492
			c0.697,0.994,1.662,1.633,2.896,1.915c0.227,0.059,0.457,0.102,0.691,0.13L447.864,124.794z M450.388,128.259
			c-0.106,0.576-0.241,1.097-0.404,1.56c0.71,0.777,1.553,1.396,2.529,1.861c0.018-1.073-0.18-2.109-0.592-3.107
			C451.431,128.529,450.919,128.424,450.388,128.259z M443.604,123.819l-2.098-0.469l1.609,2.562L443.604,123.819z M443.696,123.414
			l0.882-3.855l-3.431-0.783c-0.107,0.304-0.192,0.593-0.254,0.863c-0.271,1.135-0.16,2.205,0.338,3.212L443.696,123.414z
			 M447.964,124.399l0.875-3.866l-3.855-0.881l-0.88,3.854L447.964,124.399z M449.812,118.105l-0.474,2.114l2.104,0.481
			L449.812,118.105z M449.485,117.661c-0.68-0.878-1.591-1.446-2.734-1.709c-0.264-0.065-0.56-0.111-0.891-0.136l-0.783,3.43
			l3.854,0.882L449.485,117.661z M441.321,118.388l3.35,0.766l0.766-3.349c-0.846,0.041-1.642,0.295-2.389,0.765
			C442.308,117.039,441.731,117.646,441.321,118.388z"/>
	</g>
	<g>
		<path style="fill:#FFFFFF;" d="M97.969,197.077l-0.011,0.008c-0.059,0.037-0.118,0.045-0.176,0.026
			c-1.097-0.466-2.037-1.115-2.822-1.947c-0.394,0.943-0.966,1.802-1.721,2.58c-0.049,0.052-0.107,0.07-0.173,0.056
			c-0.069-0.004-0.117-0.043-0.145-0.119c-0.566-1.207-0.863-2.43-0.89-3.671l0-0.247c-0.247-0.024-0.463-0.064-0.647-0.119
			c-1.373-0.314-2.436-1.034-3.19-2.164c-0.019-0.004-0.021-0.008-0.006-0.011l-2.141-3.434c-0.564-1.11-0.707-2.302-0.427-3.575
			c0.104-0.4,0.225-0.765,0.364-1.095l0.011-0.007c0.405-0.908,1.064-1.65,1.982-2.226c0.902-0.565,1.853-0.836,2.854-0.811
			l0.013-0.016c0.363,0.02,0.748,0.069,1.153,0.149c1.269,0.297,2.272,0.946,3.012,1.952c0.143,0.178,0.245,0.312,0.307,0.402
			l1.874,3.021c0.688,1.171,0.882,2.443,0.581,3.818c-0.071,0.256-0.137,0.476-0.199,0.657l0.413,0.189
			c1.045,0.556,1.954,1.316,2.728,2.285c0.054,0.063,0.065,0.127,0.032,0.188c-0.017,0.072-0.059,0.117-0.125,0.133
			c-1.037,0.352-2.066,0.493-3.089,0.425c0.412,1.082,0.592,2.215,0.542,3.4C98.063,196.991,98.029,197.041,97.969,197.077z
			 M97.791,190.881l-0.384-0.191c-0.362,0.835-0.934,1.537-1.716,2.105c0.523,0.151,1.031,0.251,1.527,0.301
			c1.005,0.092,1.999-0.005,2.981-0.286C99.504,191.998,98.702,191.355,97.791,190.881z M97.14,190.238
			c0.096-0.256,0.164-0.484,0.204-0.685c0.286-1.228,0.13-2.373-0.468-3.44l-2.491-0.57l-0.882,3.855L97.14,190.238z
			 M93.418,189.815l-0.817,3.574c0.891,0.008,1.75-0.246,2.577-0.76c0.827-0.521,1.432-1.186,1.814-1.997L93.418,189.815z
			 M94.703,194.707c0.168-0.456,0.305-0.973,0.411-1.55c-0.857,0.456-1.742,0.668-2.653,0.638l-0.007,0.197
			c0.011,1.086,0.249,2.167,0.712,3.241c0.668-0.76,1.176-1.599,1.526-2.52L94.703,194.707z M93.005,189.711l-3.854-0.881
			l-0.57,2.492c0.697,0.994,1.662,1.633,2.896,1.915c0.228,0.059,0.458,0.102,0.692,0.13L93.005,189.711z M95.527,193.176
			c-0.106,0.576-0.241,1.097-0.404,1.56c0.71,0.777,1.552,1.396,2.529,1.861c0.018-1.073-0.18-2.109-0.591-3.107
			C96.571,193.446,96.06,193.341,95.527,193.176z M88.744,188.736l-2.097-0.469l1.609,2.562L88.744,188.736z M88.837,188.331
			l0.881-3.855l-3.43-0.783c-0.108,0.304-0.193,0.593-0.254,0.863c-0.272,1.135-0.16,2.205,0.338,3.212L88.837,188.331z
			 M93.104,189.316l0.874-3.866l-3.854-0.881l-0.88,3.854L93.104,189.316z M94.952,183.022l-0.474,2.114l2.104,0.481L94.952,183.022
			z M94.625,182.578c-0.679-0.878-1.591-1.446-2.734-1.709c-0.264-0.065-0.56-0.111-0.891-0.136l-0.784,3.43l3.854,0.882
			L94.625,182.578z M86.461,183.305l3.35,0.766l0.766-3.349c-0.846,0.041-1.642,0.295-2.389,0.765
			C87.447,181.956,86.872,182.563,86.461,183.305z"/>
	</g>
</g>
<g id="logo">
	<g>
		<g>
			<title>Noun Project</title>
			<path style="fill:#FFFFFF;" d="M175.939,115.694L175.939,115.694c0.345-1.182-0.607-2.892-2.38-3.406
				c-1.772-0.514-3.492,0.425-3.835,1.606l-0.014,0.049c-0.099,0.339,0.09,0.694,0.424,0.805l1.149,0.333l-0.648,2.238
				c-0.089,0.306,0.088,0.628,0.396,0.717l1.585,0.461c0.31,0.089,0.63-0.089,0.719-0.396l0.648-2.231l1.15,0.334
				c0.348,0.086,0.701-0.122,0.795-0.469L175.939,115.694z M173.017,118.009c-0.039,0.128-0.174,0.204-0.304,0.166l-1.586-0.459
				c-0.129-0.04-0.203-0.175-0.167-0.303l0.646-2.233l2.058,0.598L173.017,118.009z M175.229,115.881l-4.994-1.448
				c-0.163-0.062-0.248-0.24-0.192-0.405l0.012-0.038c0.293-1.012,1.853-1.831,3.419-1.377c1.568,0.454,2.438,1.981,2.145,2.99
				l-0.012,0.038C175.564,115.809,175.398,115.913,175.229,115.881L175.229,115.881z"/>
		</g>
		<g>
			<g>
				<path style="fill:#FFFFFF;" d="M207.916,69.822c-0.004-0.001-0.007-0.005-0.009-0.008c0.042-0.101,0.029-0.216-0.042-0.305
					c-0.271-0.339-0.721-0.783-1.311-0.982c-0.237-0.079-0.479-0.111-0.721-0.099l0.217-0.646c0.089-0.265-0.031-0.543-0.267-0.623
					l-0.382-0.127c-0.236-0.079-0.5,0.07-0.589,0.336l-0.237,0.709c-0.128-0.07-0.311-0.158-0.537-0.233
					c-0.539-0.182-1.074-0.216-1.598-0.101c-0.135,0.028-0.232,0.14-0.238,0.279c-0.001,0.025,0.001,0.048,0.005,0.071
					c-0.016-0.002-0.035-0.002-0.054-0.005c-0.045-0.004-0.09,0.003-0.134,0.02c-1.211,0.471-2.134,1.415-2.526,2.589
					c-0.771,2.298,0.646,4.854,3.158,5.696c2.514,0.842,5.183-0.343,5.955-2.644C209.046,72.437,208.796,71.004,207.916,69.822z
					 M203.924,68.187c0.238,0.079,0.422,0.175,0.534,0.24c0.162,0.093,0.38,0.014,0.438-0.168l0.261-0.774
					c0.027-0.076,0.092-0.12,0.13-0.107l0.382,0.129c0.038,0.011,0.063,0.085,0.037,0.162L205.46,68.4
					c-0.026,0.079-0.02,0.163,0.02,0.237c0.058,0.108,0.177,0.175,0.301,0.161c0.219-0.021,0.44,0.004,0.657,0.076
					c0.418,0.14,0.759,0.43,1.001,0.694c-0.008-0.002-0.017-0.005-0.026-0.009c-0.008-0.003-0.015-0.005-0.021-0.006
					c-0.021-0.009-0.04-0.012-0.059-0.019c-0.355-0.116-0.657-0.186-0.9-0.207c-0.123-0.01-0.239,0.054-0.295,0.164
					c-0.057,0.112-0.04,0.245,0.042,0.343c0.347,0.396,0.425,0.766,0.41,1.042c-0.365-0.581-0.929-0.843-1.176-0.934
					c-0.078-0.026-0.161-0.02-0.234,0.019c-0.073,0.036-0.128,0.1-0.152,0.179c-0.283,0.891-0.788,1.381-1.056,1.59
					c-0.05-0.418,0.157-1.208,0.381-1.84c0.051-0.146-0.016-0.308-0.157-0.377c-0.043-0.02-0.088-0.038-0.131-0.054
					c-0.01-0.002-0.019-0.004-0.026-0.007c-0.023-0.009-0.046-0.012-0.071-0.019c-0.039-0.008-0.077-0.018-0.116-0.022
					c-0.021-0.004-0.045-0.005-0.066-0.009c-0.045-0.005-0.088-0.01-0.132-0.01c-0.021-0.002-0.041-0.003-0.061-0.002
					c-0.047,0-0.096,0-0.144,0.004c-0.019,0.002-0.036,0.002-0.056,0.003c-0.051,0.004-0.101,0.01-0.151,0.019
					c-0.017,0.002-0.033,0.003-0.05,0.007c-0.052,0.008-0.104,0.018-0.151,0.029c-0.017,0.003-0.033,0.007-0.052,0.008
					c-0.049,0.012-0.098,0.023-0.146,0.036c-0.016,0.004-0.035,0.01-0.053,0.014c-0.05,0.013-0.099,0.029-0.147,0.043
					c-0.012,0.005-0.024,0.008-0.037,0.012c0.158-0.146,0.314-0.257,0.463-0.343c0.185-0.108,0.354-0.18,0.489-0.223
					c0.009-0.001,0.02-0.006,0.025-0.008c0.012-0.003,0.02-0.005,0.029-0.007c0.024-0.008,0.048-0.015,0.068-0.02
					c0.109-0.029,0.193-0.115,0.22-0.227c0.025-0.112-0.014-0.228-0.101-0.3c-0.008-0.007-0.017-0.012-0.024-0.02
					c-0.035-0.026-0.072-0.053-0.113-0.079c-0.021-0.014-0.044-0.028-0.066-0.04c-0.006-0.003-0.011-0.005-0.016-0.01
					c-0.003,0-0.006-0.002-0.01-0.003c-0.187-0.101-0.418-0.182-0.694-0.244C203.22,68.022,203.571,68.068,203.924,68.187z
					 M202.768,76.052c-2.321-0.778-3.636-3.129-2.929-5.24c0.357-1.067,1.198-1.926,2.305-2.359
					c0.408,0.026,0.835,0.082,1.262,0.161c0.021,0.012,0.043,0.022,0.063,0.036c-0.122,0.038-0.271,0.096-0.435,0.179
					c-0.004,0.004-0.007,0.006-0.011,0.007c-0.051,0.026-0.103,0.055-0.155,0.086c-0.019,0.012-0.039,0.024-0.059,0.038
					c-0.038,0.022-0.077,0.047-0.115,0.073c-0.037,0.026-0.074,0.057-0.112,0.086c-0.023,0.017-0.044,0.031-0.066,0.048
					c-0.058,0.049-0.116,0.097-0.175,0.153c-0.002,0.001-0.002,0.003-0.005,0.006c-0.06,0.057-0.119,0.117-0.181,0.183
					c-0.068,0.076-0.094,0.178-0.068,0.275c0.043,0.168,0.24,0.273,0.404,0.209c0.636-0.243,1.167-0.313,1.5-0.175
					c-0.168,0.484-0.495,1.546-0.356,2.089c0.025,0.101,0.1,0.181,0.198,0.214c0.091,0.031,0.193,0.015,0.272-0.041
					c0.229-0.163,0.743-0.596,1.103-1.404c0.052-0.115,0.1-0.238,0.143-0.37c0.246,0.103,0.729,0.357,1.004,0.891
					c0.078,0.149,0.277,0.205,0.422,0.123c0.075-0.043,0.127-0.116,0.144-0.204c0.051-0.248,0.055-0.589-0.111-0.971
					c-0.005-0.012-0.009-0.021-0.013-0.033c-0.007-0.015-0.019-0.031-0.026-0.046c-0.059-0.118-0.129-0.237-0.225-0.358
					c0.166,0.022,0.404,0.079,0.729,0.188c0.015,0.005,0.03,0.012,0.044,0.015c0.021,0.007,0.041,0.014,0.064,0.021l0.06,0.026
					c0.05,0.024,0.097,0.048,0.146,0.07l0.042,0.021c0.8,1.082,1.03,2.386,0.628,3.584C207.553,75.746,205.089,76.83,202.768,76.052
					z"/>
				<path style="fill:#FFFFFF;" d="M200.467,71.263c0.017-0.101-0.047-0.194-0.146-0.211c-0.1-0.018-0.193,0.046-0.212,0.146
					c-0.049,0.27-0.044,0.538,0.013,0.8c0.014,0.065,0.061,0.115,0.118,0.133c0.029,0.01,0.063,0.015,0.097,0.007
					c0.099-0.021,0.161-0.119,0.14-0.216C200.43,71.707,200.428,71.481,200.467,71.263z"/>
				<path style="fill:#FFFFFF;" d="M200.479,70.687c0.003,0,0.008,0.002,0.012,0.003c0.09,0.03,0.189-0.013,0.226-0.102
					c0.08-0.192,0.184-0.369,0.31-0.526c0.063-0.079,0.049-0.192-0.03-0.255c-0.078-0.064-0.191-0.05-0.255,0.027
					c-0.146,0.187-0.269,0.392-0.36,0.614C200.344,70.54,200.388,70.647,200.479,70.687z"/>
			</g>
		</g>
		<g>
			<path style="fill:#FFFFFF;" d="M269.021,161.43c-0.059-0.079-0.042-0.192,0.038-0.252l0.817-0.606
				c0.08-0.062,0.192-0.043,0.252,0.036c0.06,0.08,0.042,0.192-0.037,0.252l-0.817,0.608
				C269.193,161.527,269.081,161.511,269.021,161.43z"/>
			<path style="fill:#FFFFFF;" d="M268.503,160.305c-0.056-0.073-0.047-0.18,0.025-0.24c0.074-0.068,0.188-0.06,0.254,0.015
				c0.358,0.408,1.104,0.548,1.111,0.55c0.087,0.015,0.15,0.092,0.147,0.183c-0.001,0.006-0.017,0.724,0.291,1.137
				c0.06,0.081,0.043,0.192-0.036,0.252c-0.08,0.06-0.193,0.043-0.252-0.036c-0.289-0.391-0.349-0.949-0.36-1.215
				c-0.268-0.067-0.836-0.25-1.173-0.632C268.509,160.314,268.506,160.31,268.503,160.305z"/>
			<path style="fill:#FFFFFF;" d="M270.604,162.104l-1.228-1.648c-0.06-0.079-0.043-0.193,0.037-0.252
				c0.079-0.06,0.192-0.043,0.252,0.036l1.227,1.65c0.061,0.079,0.043,0.192-0.037,0.252
				C270.777,162.202,270.663,162.186,270.604,162.104z"/>
			<path style="fill:#FFFFFF;" d="M269.541,160.676l-0.706-0.947c-0.059-0.081-0.043-0.192,0.038-0.252
				c0.079-0.06,0.192-0.043,0.252,0.038l0.704,0.946c0.06,0.08,0.043,0.192-0.036,0.252
				C269.712,160.771,269.601,160.757,269.541,160.676z"/>
			<path style="fill:#FFFFFF;" d="M269.936,160.757c-1.328-1.786-1.06-4.241,0.6-5.476c1.658-1.234,4.088-0.786,5.416,0.999
				c1.327,1.784,1.059,4.239-0.6,5.474S271.264,162.541,269.936,160.757z M275.662,156.494c-1.209-1.624-3.414-2.039-4.912-0.923
				c-1.5,1.115-1.735,3.346-0.526,4.97c1.21,1.626,3.413,2.039,4.913,0.925C276.636,160.349,276.871,158.12,275.662,156.494z"/>
			<path style="fill:#FFFFFF;" d="M269.936,160.757c-1.051-1.414-0.558-3.566,1.101-4.801s3.863-1.089,4.915,0.324
				c1.051,1.412,0.557,3.566-1.102,4.801S270.986,162.169,269.936,160.757z M275.662,156.494c-0.934-1.254-2.912-1.366-4.411-0.25
				s-1.96,3.043-1.027,4.297c0.934,1.254,2.913,1.368,4.412,0.252C276.135,159.678,276.595,157.748,275.662,156.494z"/>
			<path style="fill:#FFFFFF;" d="M269.936,160.757c-0.598-0.803,0.256-2.416,1.942-3.67c1.687-1.256,3.476-1.609,4.073-0.807
				c0.598,0.802-0.255,2.414-1.942,3.67C272.322,161.204,270.532,161.56,269.936,160.757z M275.662,156.494
				c-0.41-0.551-1.944-0.329-3.569,0.881c-1.626,1.209-2.279,2.615-1.869,3.166c0.412,0.552,1.944,0.329,3.57-0.88
				C275.42,158.449,276.073,157.047,275.662,156.494z"/>
			<path style="fill:#FFFFFF;" d="M275.352,156.152c-0.027-0.038-0.041-0.086-0.033-0.135c0.014-0.098,0.105-0.165,0.203-0.152
				c0.007,0.002,0.494,0.064,0.886-0.256c0.315-0.262,0.493-0.705,0.527-1.315c0.006-0.099,0.09-0.176,0.189-0.171
				c0.1,0.006,0.175,0.092,0.169,0.19c-0.038,0.72-0.262,1.249-0.662,1.577c-0.518,0.421-1.136,0.336-1.162,0.33
				C275.42,156.215,275.378,156.188,275.352,156.152z"/>
			<path style="fill:#FFFFFF;" d="M275.88,156.863c-0.026-0.038-0.04-0.084-0.032-0.134c0.003-0.026,0.098-0.644,0.65-1.017
				c0.429-0.29,1-0.351,1.701-0.183c0.097,0.024,0.156,0.121,0.133,0.217c-0.023,0.097-0.12,0.156-0.217,0.134
				c-0.599-0.146-1.074-0.101-1.415,0.13c-0.423,0.286-0.496,0.765-0.497,0.77c-0.015,0.1-0.105,0.167-0.203,0.153
				C275.95,156.927,275.908,156.899,275.88,156.863z"/>
		</g>
		<g>
			<title>Noun Project</title>
			<path style="fill:#FFFFFF;" d="M159.986,193.216L159.986,193.216c1.03-0.675,1.422-2.592,0.409-4.136
				c-1.011-1.544-2.927-1.952-3.956-1.277l-0.043,0.03c-0.295,0.192-0.383,0.586-0.201,0.885l0.656,1.003l-1.947,1.275
				c-0.269,0.176-0.344,0.534-0.168,0.803l0.904,1.383c0.175,0.268,0.535,0.342,0.804,0.166l1.943-1.272l0.657,1.003
				c0.209,0.289,0.612,0.361,0.908,0.159L159.986,193.216z M156.262,193.069c-0.113,0.072-0.266,0.041-0.34-0.07l-0.904-1.383
				c-0.072-0.112-0.042-0.264,0.07-0.337l1.944-1.274l1.173,1.789L156.262,193.069z M159.327,192.894l-2.851-4.35
				c-0.084-0.153-0.032-0.345,0.117-0.433l0.033-0.021c0.881-0.576,2.599-0.187,3.494,1.18s0.561,3.091-0.318,3.665l-0.034,0.022
				C159.628,193.058,159.435,193.03,159.327,192.894L159.327,192.894z"/>
		</g>
		<g>
			<g>
				<path style="fill:#FFFFFF;" d="M217.188,125.21c-0.085,0.052-0.196,0.023-0.246-0.063l-0.517-0.878
					c-0.05-0.085-0.021-0.197,0.064-0.246c0.086-0.052,0.196-0.021,0.245,0.063l0.517,0.878
					C217.303,125.051,217.275,125.161,217.188,125.21z"/>
			</g>
			<g>
				<path style="fill:#FFFFFF;" d="M216.015,125.605c-0.08,0.046-0.185,0.026-0.238-0.053c-0.057-0.081-0.038-0.192,0.044-0.25
					c0.442-0.313,0.663-1.039,0.666-1.045c0.025-0.086,0.107-0.141,0.196-0.127c0.007,0,0.719,0.094,1.163-0.168
					c0.086-0.051,0.196-0.021,0.246,0.064c0.051,0.085,0.022,0.195-0.064,0.246c-0.417,0.246-0.979,0.244-1.244,0.228
					c-0.097,0.257-0.339,0.803-0.756,1.096C216.023,125.601,216.02,125.604,216.015,125.605z"/>
			</g>
			<g>
				<path style="fill:#FFFFFF;" d="M218.03,123.709l-1.772,1.042c-0.084,0.051-0.194,0.023-0.245-0.063
					c-0.051-0.085-0.021-0.197,0.063-0.247l1.772-1.041c0.085-0.052,0.196-0.023,0.246,0.063
					C218.145,123.55,218.116,123.66,218.03,123.709z"/>
			</g>
			<g>
				<path style="fill:#FFFFFF;" d="M216.618,124.229c-1.918,1.127-4.331,0.596-5.379-1.187c-1.047-1.782-0.341-4.149,1.577-5.276
					c1.916-1.129,4.329-0.596,5.377,1.185C219.242,120.734,218.535,123.103,216.618,124.229z M212.999,118.076
					c-1.747,1.028-2.397,3.173-1.449,4.784s3.139,2.085,4.886,1.058c1.746-1.026,2.396-3.173,1.448-4.782
					C216.937,117.524,214.746,117.049,212.999,118.076z"/>
			</g>
			<g>
				<path style="fill:#FFFFFF;" d="M216.618,124.229c-1.519,0.894-3.606,0.169-4.654-1.613s-0.666-3.958,0.853-4.85
					c1.518-0.894,3.605-0.171,4.654,1.611C218.519,121.16,218.136,123.336,216.618,124.229z M212.999,118.076
					c-1.348,0.791-1.673,2.746-0.726,4.357c0.948,1.611,2.814,2.278,4.162,1.484c1.347-0.791,1.673-2.746,0.725-4.357
					S214.346,117.284,212.999,118.076z"/>
			</g>
			<g>
				<path style="fill:#FFFFFF;" d="M216.618,124.229c-0.862,0.507-2.374-0.516-3.439-2.327c-1.066-1.812-1.225-3.629-0.362-4.136
					c0.861-0.507,2.372,0.514,3.438,2.325C217.321,121.904,217.48,123.723,216.618,124.229z M212.999,118.076
					c-0.594,0.349-0.538,1.896,0.489,3.644c1.028,1.748,2.354,2.548,2.947,2.198c0.593-0.349,0.537-1.896-0.491-3.644
					C214.917,118.528,213.591,117.727,212.999,118.076z"/>
			</g>
			<g>
				<path style="fill:#FFFFFF;" d="M212.624,118.348c-0.039,0.022-0.09,0.033-0.137,0.018c-0.097-0.024-0.153-0.121-0.128-0.217
					c0.002-0.007,0.117-0.484-0.161-0.908c-0.226-0.343-0.646-0.566-1.251-0.665c-0.098-0.019-0.164-0.108-0.148-0.208
					c0.017-0.099,0.109-0.164,0.206-0.149c0.713,0.117,1.216,0.396,1.498,0.829c0.363,0.562,0.21,1.166,0.204,1.192
					C212.694,118.287,212.664,118.324,212.624,118.348z"/>
			</g>
			<g>
				<path style="fill:#FFFFFF;" d="M213.388,117.898c-0.039,0.022-0.088,0.031-0.137,0.02c-0.024-0.008-0.628-0.168-0.941-0.757
					c-0.24-0.458-0.24-1.034,0.004-1.712c0.034-0.094,0.137-0.142,0.23-0.108c0.094,0.034,0.142,0.137,0.108,0.23
					c-0.207,0.579-0.216,1.057-0.023,1.42c0.24,0.453,0.708,0.576,0.713,0.578c0.097,0.024,0.153,0.123,0.129,0.219
					C213.459,117.837,213.428,117.875,213.388,117.898z"/>
			</g>
		</g>
		<g>
			<path style="fill:#FFFFFF;" d="M280.793,74.289l0.002,0.012c0.004,0.058-0.013,0.105-0.05,0.142
				c-0.777,0.635-1.63,1.083-2.559,1.343c0.549,0.663,0.966,1.427,1.25,2.294c0.021,0.057,0.011,0.107-0.026,0.151
				c-0.029,0.05-0.078,0.071-0.146,0.062c-1.122-0.052-2.15-0.308-3.087-0.775l-0.185-0.098c-0.114,0.177-0.229,0.321-0.343,0.437
				c-0.771,0.902-1.726,1.412-2.863,1.532c-0.011,0.013-0.015,0.013-0.011,0l-3.4,0.254c-1.05-0.016-1.994-0.376-2.834-1.083
				c-0.259-0.235-0.482-0.47-0.675-0.701l-0.001-0.01c-0.519-0.658-0.814-1.442-0.883-2.353c-0.068-0.894,0.103-1.71,0.513-2.445
				l-0.006-0.017c0.157-0.263,0.345-0.529,0.563-0.801c0.718-0.83,1.597-1.325,2.637-1.481c0.188-0.038,0.328-0.062,0.42-0.072
				l2.988-0.214c1.143-0.053,2.168,0.301,3.075,1.064c0.163,0.151,0.302,0.288,0.413,0.405l0.304-0.234
				c0.823-0.561,1.746-0.941,2.772-1.139c0.068-0.015,0.12,0,0.153,0.05c0.047,0.041,0.065,0.089,0.05,0.146
				c-0.144,0.91-0.441,1.734-0.894,2.47c0.968,0.117,1.884,0.427,2.749,0.929C280.766,74.186,280.79,74.229,280.793,74.289z
				 M276.101,71.995l-0.293,0.211c0.48,0.597,0.781,1.298,0.898,2.104c0.318-0.331,0.591-0.67,0.822-1.021
				c0.463-0.714,0.779-1.494,0.956-2.337C277.605,71.154,276.812,71.501,276.101,71.995z M275.367,72.227
				c-0.154-0.171-0.298-0.311-0.432-0.419c-0.803-0.694-1.719-1.027-2.749-0.999l-1.402,1.634l2.53,2.169L275.367,72.227z
				 M273.593,74.839l2.346,2.01c0.354-0.662,0.502-1.402,0.443-2.221c-0.064-0.821-0.323-1.532-0.778-2.136L273.593,74.839z
				 M277.745,75.797c-0.274-0.305-0.606-0.609-0.995-0.914c0.004,0.818-0.185,1.563-0.564,2.229l0.145,0.083
				c0.815,0.418,1.714,0.664,2.697,0.738c-0.305-0.795-0.731-1.504-1.281-2.124L277.745,75.797z M273.353,75.105l-2.167,2.529
				l1.636,1.402c1.015-0.13,1.869-0.599,2.563-1.41c0.133-0.145,0.255-0.302,0.368-0.464L273.353,75.105z M276.926,74.582
				c0.388,0.305,0.724,0.609,1.005,0.912c0.858-0.226,1.65-0.611,2.38-1.157c-0.794-0.435-1.644-0.692-2.55-0.776
				C277.537,73.909,277.257,74.25,276.926,74.582z M270.956,77.901l-1.172,1.381l2.542-0.195L270.956,77.901z M270.689,77.675
				l-2.53-2.169l-1.929,2.253c0.186,0.199,0.367,0.375,0.545,0.526c0.74,0.648,1.582,0.984,2.528,1.007L270.689,77.675z
				 M273.098,74.877l-2.541-2.168l-2.169,2.531l2.53,2.166L273.098,74.877z M269.126,71.032l1.392,1.182l1.184-1.381L269.126,71.032
				z M268.667,71.102c-0.922,0.163-1.702,0.62-2.346,1.371c-0.152,0.171-0.303,0.373-0.451,0.61l2.252,1.929l2.169-2.531
				L268.667,71.102z M266.01,77.477l1.884-2.198l-2.198-1.885c-0.301,0.647-0.423,1.342-0.365,2.082
				C265.391,76.211,265.616,76.88,266.01,77.477z"/>
		</g>
		<g>
			<title>Noun Project</title>
			<path style="fill:#FFFFFF;" d="M217.372,79.503L217.372,79.503c0.818,0.922,2.771,1.028,4.15-0.197
				c1.381-1.225,1.506-3.18,0.688-4.1l-0.034-0.04c-0.235-0.263-0.636-0.293-0.907-0.068l-0.896,0.795l-1.546-1.741
				c-0.213-0.241-0.58-0.262-0.819-0.05l-1.234,1.096c-0.24,0.214-0.261,0.581-0.049,0.82l1.543,1.737l-0.896,0.797
				c-0.257,0.248-0.27,0.658-0.026,0.922L217.372,79.503z M216.975,75.797c-0.089-0.103-0.079-0.257,0.021-0.346l1.234-1.096
				c0.103-0.089,0.256-0.081,0.347,0.02l1.543,1.737l-1.602,1.422L216.975,75.797z M217.595,78.804l3.889-3.455
				c0.139-0.104,0.336-0.08,0.445,0.055l0.027,0.029c0.697,0.787,0.561,2.545-0.658,3.628c-1.222,1.084-2.978,1.005-3.675,0.221
				l-0.027-0.032C217.478,79.124,217.476,78.929,217.595,78.804L217.595,78.804z"/>
		</g>
		<g>
			<g>
				<path style="fill:#FFFFFF;" d="M293.025,111.284c-0.005,0-0.009,0.003-0.013,0.003c-0.065-0.089-0.169-0.138-0.282-0.123
					c-0.431,0.058-1.044,0.209-1.52,0.612c-0.189,0.161-0.344,0.351-0.458,0.564l-0.438-0.519c-0.181-0.214-0.481-0.257-0.672-0.098
					l-0.308,0.262c-0.19,0.16-0.197,0.465-0.017,0.679l0.482,0.569c-0.126,0.072-0.296,0.185-0.478,0.337
					c-0.435,0.367-0.742,0.809-0.915,1.315c-0.046,0.13,0,0.271,0.115,0.349c0.021,0.014,0.042,0.024,0.063,0.033
					c-0.011,0.012-0.021,0.027-0.032,0.043c-0.026,0.036-0.043,0.079-0.052,0.125c-0.226,1.28,0.104,2.558,0.902,3.502
					c1.565,1.85,4.485,1.965,6.509,0.253c2.023-1.713,2.395-4.609,0.828-6.461C295.845,111.672,294.49,111.145,293.025,111.284z
					 M289.556,113.848c0.191-0.161,0.367-0.27,0.481-0.332c0.164-0.091,0.207-0.316,0.086-0.461l-0.528-0.624
					c-0.052-0.063-0.056-0.142-0.025-0.167l0.308-0.261c0.031-0.026,0.106-0.01,0.16,0.053l0.499,0.589
					c0.053,0.064,0.128,0.101,0.21,0.107c0.124,0.008,0.242-0.061,0.296-0.173c0.095-0.199,0.23-0.375,0.405-0.524
					c0.335-0.283,0.761-0.424,1.113-0.494c-0.007,0.005-0.014,0.012-0.021,0.018c-0.006,0.006-0.011,0.011-0.017,0.016
					c-0.018,0.013-0.03,0.027-0.046,0.041c-0.285,0.242-0.5,0.464-0.644,0.663c-0.073,0.099-0.078,0.231-0.013,0.336
					c0.065,0.106,0.188,0.161,0.315,0.142c0.519-0.089,0.873,0.034,1.103,0.188c-0.686,0.012-1.202,0.357-1.407,0.523
					c-0.063,0.053-0.101,0.127-0.107,0.209c-0.006,0.083,0.021,0.161,0.075,0.225c0.614,0.702,0.771,1.389,0.813,1.726
					c-0.384-0.174-0.952-0.762-1.376-1.28c-0.099-0.118-0.272-0.146-0.404-0.061c-0.039,0.026-0.078,0.056-0.113,0.084
					c-0.008,0.007-0.014,0.015-0.02,0.02c-0.02,0.015-0.034,0.033-0.052,0.051c-0.028,0.03-0.057,0.057-0.081,0.089
					c-0.015,0.017-0.028,0.035-0.042,0.052c-0.028,0.034-0.053,0.07-0.077,0.108c-0.011,0.015-0.022,0.033-0.031,0.049
					c-0.025,0.041-0.05,0.083-0.073,0.125c-0.008,0.017-0.016,0.031-0.025,0.05c-0.023,0.044-0.044,0.091-0.063,0.139
					c-0.006,0.015-0.014,0.031-0.02,0.047c-0.019,0.048-0.037,0.098-0.054,0.144c-0.005,0.017-0.013,0.033-0.02,0.05
					c-0.016,0.047-0.03,0.095-0.045,0.143c-0.005,0.017-0.011,0.035-0.016,0.051c-0.015,0.052-0.026,0.103-0.039,0.151
					c-0.003,0.011-0.007,0.023-0.011,0.037c-0.042-0.211-0.057-0.403-0.053-0.573c0.003-0.216,0.031-0.396,0.064-0.535
					c0.002-0.008,0.004-0.02,0.006-0.026c0.003-0.011,0.006-0.018,0.009-0.027c0.006-0.025,0.012-0.048,0.02-0.069
					c0.031-0.107,0.001-0.226-0.081-0.305c-0.081-0.08-0.2-0.106-0.309-0.069c-0.009,0.002-0.019,0.007-0.027,0.011
					c-0.042,0.016-0.084,0.034-0.128,0.056c-0.022,0.013-0.046,0.022-0.068,0.036c-0.007,0.003-0.01,0.007-0.015,0.008
					c-0.003,0.002-0.006,0.005-0.009,0.007c-0.183,0.107-0.372,0.264-0.569,0.468C289.049,114.365,289.271,114.088,289.556,113.848z
					 M295.681,118.915c-1.87,1.582-4.561,1.486-5.998-0.212c-0.729-0.861-1.027-2.024-0.823-3.194
					c0.233-0.336,0.502-0.673,0.79-0.996c0.022-0.013,0.044-0.024,0.065-0.034c-0.031,0.122-0.06,0.279-0.071,0.464
					c0,0.005,0.001,0.009-0.001,0.012c-0.003,0.058-0.006,0.117-0.007,0.178c0,0.022,0.001,0.046,0.002,0.069
					c0,0.046,0,0.09,0.005,0.138c0.002,0.046,0.008,0.093,0.014,0.14c0.002,0.028,0.004,0.053,0.007,0.083
					c0.011,0.074,0.021,0.149,0.041,0.227c0,0.004,0,0.004,0.001,0.009c0.019,0.079,0.038,0.163,0.063,0.248
					c0.029,0.101,0.104,0.173,0.199,0.203c0.166,0.049,0.358-0.064,0.389-0.239c0.122-0.668,0.338-1.158,0.63-1.371
					c0.324,0.394,1.063,1.223,1.6,1.388c0.1,0.029,0.206,0.008,0.285-0.06c0.074-0.063,0.114-0.157,0.107-0.253
					c-0.021-0.281-0.125-0.945-0.63-1.672c-0.071-0.104-0.152-0.209-0.242-0.314c0.215-0.156,0.684-0.438,1.281-0.396
					c0.17,0.01,0.32-0.132,0.325-0.298c0.002-0.087-0.034-0.169-0.101-0.229c-0.188-0.173-0.475-0.353-0.888-0.408
					c-0.012-0.002-0.023-0.003-0.035-0.005c-0.017-0.003-0.035-0.002-0.053-0.003c-0.131-0.01-0.271-0.012-0.424,0.006
					c0.106-0.13,0.278-0.304,0.539-0.524c0.012-0.01,0.024-0.021,0.035-0.03c0.018-0.015,0.034-0.029,0.052-0.044l0.054-0.038
					c0.046-0.029,0.091-0.058,0.136-0.089l0.038-0.026c1.341-0.122,2.576,0.359,3.392,1.321
					C297.9,114.664,297.551,117.334,295.681,118.915z"/>
				<path style="fill:#FFFFFF;" d="M290.392,118.4c-0.075-0.067-0.189-0.062-0.254,0.017c-0.067,0.075-0.062,0.188,0.015,0.255
					c0.204,0.181,0.437,0.317,0.688,0.404c0.064,0.021,0.13,0.007,0.177-0.032c0.023-0.021,0.044-0.046,0.054-0.079
					c0.035-0.096-0.018-0.199-0.111-0.232C290.755,118.662,290.56,118.547,290.392,118.4z"/>
				<path style="fill:#FFFFFF;" d="M289.906,118.089c0.003-0.001,0.007-0.005,0.01-0.008c0.071-0.062,0.087-0.168,0.029-0.245
					c-0.121-0.168-0.22-0.348-0.29-0.537c-0.035-0.095-0.139-0.143-0.234-0.108c-0.094,0.034-0.141,0.14-0.106,0.233
					c0.082,0.221,0.195,0.434,0.338,0.626C289.712,118.129,289.825,118.148,289.906,118.089z"/>
			</g>
		</g>
		<path style="fill:none;stroke:#C22D05;stroke-width:3;stroke-miterlimit:10;" d="M226.701,60.518
			c39.796,0,64.389,27.432,64.389,64.387s-29.525,64.732-64.731,64.732c-35.204,0-65.184-30.96-65.184-65.186
			C161.175,90.229,186.907,60.518,226.701,60.518z"/>
		<g>
			<path style="fill:#C22D05;" d="M226.532,187.374c-33.504,0-62.894-29.389-62.894-62.893c0-35.19,27.176-61.728,63.214-61.728
				c18.49,0,34.207,6.133,45.452,17.736c10.769,11.111,16.698,26.884,16.698,44.412c0,17.058-6.57,32.9-18.502,44.61
				C258.765,181.03,243.15,187.374,226.532,187.374z"/>
			<path style="fill:#494241;" d="M226.853,64.754c37.176,0,60.15,25.627,60.15,60.148c0,34.524-27.583,60.472-60.471,60.472
				c-32.889,0-60.894-28.923-60.894-60.893C165.639,92.511,189.678,64.754,226.853,64.754 M226.853,60.754
				c-18.582,0-35.42,6.777-47.412,19.083c-11.479,11.78-17.802,27.635-17.802,44.645c0,34.569,30.324,64.893,64.894,64.893
				c17.145,0,33.258-6.547,45.37-18.435c12.317-12.088,19.101-28.438,19.101-46.037c0-18.051-6.13-34.317-17.262-45.804
				C262.11,67.098,245.896,60.754,226.853,60.754L226.853,60.754z"/>
		</g>
		<circle style="fill:#F1F4ED;" cx="187.398" cy="129.387" r="3.371"/>
		<circle style="fill:#F1F4ED;" cx="257.126" cy="120.329" r="6.952"/>
		<circle style="fill:#F1F4ED;" cx="197.299" cy="86.626" r="6.952"/>
		<circle style="fill:#F1F4ED;" cx="267.448" cy="144.556" r="3.37"/>
		<circle style="fill:#F1F4ED;" cx="227.002" cy="142.028" r="3.371"/>
		<circle style="fill:#F1F4ED;" cx="198.142" cy="145.609" r="6.952"/>
		<g>
			<path style="fill:#C22D05;" d="M322,161v42H131v-42H322 M324,159h-2H131.038H129v1.589v42.594V205h2.038H322h2v-1.817v-42.594
				V159L324,159z"/>
		</g>
		<g>
			<rect x="132" y="162" style="fill:#C22D05;" width="189" height="40"/>
			<path style="fill:#494241;" d="M319,164v36H134v-36H319 M323,160h-4.283H134.166H130v3.693v36.716V204h4.166h184.551H323v-3.591
				v-36.716V160L323,160z"/>
		</g>
		<g>
			<path style="fill:#F9F0EF;" d="M136.429,174.014h7.529c1.347,0,2.44,0.135,3.276,0.406s1.486,0.635,1.952,1.093
				c0.464,0.457,0.778,0.982,0.94,1.58c0.163,0.596,0.245,1.228,0.245,1.893c0,0.775-0.163,1.448-0.489,2.021
				c-0.325,0.576-0.766,1.052-1.324,1.431c-0.557,0.38-1.205,0.666-1.94,0.86c-0.736,0.192-1.522,0.29-2.358,0.29h-1.766v3.601
				h1.418v3.067h-7.483v-3.067h1.301v-10.131h-1.301V174.014z M142.494,177.033v4.044h1.045c0.682,0,1.232-0.168,1.65-0.499
				c0.418-0.334,0.627-0.812,0.627-1.43c0-0.698-0.189-1.223-0.568-1.58c-0.38-0.355-0.91-0.535-1.592-0.535H142.494z"/>
			<path style="fill:#F9F0EF;" d="M151.301,174.014h7.716v3.065h-1.441v10.085h1.441v3.091h-7.716v-3.091h1.465v-10.085h-1.465
				V174.014z"/>
			<path style="fill:#F9F0EF;" d="M160.317,180.124v-6.11h15.244v3.091l-8.459,10.083h4.299v-2.973h4.138v6.04h-15.361v-3.02
				l8.458-10.156h-4.392v3.045H160.317z"/>
			<path style="fill:#F9F0EF;" d="M176.908,180.124v-6.11h15.245v3.091l-8.459,10.083h4.299v-2.973h4.137v6.04h-15.36v-3.02
				l8.458-10.156h-4.392v3.045H176.908z"/>
			<path style="fill:#F9F0EF;" d="M211.557,190.255h-9.319v-3.043h2.208l-0.487-1.581h-4.765l-0.488,1.581h1.813v3.043h-7.391
				v-3.043h1.58l3.139-10.202h-0.953v-2.996h8.922l4.113,13.198h1.628V190.255z M200.054,182.843h3.043l-1.532-5.02L200.054,182.843
				z"/>
			<path style="fill:#F9F0EF;" d="M218.295,174.014h7.53c1.347,0,2.439,0.135,3.275,0.406s1.488,0.635,1.952,1.093
				c0.465,0.457,0.778,0.982,0.941,1.58c0.163,0.596,0.244,1.228,0.244,1.893c0,0.775-0.164,1.448-0.488,2.021
				c-0.325,0.576-0.768,1.052-1.324,1.431c-0.558,0.38-1.205,0.666-1.94,0.86c-0.735,0.192-1.522,0.29-2.359,0.29h-1.766v3.601
				h1.418v3.067h-7.483v-3.067h1.301v-10.131h-1.301V174.014z M224.36,177.033v4.044h1.047c0.681,0,1.23-0.168,1.647-0.499
				c0.42-0.334,0.628-0.812,0.628-1.43c0-0.698-0.188-1.223-0.569-1.58c-0.38-0.355-0.909-0.535-1.591-0.535H224.36z"/>
			<path style="fill:#F9F0EF;" d="M233.168,174.014h7.343v3.065h-1.231v10.085h2.997v-2.949h3.905v6.04h-13.014v-3.091h1.277
				v-10.085h-1.277V174.014z"/>
			<path style="fill:#F9F0EF;" d="M265.538,190.255h-9.318v-3.043h2.207l-0.487-1.581h-4.765l-0.488,1.581h1.813v3.043h-7.39v-3.043
				h1.58l3.137-10.202h-0.952v-2.996h8.922l4.115,13.198h1.626V190.255z M254.035,182.843h3.043l-1.532-5.02L254.035,182.843z"/>
			<path style="fill:#F9F0EF;" d="M284.268,177.01h-1.535v13.245h-4.995l-5.925-8.853v5.855h1.789v2.997h-7.134v-2.997h1.371V177.01
				h-1.349v-2.996h6.669l5.717,8.528v-5.532h-1.603v-2.996h6.994V177.01z"/>
			<path style="fill:#F9F0EF;" d="M285.43,174.014h14.012v5.135h-4.021v-2.069h-3.718v3.208h4.416v3.091h-4.416v3.786h3.718v-2.16
				h4.021v5.251H285.43v-3.091h1.463v-10.085h-1.463V174.014z"/>
			<path style="fill:#F9F0EF;" d="M315.965,174.014v6.041h-3.418v-2.976h-1.95v10.085h1.927v3.091h-8.644v-3.091h1.906v-10.085h-2
				v2.976h-3.415v-6.041H315.965z"/>
		</g>
		<g>
			<g>
				<path style="fill:#C22D05;" d="M243.088,64.515l1.782,0.405c0.305,0.069,0.609,0.148,0.903,0.236
					c15.714,4.206,28.017,13.766,35.527,27.636c0.042,0.069,0.083,0.141,0.121,0.211l0.955,1.746l-1.701,1.037l-58.178,32.17
					L243.088,64.515z"/>
				<path style="fill:#494241;" d="M244.426,66.87c0.262,0.06,0.523,0.127,0.775,0.202c15.547,4.162,27.344,13.718,34.371,26.728
					c0.05,0.075,0.093,0.161,0.136,0.236l-53.743,29.718L244.426,66.87 M241.75,62.158l-1.129,3.478L222.16,122.52l-3.128,9.639
					l8.868-4.904l53.743-29.717l3.55-1.964l-2.013-3.521c-0.046-0.085-0.093-0.168-0.141-0.249
					c-7.773-14.33-20.479-24.21-36.754-28.581c-0.308-0.09-0.634-0.175-0.973-0.252L241.75,62.158L241.75,62.158z"/>
			</g>
			<path style="fill:none;stroke:#C22D05;stroke-width:2;stroke-linejoin:round;stroke-miterlimit:10;" d="M242.719,62.208
				c0,0,27.727,3.314,42.219,32.776"/>
			<circle style="fill:#F1F4ED;" cx="256.284" cy="84.94" r="6.952"/>
			<circle style="fill:#F1F4ED;" cx="236.271" cy="110.007" r="3.371"/>
		</g>
	</g>
</g>
</svg>
