<?xml version="1.0" encoding="iso-8859-1"?>
<!-- Generator: Adobe Illustrator 15.1.0, SVG Export Plug-In . SVG Version: 6.00 Build 0)  -->
<!DOCTYPE svg PUBLIC "-//W3C//DTD SVG 1.1//EN" "http://www.w3.org/Graphics/SVG/1.1/DTD/svg11.dtd">
<svg version="1.1" xmlns="http://www.w3.org/2000/svg" xmlns:xlink="http://www.w3.org/1999/xlink" x="0px" y="0px"
	 width="232.927px" height="201px" viewBox="0 0 232.927 201" style="enable-background:new 0 0 232.927 201;" xml:space="preserve"
	>


<g id="Layer_1">
	<rect x="-116" y="471" style="fill:#494241;" width="818" height="593"/>
	<radialGradient id="SVGID_1_" cx="52.8823" cy="400.0859" r="119.1633" gradientUnits="userSpaceOnUse">
		<stop  offset="0" style="stop-color:#000000;stop-opacity:0.43"/>
		<stop  offset="0.9152" style="stop-color:#795244;stop-opacity:0.46"/>
		<stop  offset="1" style="stop-color:#C22D05"/>
	</radialGradient>
	<circle style="fill:url(#SVGID_1_);" cx="52.882" cy="400.084" r="119.164"/>
	<radialGradient id="SVGID_2_" cx="52.8823" cy="400.7793" r="115.0059" gradientUnits="userSpaceOnUse">
		<stop  offset="0" style="stop-color:#000000;stop-opacity:0.43"/>
		<stop  offset="0.4606" style="stop-color:#795244;stop-opacity:0.46"/>
		<stop  offset="1" style="stop-color:#942D05"/>
	</radialGradient>
	<circle style="fill:url(#SVGID_2_);" cx="52.882" cy="400.778" r="115.006"/>
	<circle style="fill:#C22D05;" cx="52.671" cy="399.427" r="108.213"/>
	<rect x="1025" y="73" style="fill:#7ACC1A;" width="212" height="198"/>
	<path style="fill:#CDED14;stroke:#CDED14;stroke-width:2;stroke-miterlimit:10;" d="M1129,172v-70.706c0,0,15-0.794,28.5,4.706
		s24.088,14.706,24.088,14.706L1129,172z"/>
	<path style="fill:none;stroke:#C22D05;stroke-width:2;stroke-miterlimit:10;" d="M1129.644,96.266
		c47.228,0,76.413,32.555,76.413,76.413c0,43.857-35.039,76.821-76.82,76.821c-41.779,0-77.357-36.742-77.357-77.357
		C1051.879,131.528,1082.417,96.266,1129.644,96.266z"/>
	<g>
		<path style="fill:#C22D05;" d="M1232,211v46h-199v-46H1232 M1234,209h-2h-199h-2v2v46v2h2h199h2v-2v-46V209L1234,209z"/>
	</g>
	<g>
		<path style="fill:#C22D05;" d="M1129.442,246.442c-39.562,0-74.266-34.703-74.266-74.266c0-41.55,32.091-72.883,74.646-72.883
			c21.84,0,40.399,7.24,53.672,20.936c12.711,13.117,19.711,31.743,19.711,52.448c0,20.142-7.758,38.849-21.845,52.674
			C1167.504,238.952,1149.065,246.442,1129.442,246.442z"/>
		<path style="fill:#7ACC1A;" d="M1129.823,101.294c44.118,0,71.384,30.413,71.384,71.384s-32.734,71.765-71.765,71.765
			s-72.266-34.324-72.266-72.266S1085.705,101.294,1129.823,101.294 M1129.823,97.294c-21.85,0-41.643,7.963-55.732,22.422
			c-13.487,13.84-20.914,32.471-20.914,52.461c0,40.628,35.638,76.266,76.266,76.266c20.15,0,39.086-7.693,53.32-21.663
			c14.474-14.205,22.444-33.419,22.444-54.102c0-21.227-7.2-40.348-20.275-53.839C1171.273,104.744,1152.217,97.294,1129.823,97.294
			L1129.823,97.294z"/>
	</g>
	<g>
		<rect x="1035" y="213" style="fill:#C22D05;" width="195" height="42"/>
		<path style="fill:#7ACC1A;" d="M1228,215v38h-191v-38H1228 M1232,211h-4h-191h-4v4v38v4h4h191h4v-4v-38V211L1232,211z"/>
	</g>
	<g>
		<path style="fill:#7ACC1A;" d="M1039.693,225.471h8.993c1.61,0,2.915,0.162,3.914,0.485c1,0.324,1.776,0.76,2.332,1.305
			c0.555,0.546,0.93,1.176,1.124,1.888c0.194,0.713,0.292,1.467,0.292,2.263c0,0.926-0.194,1.73-0.583,2.415
			s-0.916,1.254-1.582,1.707c-0.667,0.454-1.439,0.796-2.318,1.027s-1.818,0.347-2.817,0.347h-2.109v4.303h1.693v3.664h-8.938
			v-3.664h1.554v-12.103h-1.554V225.471z M1046.938,229.079v4.83h1.249c0.813,0,1.471-0.198,1.971-0.597
			c0.5-0.397,0.749-0.967,0.749-1.707c0-0.833-0.227-1.462-0.68-1.888c-0.454-0.426-1.088-0.639-1.901-0.639H1046.938z"/>
		<path style="fill:#7ACC1A;" d="M1057.458,225.471h9.216v3.664h-1.722v12.047h1.722v3.692h-9.216v-3.692h1.748v-12.047h-1.748
			V225.471z"/>
		<path style="fill:#7ACC1A;" d="M1068.228,232.771v-7.301h18.21v3.691l-10.104,12.048h5.136v-3.554h4.941v7.218h-18.349v-3.608
			l10.104-12.131h-5.246v3.637H1068.228z"/>
		<path style="fill:#7ACC1A;" d="M1088.047,232.771v-7.301h18.21v3.691l-10.104,12.048h5.136v-3.554h4.941v7.218h-18.349v-3.608
			l10.104-12.131h-5.246v3.637H1088.047z"/>
		<path style="fill:#7ACC1A;" d="M1129.435,244.874h-11.131v-3.637h2.637l-0.583-1.888h-5.69l-0.583,1.888h2.166v3.637h-8.828
			v-3.637h1.888l3.748-12.186h-1.139v-3.581h10.659l4.914,15.767h1.942V244.874z M1115.695,236.019h3.637l-1.832-5.995
			L1115.695,236.019z"/>
		<path style="fill:#7ACC1A;" d="M1138.791,244.874h-8.244v-3.637h1.165v-6.551h-1.165v-3.664h5.246l0.61,1.638
			c0.111-0.129,0.273-0.31,0.486-0.541c0.212-0.231,0.467-0.458,0.763-0.681c0.296-0.222,0.629-0.411,1-0.568
			c0.37-0.157,0.777-0.236,1.221-0.236c0.703,0,1.291,0.074,1.763,0.222c0.473,0.148,0.865,0.324,1.181,0.527
			c0.314,0.204,0.563,0.422,0.749,0.652c0.185,0.232,0.333,0.431,0.444,0.598c0.425-0.481,0.972-0.935,1.638-1.36
			s1.48-0.639,2.442-0.639c1.129,0,2.031,0.189,2.707,0.569c0.675,0.379,1.197,0.879,1.568,1.499c0.37,0.62,0.615,1.328,0.735,2.123
			c0.12,0.796,0.181,1.62,0.181,2.471v3.831h1.36v3.747h-7.051v-6.801c0-0.185,0.004-0.379,0.014-0.583
			c0.009-0.203,0.014-0.416,0.014-0.639c0-0.277-0.014-0.55-0.042-0.818c-0.027-0.269-0.078-0.504-0.152-0.708
			s-0.181-0.37-0.319-0.5c-0.139-0.129-0.328-0.194-0.569-0.194c-0.592,0-0.985,0.19-1.18,0.569s-0.291,0.865-0.291,1.457v4.497
			h1.665v3.72h-7.189v-7.078c0-1.129-0.055-1.938-0.166-2.43c-0.111-0.489-0.444-0.735-0.999-0.735
			c-0.444,0-0.764,0.135-0.958,0.402c-0.194,0.269-0.292,0.689-0.292,1.264v4.94h1.666V244.874z"/>
		<path style="fill:#7ACC1A;" d="M1156.056,232.16c0.278-0.166,0.629-0.36,1.055-0.583c0.426-0.222,0.902-0.439,1.43-0.652
			c0.527-0.212,1.092-0.389,1.693-0.527s1.226-0.208,1.874-0.208c0.833,0,1.693,0.088,2.582,0.264
			c0.888,0.176,1.697,0.481,2.429,0.916c0.73,0.436,1.332,1.022,1.804,1.763c0.473,0.74,0.708,1.666,0.708,2.776v5.413h1.666v3.553
			h-5.94l-0.666-1.249c-0.26,0.352-0.552,0.644-0.875,0.874c-0.324,0.231-0.657,0.412-0.999,0.542
			c-0.343,0.129-0.681,0.222-1.014,0.277s-0.62,0.083-0.86,0.083c-0.666,0-1.323-0.093-1.971-0.277
			c-0.648-0.186-1.231-0.463-1.749-0.833c-0.519-0.37-0.939-0.847-1.263-1.43c-0.324-0.583-0.486-1.281-0.486-2.096
			c0-0.777,0.153-1.48,0.458-2.109c0.306-0.629,0.722-1.166,1.25-1.61c0.527-0.444,1.142-0.786,1.846-1.027
			c0.703-0.24,1.443-0.36,2.221-0.36c0.406,0,0.772,0.042,1.097,0.125c0.323,0.083,0.601,0.181,0.832,0.291
			c0.231,0.111,0.417,0.223,0.556,0.333c0.139,0.111,0.227,0.186,0.264,0.223v-0.972c0-0.629-0.25-1.046-0.75-1.249
			c-0.499-0.204-1.129-0.306-1.888-0.306c-0.832,0-1.596,0.139-2.29,0.416c-0.693,0.278-1.309,0.565-1.846,0.861L1156.056,232.16z
			 M1162.219,241.793c0.425,0,0.795-0.102,1.11-0.306c0.314-0.203,0.536-0.406,0.666-0.61v-1.055
			c-0.019-0.037-0.061-0.098-0.125-0.181c-0.065-0.083-0.162-0.171-0.291-0.264c-0.13-0.093-0.292-0.176-0.486-0.25
			c-0.194-0.073-0.439-0.111-0.735-0.111c-0.556,0-0.963,0.139-1.222,0.417c-0.26,0.277-0.389,0.629-0.389,1.055
			c0,0.389,0.139,0.703,0.417,0.943C1161.442,241.673,1161.793,241.793,1162.219,241.793z"/>
		<path style="fill:#7ACC1A;" d="M1172.407,225.471h9.021c1.609,0,2.914,0.148,3.914,0.444c0.999,0.296,1.78,0.703,2.346,1.221
			c0.564,0.519,0.943,1.125,1.138,1.818c0.193,0.694,0.291,1.439,0.291,2.234c0,0.537-0.102,1.037-0.305,1.499
			c-0.205,0.463-0.486,0.865-0.847,1.208c-0.361,0.343-0.787,0.629-1.277,0.86s-1.022,0.385-1.596,0.458
			c0.48,0.074,0.938,0.227,1.374,0.458c0.435,0.231,0.818,0.523,1.152,0.874c0.333,0.353,0.6,0.75,0.805,1.194
			c0.203,0.444,0.305,0.916,0.305,1.415c0,0.593,0.047,1.056,0.139,1.389s0.268,0.499,0.527,0.499c0.425,0,0.639-0.296,0.639-0.888
			v-0.916h1.859v1.526c0,0.574-0.065,1.129-0.194,1.666c-0.13,0.536-0.352,1.009-0.666,1.415c-0.315,0.407-0.731,0.736-1.249,0.985
			c-0.518,0.25-1.166,0.375-1.943,0.375c-1.832,0-3.188-0.453-4.066-1.36c-0.88-0.906-1.318-2.174-1.318-3.803
			c0-0.629-0.028-1.147-0.084-1.555c-0.056-0.406-0.181-0.726-0.375-0.957c-0.193-0.231-0.477-0.394-0.846-0.486
			c-0.371-0.092-0.861-0.139-1.472-0.139v4.303h1.693v3.664h-8.966v-3.664h1.554v-12.103h-1.554V225.471z M1179.679,229.079v4.719
			h1.249c0.814,0,1.462-0.189,1.943-0.568c0.48-0.38,0.722-0.939,0.722-1.68c0-0.833-0.218-1.452-0.652-1.86
			c-0.436-0.406-1.06-0.61-1.874-0.61H1179.679z"/>
		<path style="fill:#7ACC1A;" d="M1192.864,225.471h9.216v3.664h-1.722v12.047h1.722v3.692h-9.216v-3.692h1.748v-12.047h-1.748
			V225.471z"/>
		<path style="fill:#7ACC1A;" d="M1225.202,244.874h-11.131v-3.637h2.637l-0.583-1.888h-5.69l-0.583,1.888h2.166v3.637h-8.828
			v-3.637h1.888l3.748-12.186h-1.139v-3.581h10.659l4.914,15.767h1.942V244.874z M1211.462,236.019h3.637l-1.832-5.995
			L1211.462,236.019z"/>
	</g>
	<g>
		<polygon style="fill:#C22D05;" points="1130,81.161 1197.667,103.499 1130,169.561 		"/>
		<path style="fill:#7ACC1A;" d="M1132,83.118l63.354,20.973L1132,166V83 M1129,79.086v4.149V166v7.122l5.096-4.975l63.354-61.851
			l3.532-3.448l-4.688-1.547l-63.354-20.914L1129,79.086L1129,79.086z"/>
	</g>
	<circle style="fill:#7ACC1A;" cx="1169.75" cy="155.25" r="8.25"/>
	<circle style="fill:#7ACC1A;" cx="1143" cy="136" r="4"/>
	<circle style="fill:#7ACC1A;" cx="1084" cy="179.5" r="7"/>
	<circle style="fill:#7ACC1A;" cx="1143.25" cy="103.25" r="5.75"/>
	<circle style="fill:#7ACC1A;" cx="1167.25" cy="191.75" r="6.75"/>
	<circle style="fill:#7ACC1A;" cx="1113" cy="198" r="4"/>
	<rect x="1424" y="133" style="fill:#7ACC1A;stroke:#FFFFFF;stroke-width:2;stroke-miterlimit:10;" width="212" height="198"/>
	<path style="fill:#CDED14;stroke:#CDED14;stroke-width:2;stroke-miterlimit:10;" d="M1528,232v-70.706c0,0,15-0.794,28.5,4.706
		s24.088,14.706,24.088,14.706L1528,232z"/>
	<path style="fill:none;stroke:#C22D05;stroke-width:2;stroke-miterlimit:10;" d="M1528.644,156.266
		c47.228,0,76.413,32.555,76.413,76.413c0,43.857-35.039,76.821-76.82,76.821c-41.779,0-77.357-36.742-77.357-77.357
		S1481.417,156.266,1528.644,156.266z"/>
	<g>
		<path style="fill:#C22D05;" d="M1629,245v46h-199v-46H1629 M1631,243h-2h-199h-2v2v46v2h2h199h2v-2v-46V243L1631,243z"/>
	</g>
	<g>
		<path style="fill:#C22D05;" d="M1528.442,306.442c-39.563,0-74.266-34.703-74.266-74.266c0-41.55,32.091-72.883,74.646-72.883
			c21.84,0,40.399,7.24,53.673,20.936c12.711,13.117,19.711,31.743,19.711,52.448c0,20.142-7.758,38.849-21.845,52.674
			C1566.504,298.952,1548.065,306.442,1528.442,306.442z"/>
		<path style="fill:#7ACC1A;" d="M1528.823,161.294c44.118,0,71.384,30.413,71.384,71.384s-32.734,71.765-71.765,71.765
			s-72.266-34.324-72.266-72.266S1484.705,161.294,1528.823,161.294 M1528.823,157.294c-21.85,0-41.643,7.963-55.732,22.422
			c-13.486,13.84-20.914,32.471-20.914,52.461c0,40.628,35.638,76.266,76.266,76.266c20.15,0,39.086-7.693,53.32-21.663
			c14.474-14.205,22.444-33.419,22.444-54.102c0-21.228-7.2-40.348-20.275-53.839
			C1570.273,164.744,1551.217,157.294,1528.823,157.294L1528.823,157.294z"/>
	</g>
	<g>
		<polygon style="fill:#C22D05;" points="1529,146.161 1596.667,168.499 1529,234.561 		"/>
		<path style="fill:#7ACC1A;" d="M1531,148.118l63.354,20.973L1531,231v-83 M1528,144.086v4.149V231v7.121l5.096-4.975
			l63.354-61.851l3.532-3.448l-4.688-1.547l-63.354-20.914L1528,144.086L1528,144.086z"/>
	</g>
	<g>
		<rect x="1432" y="247" style="fill:#C22D05;" width="195" height="42"/>
		<path style="fill:#7ACC1A;" d="M1625,249v38h-191v-38H1625 M1629,245h-4h-191h-4v4v38v4h4h191h4v-4v-38V245L1629,245z"/>
	</g>
	<text transform="matrix(1 0 0 1 1464.998 281.627)" style="fill:#7ACC1A; font-family:'ChunkFiveEx'; font-size:41.0496;">PIZZA</text>
	<circle style="fill:#7ACC1A;" cx="1477.75" cy="217.25" r="8.25"/>
	<circle style="fill:#7ACC1A;" cx="1542" cy="196" r="4"/>
	<circle style="fill:#7ACC1A;" cx="1510" cy="188.5" r="7"/>
	<circle style="fill:#7ACC1A;" cx="1542.25" cy="169.25" r="5.75"/>
	<circle style="fill:#7ACC1A;" cx="1576.25" cy="220.75" r="6.75"/>
	<circle style="fill:#7ACC1A;" cx="1511" cy="230" r="4"/>
	<circle style="fill:#7ACC1A;" cx="1104.25" cy="144.75" r="6.75"/>
	<rect x="1649" y="137" style="fill:#7ACC1A;stroke:#FFFFFF;stroke-width:2;stroke-miterlimit:10;" width="212" height="198"/>
	<path style="fill:#CDED14;stroke:#CDED14;stroke-width:2;stroke-miterlimit:10;" d="M1753,236v-70.706c0,0,15-0.794,28.5,4.706
		s24.088,14.706,24.088,14.706L1753,236z"/>
	<path style="fill:none;stroke:#C22D05;stroke-width:2;stroke-miterlimit:10;" d="M1753.644,160.266
		c47.228,0,76.413,32.555,76.413,76.413c0,43.857-35.039,76.821-76.82,76.821c-41.779,0-77.357-36.742-77.357-77.357
		S1706.417,160.266,1753.644,160.266z"/>
	<g>
		<path style="fill:#C22D05;" d="M1854,249v46h-199v-46H1854 M1856,247h-2h-199h-2v2v46v2h2h199h2v-2v-46V247L1856,247z"/>
	</g>
	<g>
		<path style="fill:#C22D05;" d="M1753.442,310.442c-39.563,0-74.266-34.703-74.266-74.266c0-41.55,32.091-72.883,74.646-72.883
			c21.84,0,40.399,7.24,53.673,20.937c12.711,13.116,19.711,31.742,19.711,52.447c0,20.142-7.758,38.849-21.845,52.674
			C1791.504,302.952,1773.065,310.442,1753.442,310.442z"/>
		<path style="fill:#7ACC1A;" d="M1753.823,165.294c44.118,0,71.384,30.413,71.384,71.384s-32.734,71.765-71.765,71.765
			s-72.266-34.324-72.266-72.266S1709.705,165.294,1753.823,165.294 M1753.823,161.294c-21.85,0-41.643,7.963-55.732,22.422
			c-13.486,13.84-20.914,32.471-20.914,52.461c0,40.628,35.638,76.266,76.266,76.266c20.15,0,39.086-7.693,53.32-21.663
			c14.474-14.205,22.444-33.419,22.444-54.102c0-21.228-7.2-40.348-20.275-53.84
			C1795.273,168.744,1776.217,161.294,1753.823,161.294L1753.823,161.294z"/>
	</g>
	<g>
		<polygon style="fill:#C22D05;" points="1754,150.161 1821.667,172.499 1754,238.561 		"/>
		<path style="fill:#7ACC1A;" d="M1756,152.118l63.354,20.973L1756,235v-83 M1753,148.086v4.149V235v7.121l5.096-4.975
			l63.354-61.851l3.532-3.448l-4.688-1.547l-63.354-20.914L1753,148.086L1753,148.086z"/>
	</g>
	<g>
		<rect x="1657" y="251" style="fill:#C22D05;" width="195" height="42"/>
		<path style="fill:#7ACC1A;" d="M1850,253v38h-191v-38H1850 M1854,249h-4h-191h-4v4v38v4h4h191h4v-4v-38V249L1854,249z"/>
	</g>
	<text transform="matrix(1 0 0 1 1658.5811 280.8613)" style="fill:#7ACC1A; font-family:'ChunkFiveEx'; font-size:24.8687;">PIZZA PLANET</text>
	<circle style="fill:#7ACC1A;" cx="1702.75" cy="221.25" r="8.25"/>
	<circle style="fill:#7ACC1A;" cx="1767" cy="200" r="4"/>
	<circle style="fill:#7ACC1A;" cx="1735" cy="192.5" r="7"/>
	<circle style="fill:#7ACC1A;" cx="1767.25" cy="173.25" r="5.75"/>
	<circle style="fill:#7ACC1A;" cx="1801.25" cy="224.75" r="6.75"/>
	<circle style="fill:#7ACC1A;" cx="1736" cy="234" r="4"/>
	<g>
		<g>
			<g>
				<path style="fill:#E55539;" d="M125.129,319.043c-0.042-0.039-0.086-0.077-0.129-0.115L16.15,300.224
					c-1.216-0.209-2.305-0.726-3.218-1.465c-0.58,0.229-1.156,0.468-1.732,0.708L125.129,319.043z"/>
				<path style="fill:#E55539;" d="M43.86,405.443c-3.59-1.155-5.774-5.591-5.027-9.938c0.802-4.67,4.825-8.31,8.896-7.61
					l42.964,7.383c1.405-1.294,2.523-3.423,2.969-6.021c0.682-3.967-0.48-7.425-2.628-8.684l-79.183-13.605
					c-4.07-0.699-6.765-4.791-5.963-9.46s4.708-7.627,8.779-6.927l143.504,24.658c-0.027-0.117-0.05-0.235-0.078-0.353
					l-81.927-14.077c2.908,0.5,5.879-2.665,6.682-7.334c0.536-3.117-0.068-5.916-1.392-7.587l-32.244-5.54
					c-1.308-0.225-2.464-0.838-3.409-1.717l-72.753-12.502c-4.26,4.62-8.137,9.623-11.562,14.974l111.623,19.181l-111.624-19.18
					c-7.563,11.813-12.941,25.303-15.466,39.996c-0.422,2.459-0.75,4.912-1.002,7.357L43.86,405.443z"/>
				<path style="fill:#E55539;" d="M-21.504,478.226c2.996,2.825,6.156,5.489,9.475,7.969c1.096-2.956,3.545-4.93,6.318-5.255
					L-21.504,478.226z"/>
				<path style="fill:#E55539;" d="M-38.038,458.423l73.401,12.612c-2.716-1.73-4.239-5.525-3.598-9.26
					c0.594-3.455,2.95-6.339,5.783-7.327l-10.861-1.866l10.861,1.866c0.998-0.348,2.052-0.465,3.112-0.283l71.626,12.308
					c1.993-0.996,3.696-3.567,4.273-6.929c0.802-4.666-0.94-8.636-3.846-9.141l32.265,5.544c0.005-0.008,0.01-0.015,0.015-0.022
					L0.383,431.076c-4.071-0.699-6.765-4.79-5.963-9.46c0.802-4.669,4.708-7.626,8.778-6.927l89.813,15.433
					c2.05-0.945,3.817-3.56,4.407-6.996c0.743-4.325-0.702-8.047-3.23-8.97l-49.51-8.508c-0.28-0.048-0.552-0.12-0.818-0.205
					l-98.842-16.984C-57.592,413.832-51.125,438.313-38.038,458.423z"/>
				<path style="fill:#E55539;" d="M45.803,338.632c-1.998-1.857-3.04-4.915-2.495-8.084c0.802-4.669,4.766-7.968,8.837-7.269
					l13.356,2.295c2.511-0.362,4.851-3.281,5.549-7.343c0.802-4.669-0.943-8.643-3.851-9.143L11.2,299.467
					c-14.483,6.024-27.52,15.139-38.15,26.664L45.803,338.632z"/>
				<path style="fill:#E55539;" d="M15.947,501.235c5.881,2.113,12.025,3.747,18.398,4.842c6.373,1.095,12.711,1.606,18.96,1.577
					L15.947,501.235z"/>
				<polygon style="fill:#E55539;" points="71.006,292.778 70.997,292.776 70.987,292.774 				"/>
				<path style="fill:#E55539;" d="M102.422,495.525c0.709-1.168,1.253-2.603,1.532-4.225c0.629-3.661-0.313-6.887-2.149-8.352
					L37.61,471.918c-0.815-0.14-1.566-0.449-2.246-0.883l-73.402-12.612c4.697,7.218,10.245,13.872,16.533,19.802l15.796,2.715
					c0.652-0.076,1.321-0.07,1.996,0.046l100.489,17.268C98.686,497.398,100.568,496.487,102.422,495.525z"/>
			</g>
		</g>
	</g>
	<rect x="455" y="465" style="fill:#494241;" width="212" height="198"/>
	<path style="fill:none;stroke:#C22D05;stroke-width:2;stroke-miterlimit:10;" d="M548.644,373.266
		c47.228,0,76.413,32.555,76.413,76.413c0,43.857-35.039,76.821-76.82,76.821c-41.779,0-77.357-36.742-77.357-77.357
		S501.417,373.266,548.644,373.266z"/>
	<g>
		<radialGradient id="SVGID_3_" cx="548.1919" cy="449.8682" r="73.795" gradientUnits="userSpaceOnUse">
			<stop  offset="0" style="stop-color:#000000;stop-opacity:0.43"/>
			<stop  offset="0.1152" style="stop-color:#795244;stop-opacity:0.46"/>
			<stop  offset="1" style="stop-color:#C22D05"/>
		</radialGradient>
		<path style="fill:url(#SVGID_3_);" d="M548.442,523.442c-39.562,0-74.266-34.703-74.266-74.266
			c0-41.55,32.091-72.883,74.646-72.883c21.84,0,40.399,7.239,53.672,20.937c12.711,13.116,19.711,31.742,19.711,52.447
			c0,20.142-7.758,38.849-21.845,52.674C586.504,515.952,568.065,523.442,548.442,523.442z"/>
		<path style="fill:#494241;" d="M548.823,378.294c44.118,0,71.384,30.413,71.384,71.384s-32.734,71.765-71.765,71.765
			s-72.266-34.324-72.266-72.266S504.705,378.294,548.823,378.294 M548.823,374.294c-21.85,0-41.643,7.963-55.732,22.422
			c-13.486,13.84-20.914,32.471-20.914,52.461c0,40.628,35.638,76.266,76.266,76.266c20.15,0,39.086-7.693,53.32-21.663
			c14.474-14.205,22.444-33.419,22.444-54.102c0-21.228-7.201-40.348-20.275-53.84C590.273,381.744,571.217,374.294,548.823,374.294
			L548.823,374.294z"/>
	</g>
	<g>
		<polygon style="fill:#C22D05;" points="548,275.16 615.667,297.499 548,363.561 		"/>
		<path style="fill:#494241;" d="M550,277.117l63.354,20.974L550,360v-83 M547,273.086v4.149V360v7.121l5.096-4.975l63.354-61.851
			l3.532-3.448l-4.687-1.547l-63.354-20.914L547,273.086L547,273.086z"/>
	</g>
	<g>
		<g>
			<path style="fill:#C22D05;" d="M438,448v46H239v-46H438 M440,446h-2H239h-2v2v46v2h2h199h2v-2v-46V446L440,446z"/>
		</g>
		<g>
			<rect x="241" y="450" style="fill:#C22D05;" width="195" height="42"/>
			<path style="fill:#494241;" d="M434,452v38H243v-38H434 M438,448h-4H243h-4v4v38v4h4h191h4v-4v-38V448L438,448z"/>
		</g>
		<text transform="matrix(1 0 0 1 246.4697 479.6279)" style="fill:#F9F0EF; font-family:'ChunkFiveEx'; font-size:23.9226;">PIZZA PLANET</text>
	</g>
	<radialGradient id="SVGID_4_" cx="589.75" cy="432.25" r="8.25" gradientUnits="userSpaceOnUse">
		<stop  offset="0" style="stop-color:#000000;stop-opacity:0.43"/>
		<stop  offset="0.1152" style="stop-color:#795244;stop-opacity:0.46"/>
		<stop  offset="1" style="stop-color:#F0D4E0"/>
	</radialGradient>
	<circle style="fill:url(#SVGID_4_);" cx="589.75" cy="432.25" r="8.25"/>
	<radialGradient id="SVGID_5_" cx="563" cy="413" r="4" gradientUnits="userSpaceOnUse">
		<stop  offset="0" style="stop-color:#000000;stop-opacity:0.43"/>
		<stop  offset="0.1152" style="stop-color:#795244;stop-opacity:0.46"/>
		<stop  offset="0.897" style="stop-color:#F0D4E0"/>
	</radialGradient>
	<circle style="fill:url(#SVGID_5_);" cx="563" cy="413" r="4"/>
	<radialGradient id="SVGID_6_" cx="497" cy="440.5" r="7" gradientUnits="userSpaceOnUse">
		<stop  offset="0" style="stop-color:#000000;stop-opacity:0.43"/>
		<stop  offset="0.1152" style="stop-color:#795244;stop-opacity:0.46"/>
		<stop  offset="1" style="stop-color:#F0D4E0"/>
	</radialGradient>
	<circle style="fill:url(#SVGID_6_);" cx="497" cy="440.5" r="7"/>
	<radialGradient id="SVGID_7_" cx="567.25" cy="388.75" r="6.75" gradientUnits="userSpaceOnUse">
		<stop  offset="0" style="stop-color:#000000;stop-opacity:0.43"/>
		<stop  offset="0.1152" style="stop-color:#795244;stop-opacity:0.46"/>
		<stop  offset="0.897" style="stop-color:#F0D4E0"/>
	</radialGradient>
	<circle style="fill:url(#SVGID_7_);" cx="567.25" cy="388.75" r="6.75"/>
	<radialGradient id="SVGID_8_" cx="528" cy="458" r="4" gradientUnits="userSpaceOnUse">
		<stop  offset="0" style="stop-color:#000000;stop-opacity:0.43"/>
		<stop  offset="0.1152" style="stop-color:#795244;stop-opacity:0.46"/>
		<stop  offset="0.897" style="stop-color:#F0D4E0"/>
	</radialGradient>
	<circle style="fill:url(#SVGID_8_);" cx="528" cy="458" r="4"/>
	<radialGradient id="SVGID_9_" cx="524.25" cy="395.75" r="6.75" gradientUnits="userSpaceOnUse">
		<stop  offset="0" style="stop-color:#000000;stop-opacity:0.43"/>
		<stop  offset="0.1152" style="stop-color:#795244;stop-opacity:0.46"/>
		<stop  offset="0.897" style="stop-color:#F0D4E0"/>
	</radialGradient>
	<circle style="fill:url(#SVGID_9_);" cx="524.25" cy="395.75" r="6.75"/>
	<path style="fill:none;stroke:#C22D05;stroke-width:2;stroke-miterlimit:10;" d="M410.644,242.266
		c47.228,0,76.413,32.555,76.413,76.413c0,43.857-35.039,76.821-76.82,76.821c-41.779,0-77.357-36.742-77.357-77.357
		S363.417,242.266,410.644,242.266z"/>
	<g>
		<path style="fill:#C22D05;" d="M410.442,392.442c-39.562,0-74.266-34.703-74.266-74.266c0-41.55,32.091-72.883,74.646-72.883
			c21.84,0,40.399,7.239,53.672,20.937c12.711,13.116,19.711,31.742,19.711,52.447c0,20.142-7.758,38.849-21.845,52.674
			C448.504,384.952,430.065,392.442,410.442,392.442z"/>
		<path style="fill:#494241;" d="M410.823,247.294c44.118,0,71.384,30.413,71.384,71.384s-32.734,71.765-71.765,71.765
			s-72.266-34.324-72.266-72.266S366.705,247.294,410.823,247.294 M410.823,243.294c-21.85,0-41.643,7.963-55.732,22.422
			c-13.486,13.84-20.914,32.471-20.914,52.461c0,40.628,35.638,76.266,76.266,76.266c20.15,0,39.086-7.693,53.32-21.663
			c14.474-14.205,22.444-33.419,22.444-54.102c0-21.228-7.201-40.348-20.275-53.84C452.273,250.744,433.217,243.294,410.823,243.294
			L410.823,243.294z"/>
	</g>
	<g>
		<polygon style="fill:#C22D05;" points="410,225.16 477.667,247.499 410,313.561 		"/>
		<path style="fill:#494241;" d="M412,227.117l63.354,20.974L412,310v-83 M409,223.086v4.149V310v7.121l5.096-4.975l63.354-61.851
			l3.532-3.448l-4.687-1.547l-63.354-20.914L409,223.086L409,223.086z"/>
	</g>
	<g>
		<g>
			<path style="fill:#C22D05;" d="M504,323v46H305v-46H504 M506,321h-2H305h-2v2v46v2h2h199h2v-2v-46V321L506,321z"/>
		</g>
		<g>
			<rect x="307" y="325" style="fill:#C22D05;" width="195" height="42"/>
			<path style="fill:#494241;" d="M500,327v38H309v-38H500 M504,323h-4H309h-4v4v38v4h4h191h4v-4v-38V323L504,323z"/>
		</g>
		<text transform="matrix(1 0 0 1 312.4697 354.6279)" style="fill:#F9F0EF; font-family:'ChunkFiveEx'; font-size:23.9226;">PIZZA PLANET</text>
	</g>
	<circle style="fill:#F1F4ED;" cx="451.75" cy="301.25" r="8.25"/>
	<circle style="fill:#F1F4ED;" cx="425" cy="282" r="4"/>
	<circle style="fill:#F1F4ED;" cx="359" cy="309.5" r="7"/>
	<circle style="fill:#F1F4ED;" cx="429.25" cy="257.75" r="6.75"/>
	<circle style="fill:#F1F4ED;" cx="390" cy="327" r="4"/>
	<circle style="fill:#F1F4ED;" cx="386.25" cy="264.75" r="6.75"/>
	<g>
		<path style="fill:#C22D05;" d="M290.905,188.773l1.767-0.216c0.891-0.108,1.782-0.201,2.692-0.274
			c2.117-0.188,4.358-0.283,6.646-0.283c19.211,0,35.625,6.294,47.466,18.202c0.286,0.286,0.576,0.585,0.865,0.893l1.372,1.453
			l-60.428,57.081L290.905,188.773z"/>
		<g>
			<path style="fill:#494241;" d="M302.01,190c19.358,0,35.082,6.584,46.048,17.612c0.276,0.276,0.552,0.562,0.829,0.854
				l-55.625,52.543l-0.348-70.467c0.864-0.105,1.728-0.195,2.611-0.267C297.645,190.089,299.8,190,302.01,190 M302.01,186
				c-2.347,0-4.647,0.099-6.837,0.292c-0.872,0.07-1.779,0.163-2.743,0.28l-3.533,0.432l0.018,3.559l0.348,70.467l0.045,9.219
				l6.701-6.33l55.625-52.543l2.906-2.745l-2.743-2.908c-0.303-0.321-0.606-0.635-0.91-0.938
				C338.669,192.498,321.766,186,302.01,186L302.01,186z"/>
		</g>
	</g>
	<radialGradient id="SVGID_10_" cx="286" cy="227.5" r="7" gradientUnits="userSpaceOnUse">
		<stop  offset="0" style="stop-color:#000000;stop-opacity:0.43"/>
		<stop  offset="0.1152" style="stop-color:#795244;stop-opacity:0.46"/>
		<stop  offset="1" style="stop-color:#F0D4E0"/>
	</radialGradient>
	<circle style="fill:url(#SVGID_10_);" cx="286" cy="227.5" r="7"/>
	<path style="fill:none;stroke:#C22D05;stroke-width:2;stroke-miterlimit:10;" d="M431.644,326.266
		c47.228,0,76.413,32.555,76.413,76.413c0,43.857-35.039,76.821-76.82,76.821c-41.779,0-77.357-36.742-77.357-77.357
		S384.417,326.266,431.644,326.266z"/>
	<g>
		<radialGradient id="SVGID_11_" cx="431.1919" cy="402.8682" r="73.795" gradientUnits="userSpaceOnUse">
			<stop  offset="0" style="stop-color:#000000;stop-opacity:0.43"/>
			<stop  offset="0.1152" style="stop-color:#795244;stop-opacity:0.46"/>
			<stop  offset="1" style="stop-color:#C22D05"/>
		</radialGradient>
		<path style="fill:url(#SVGID_11_);" d="M431.442,476.442c-39.562,0-74.266-34.703-74.266-74.266
			c0-41.55,32.091-72.883,74.646-72.883c21.84,0,40.399,7.239,53.672,20.937c12.711,13.116,19.711,31.742,19.711,52.447
			c0,20.142-7.758,38.849-21.845,52.674C469.504,468.952,451.065,476.442,431.442,476.442z"/>
		<path style="fill:#494241;" d="M431.823,331.294c44.118,0,71.384,30.413,71.384,71.384s-32.734,71.765-71.765,71.765
			s-72.266-34.324-72.266-72.266S387.705,331.294,431.823,331.294 M431.823,327.294c-21.85,0-41.643,7.963-55.732,22.422
			c-13.486,13.84-20.914,32.471-20.914,52.461c0,40.628,35.638,76.266,76.266,76.266c20.15,0,39.086-7.693,53.32-21.663
			c14.474-14.205,22.444-33.419,22.444-54.102c0-21.228-7.201-40.348-20.275-53.84C473.273,334.744,454.217,327.294,431.823,327.294
			L431.823,327.294z"/>
	</g>
	<radialGradient id="SVGID_12_" cx="446" cy="366" r="4" gradientUnits="userSpaceOnUse">
		<stop  offset="0" style="stop-color:#000000;stop-opacity:0.43"/>
		<stop  offset="0.1152" style="stop-color:#795244;stop-opacity:0.46"/>
		<stop  offset="0.897" style="stop-color:#F0D4E0"/>
	</radialGradient>
	<circle style="fill:url(#SVGID_12_);" cx="446" cy="366" r="4"/>
	<g>
		<path style="fill:#C22D05;" d="M275.084-54.45l11.963,3.948l-7.386,0.597c-0.969,0.078-1.918,0.176-2.867,0.293l-1.671,0.207
			L275.084-54.45z"/>
		<path style="fill:#494241;" d="M276.6-52.37l2.94,0.97c-0.99,0.08-1.96,0.18-2.93,0.3L276.6-52.37 M273.568-56.53l0.032,4.183
			l0.01,1.27l0.026,3.368l3.343-0.414c0.942-0.117,1.859-0.21,2.803-0.287l14.772-1.194l-14.074-4.645l-2.94-0.97L273.568-56.53
			L273.568-56.53z"/>
	</g>
	<g>
		<path style="fill:#C22D05;" d="M338.347-29.953c-0.299-0.318-0.599-0.627-0.897-0.926l-4.492-4.492l9.851,3.282l-3.434,3.23
			L338.347-29.953z"/>
		<path style="fill:#494241;" d="M338.51-31.94l1.44,0.48l-0.51,0.48C339.13-31.31,338.82-31.63,338.51-31.94 M327.405-38.803
			l8.984,8.984c0.288,0.289,0.576,0.586,0.865,0.893l2.055,2.188l2.187-2.057l0.51-0.48l3.66-3.443l-4.767-1.588l-1.44-0.48
			L327.405-38.803L327.405-38.803z"/>
	</g>
	<g>
		<g>
			<polygon style="fill:#C22D05;" points="402.1,-42.576 457.779,-10.646 385.685,30.875 			"/>
			<path style="fill:#494241;" d="M403.12-40.262l51.649,29.62l-66.876,38.515L403.12-40.262 M401.08-44.89l-0.888,3.974
				l-15.227,68.135l-1.488,6.66l5.913-3.406l66.876-38.515l4.524-2.605l-4.528-2.597l-51.649-29.62L401.08-44.89L401.08-44.89z"/>
		</g>
		<path style="fill:none;stroke:#C22D05;stroke-width:2;stroke-miterlimit:10;" d="M392.615-46.629
			c47.228,0,76.413,32.555,76.413,76.413c0,43.857-35.039,76.822-76.82,76.822c-41.779,0-77.357-36.743-77.357-77.358
			S345.388-46.629,392.615-46.629z"/>
		<g>
			<path style="fill:#C22D05;" d="M392.414,103.547c-39.562,0-74.266-34.704-74.266-74.266c0-41.55,32.091-72.883,74.646-72.883
				c21.84,0,40.399,7.24,53.672,20.936c12.711,13.117,19.711,31.743,19.711,52.448c0,20.142-7.758,38.848-21.845,52.674
				C430.475,96.057,412.037,103.547,392.414,103.547z"/>
			<path style="fill:#494241;" d="M392.794-41.601c44.118,0,71.384,30.413,71.384,71.384s-32.734,71.765-71.765,71.765
				s-72.266-34.324-72.266-72.266S348.676-41.601,392.794-41.601 M392.794-45.601c-21.85,0-41.643,7.963-55.732,22.422
				c-13.487,13.84-20.914,32.471-20.914,52.461c0,40.627,35.638,76.266,76.266,76.266c20.15,0,39.086-7.693,53.32-21.664
				c14.474-14.205,22.444-33.418,22.444-54.101c0-21.227-7.201-40.348-20.275-53.839C434.245-38.151,415.188-45.601,392.794-45.601
				L392.794-45.601z"/>
		</g>
		<circle style="fill:#F1F4ED;" cx="399.721" cy="67.355" r="8.25"/>
		<g>
			<g>
				<path style="fill:#C22D05;" d="M496,69v46H297V69H496 M498,67h-2.029h-199H295v2.105v46V117h1.971h199H498v-1.895v-46V67L498,67
					z"/>
			</g>
			<g>
				<rect x="299" y="71" style="fill:#C22D05;" width="195" height="42"/>
				<path style="fill:#494241;" d="M492,73v38H301V73H492 M496,69h-4.029h-191H297v4.105v38V115h3.971h191H496v-3.895v-38V69L496,69
					z"/>
			</g>
			<g>
				<path style="fill:#F9F0EF;" d="M305.039,84.011h7.751c1.387,0,2.512,0.14,3.373,0.418c0.861,0.279,1.531,0.654,2.009,1.125
					s0.802,1.013,0.969,1.627c0.167,0.613,0.251,1.264,0.251,1.949c0,0.798-0.167,1.491-0.502,2.081
					c-0.335,0.591-0.79,1.081-1.364,1.472c-0.574,0.391-1.24,0.686-1.998,0.885c-0.757,0.2-1.567,0.299-2.428,0.299h-1.818v3.708
					h1.459v3.158h-7.703v-3.158h1.339V87.145h-1.339V84.011z M311.283,87.121v4.163h1.077c0.702,0,1.268-0.172,1.698-0.515
					c0.431-0.343,0.646-0.833,0.646-1.471c0-0.718-0.195-1.26-0.586-1.627c-0.391-0.367-0.937-0.551-1.639-0.551H311.283z"/>
				<path style="fill:#F9F0EF;" d="M320.35,84.011h7.942v3.157h-1.483v10.382h1.483v3.182h-7.942v-3.182h1.507V87.168h-1.507V84.011
					z"/>
				<path style="fill:#F9F0EF;" d="M329.631,90.302v-6.291h15.693v3.182l-8.708,10.381h4.426v-3.061h4.258v6.219h-15.813v-3.109
					l8.708-10.455h-4.521v3.134H329.631z"/>
				<path style="fill:#F9F0EF;" d="M346.712,90.302v-6.291h15.693v3.182l-8.708,10.381h4.426v-3.061h4.258v6.219h-15.813v-3.109
					l8.708-10.455h-4.521v3.134H346.712z"/>
				<path style="fill:#F9F0EF;" d="M382.38,100.732h-9.593V97.6h2.273l-0.502-1.627h-4.904L369.15,97.6h1.866v3.133h-7.607V97.6
					h1.626l3.23-10.502h-0.981v-3.086h9.186l4.234,13.588h1.675V100.732z M370.538,93.102h3.134l-1.579-5.168L370.538,93.102z"/>
				<path style="fill:#F9F0EF;" d="M389.317,84.011h7.751c1.387,0,2.512,0.14,3.373,0.418c0.861,0.279,1.531,0.654,2.009,1.125
					s0.802,1.013,0.969,1.627c0.167,0.613,0.251,1.264,0.251,1.949c0,0.798-0.167,1.491-0.502,2.081
					c-0.335,0.591-0.79,1.081-1.364,1.472c-0.574,0.391-1.24,0.686-1.998,0.885c-0.757,0.2-1.567,0.299-2.428,0.299h-1.818v3.708
					h1.459v3.158h-7.703v-3.158h1.339V87.145h-1.339V84.011z M395.561,87.121v4.163h1.077c0.702,0,1.268-0.172,1.698-0.515
					c0.431-0.343,0.646-0.833,0.646-1.471c0-0.718-0.195-1.26-0.586-1.627c-0.391-0.367-0.937-0.551-1.639-0.551H395.561z"/>
				<path style="fill:#F9F0EF;" d="M404.628,84.011h7.56v3.157h-1.268v10.382h3.086v-3.038h4.019v6.219h-13.396v-3.182h1.315V87.168
					h-1.315V84.011z"/>
				<path style="fill:#F9F0EF;" d="M437.952,100.732h-9.593V97.6h2.273l-0.502-1.627h-4.904l-0.502,1.627h1.866v3.133h-7.607V97.6
					h1.626l3.23-10.502h-0.981v-3.086h9.186l4.234,13.588h1.675V100.732z M426.11,93.102h3.134l-1.579-5.168L426.11,93.102z"/>
				<path style="fill:#F9F0EF;" d="M457.233,87.097h-1.579v13.635h-5.143l-6.101-9.114v6.028h1.842v3.086h-7.344v-3.086h1.411
					V87.097h-1.387v-3.086h6.866l5.885,8.779v-5.693h-1.65v-3.086h7.201V87.097z"/>
				<path style="fill:#F9F0EF;" d="M458.429,84.011h14.425v5.287h-4.139v-2.13h-3.828v3.302h4.545v3.182h-4.545v3.899h3.828v-2.224
					h4.139v5.406h-14.425v-3.182h1.507V87.168h-1.507V84.011z"/>
				<path style="fill:#F9F0EF;" d="M489.864,84.011v6.22h-3.517v-3.063h-2.009v10.382h1.985v3.182h-8.899v-3.182h1.961V87.168
					h-2.057v3.063h-3.517v-6.22H489.864z"/>
			</g>
		</g>
		<g>
			<g>
				<path style="fill:#C22D05;" d="M422.311-51.441l1.779,0.4c0.355,0.08,0.711,0.172,1.055,0.275
					c18.557,4.968,33.079,16.254,41.942,32.624c0.056,0.09,0.107,0.183,0.156,0.273l0.942,1.742l-1.696,1.027l-68.214,37.723
					L422.311-51.441z"/>
				<path style="fill:#494241;" d="M423.65-49.09c0.31,0.07,0.62,0.15,0.92,0.24c18.45,4.94,32.45,16.28,40.79,31.72
					c0.06,0.09,0.11,0.19,0.16,0.28l-63.78,35.27L423.65-49.09 M420.971-53.793l-1.126,3.469l-21.91,67.51l-3.128,9.64l8.869-4.904
					l63.78-35.27l3.504-1.938l-1.941-3.502c-0.067-0.123-0.131-0.237-0.196-0.346c-9.125-16.827-24.048-28.432-43.165-33.564
					c-0.361-0.106-0.74-0.205-1.129-0.292L420.971-53.793L420.971-53.793z"/>
			</g>
			<circle style="fill:#F1F4ED;" cx="437.721" cy="-27.645" r="8.25"/>
			<circle style="fill:#F1F4ED;" cx="413.971" cy="2.105" r="4"/>
		</g>
		<circle style="fill:#F1F4ED;" cx="380.971" cy="-25.895" r="4"/>
		<circle style="fill:#F1F4ED;" cx="343.971" cy="39.105" r="4"/>
		<circle style="fill:#F1F4ED;" cx="428.721" cy="24.355" r="8.25"/>
		<circle style="fill:#F1F4ED;" cx="348.721" cy="-2.645" r="8.25"/>
		<circle style="fill:#F1F4ED;" cx="428.971" cy="24.105" r="4"/>
		<circle style="fill:#F1F4ED;" cx="372.971" cy="29.105" r="4"/>
	</g>
	<g>
		<g>
			<path style="fill:none;stroke:#C22D05;stroke-width:2;stroke-miterlimit:10;" d="M122.644,29.266
				c47.228,0,76.413,32.555,76.413,76.413c0,43.857-35.039,76.821-76.82,76.821c-41.779,0-77.357-36.742-77.357-77.357
				S75.417,29.266,122.644,29.266z"/>
			<g>
				<radialGradient id="SVGID_13_" cx="122.1919" cy="105.8682" r="73.795" gradientUnits="userSpaceOnUse">
					<stop  offset="0" style="stop-color:#000000;stop-opacity:0.43"/>
					<stop  offset="0.1152" style="stop-color:#795244;stop-opacity:0.46"/>
					<stop  offset="1" style="stop-color:#C22D05"/>
				</radialGradient>
				<path style="fill:url(#SVGID_13_);" d="M122.442,179.442c-39.562,0-74.266-34.704-74.266-74.266
					c0-41.55,32.091-72.883,74.646-72.883c21.84,0,40.399,7.24,53.672,20.936c12.711,13.117,19.711,31.743,19.711,52.448
					c0,20.142-7.758,38.848-21.845,52.674C160.504,171.952,142.065,179.442,122.442,179.442z"/>
				<path style="fill:#494241;" d="M122.823,34.294c44.118,0,71.384,30.413,71.384,71.384s-32.734,71.765-71.765,71.765
					s-72.266-34.324-72.266-72.266S78.705,34.294,122.823,34.294 M122.823,30.294c-21.85,0-41.643,7.963-55.732,22.422
					c-13.486,13.84-20.914,32.471-20.914,52.461c0,40.627,35.638,76.266,76.266,76.266c20.15,0,39.086-7.693,53.32-21.664
					c14.474-14.205,22.444-33.418,22.444-54.101c0-21.227-7.201-40.348-20.275-53.839C164.273,37.744,145.217,30.294,122.823,30.294
					L122.823,30.294z"/>
			</g>
		</g>
		<radialGradient id="SVGID_14_" cx="129.7212" cy="142.355" r="8.25" gradientUnits="userSpaceOnUse">
			<stop  offset="0" style="stop-color:#000000;stop-opacity:0.43"/>
			<stop  offset="0.1152" style="stop-color:#795244;stop-opacity:0.46"/>
			<stop  offset="1" style="stop-color:#FFFFFF"/>
		</radialGradient>
		<circle style="fill:url(#SVGID_14_);" cx="129.721" cy="142.355" r="8.25"/>
		<radialGradient id="SVGID_15_" cx="157.7212" cy="57.355" r="8.25" gradientUnits="userSpaceOnUse">
			<stop  offset="0" style="stop-color:#000000;stop-opacity:0.43"/>
			<stop  offset="0.1152" style="stop-color:#795244;stop-opacity:0.46"/>
			<stop  offset="1" style="stop-color:#FFFFFF"/>
		</radialGradient>
		<circle style="fill:url(#SVGID_15_);" cx="157.721" cy="57.355" r="8.25"/>
		<radialGradient id="SVGID_16_" cx="133.9712" cy="87.105" r="4" gradientUnits="userSpaceOnUse">
			<stop  offset="0" style="stop-color:#000000;stop-opacity:0.43"/>
			<stop  offset="0.1152" style="stop-color:#795244;stop-opacity:0.46"/>
			<stop  offset="1" style="stop-color:#FFFFFF"/>
		</radialGradient>
		<circle style="fill:url(#SVGID_16_);" cx="133.971" cy="87.105" r="4"/>
		<radialGradient id="SVGID_17_" cx="110.9712" cy="49.105" r="4" gradientUnits="userSpaceOnUse">
			<stop  offset="0" style="stop-color:#000000;stop-opacity:0.43"/>
			<stop  offset="0.1152" style="stop-color:#795244;stop-opacity:0.46"/>
			<stop  offset="1" style="stop-color:#FFFFFF"/>
		</radialGradient>
		<circle style="fill:url(#SVGID_17_);" cx="110.971" cy="49.105" r="4"/>
		<radialGradient id="SVGID_18_" cx="73.9712" cy="114.105" r="4" gradientUnits="userSpaceOnUse">
			<stop  offset="0" style="stop-color:#000000;stop-opacity:0.43"/>
			<stop  offset="0.1152" style="stop-color:#795244;stop-opacity:0.46"/>
			<stop  offset="1" style="stop-color:#FFFFFF"/>
		</radialGradient>
		<circle style="fill:url(#SVGID_18_);" cx="73.971" cy="114.105" r="4"/>
		<radialGradient id="SVGID_19_" cx="78.7212" cy="72.355" r="8.25" gradientUnits="userSpaceOnUse">
			<stop  offset="0" style="stop-color:#000000;stop-opacity:0.43"/>
			<stop  offset="0.1152" style="stop-color:#795244;stop-opacity:0.46"/>
			<stop  offset="1" style="stop-color:#FFFFFF"/>
		</radialGradient>
		<circle style="fill:url(#SVGID_19_);" cx="78.721" cy="72.355" r="8.25"/>
		<radialGradient id="SVGID_20_" cx="158.9712" cy="99.105" r="4" gradientUnits="userSpaceOnUse">
			<stop  offset="0" style="stop-color:#000000;stop-opacity:0.43"/>
			<stop  offset="0.1152" style="stop-color:#795244;stop-opacity:0.46"/>
			<stop  offset="1" style="stop-color:#FFFFFF"/>
		</radialGradient>
		<circle style="fill:url(#SVGID_20_);" cx="158.971" cy="99.105" r="4"/>
		<radialGradient id="SVGID_21_" cx="102.9712" cy="104.105" r="4" gradientUnits="userSpaceOnUse">
			<stop  offset="0" style="stop-color:#000000;stop-opacity:0.43"/>
			<stop  offset="0.1152" style="stop-color:#795244;stop-opacity:0.46"/>
			<stop  offset="1" style="stop-color:#FFFFFF"/>
		</radialGradient>
		<circle style="fill:url(#SVGID_21_);" cx="102.971" cy="104.105" r="4"/>
	</g>
	<g>
		<polygon style="fill:#C22D05;" points="131.1,33.424 186.779,65.354 114.685,106.875 		"/>
		<path style="fill:#494241;" d="M132.12,35.738l51.649,29.62l-66.876,38.515L132.12,35.738 M130.08,31.11l-0.888,3.974
			l-15.227,68.135l-1.488,6.66l5.913-3.406l66.876-38.515l4.524-2.605l-4.528-2.597l-51.649-29.62L130.08,31.11L130.08,31.11z"/>
	</g>
	<path style="fill:none;stroke:#C22D05;stroke-width:2;stroke-miterlimit:10;" d="M121.615,29.371
		c47.228,0,76.413,32.555,76.413,76.413c0,43.857-35.039,76.822-76.82,76.822c-41.779,0-77.357-36.743-77.357-77.358
		S74.388,29.371,121.615,29.371z"/>
	<g>
		<path style="fill:#C22D05;" d="M122.414,179.547c-39.562,0-74.266-34.704-74.266-74.266c0-41.55,32.091-72.883,74.646-72.883
			c21.84,0,40.399,7.24,53.672,20.936c12.711,13.117,19.711,31.743,19.711,52.448c0,20.142-7.758,38.848-21.845,52.674
			C160.475,172.057,142.037,179.547,122.414,179.547z"/>
		<path style="fill:#494241;" d="M122.794,34.399c44.118,0,71.384,30.413,71.384,71.384s-32.734,71.765-71.765,71.765
			s-72.266-34.324-72.266-72.266S78.676,34.399,122.794,34.399 M122.794,30.399c-21.85,0-41.643,7.963-55.732,22.422
			c-13.487,13.84-20.914,32.471-20.914,52.461c0,40.627,35.638,76.266,76.266,76.266c20.15,0,39.086-7.693,53.32-21.664
			c14.474-14.205,22.444-33.418,22.444-54.101c0-21.227-7.201-40.348-20.275-53.839C164.245,37.849,145.188,30.399,122.794,30.399
			L122.794,30.399z"/>
	</g>
	<circle style="fill:#F1F4ED;" cx="128.721" cy="143.355" r="8.25"/>
	<g>
		<g>
			<path style="fill:#C22D05;" d="M222,232v46H23v-46H222 M224,230h-2.029h-199H21v2.105v46V280h1.971h199H224v-1.895v-46V230
				L224,230z"/>
		</g>
		<g>
			<rect x="25" y="234" style="fill:#C22D05;" width="195" height="42"/>
			<path style="fill:#494241;" d="M218,236v38H27v-38H218 M222,232h-4.029h-191H23v4.105v38V278h3.971h191H222v-3.895v-38V232
				L222,232z"/>
		</g>
		<g>
			<path style="fill:#F9F0EF;" d="M31.039,247.012h7.751c1.387,0,2.512,0.139,3.373,0.418s1.531,0.654,2.009,1.125
				s0.802,1.012,0.969,1.627c0.167,0.613,0.251,1.264,0.251,1.949c0,0.797-0.167,1.49-0.502,2.08
				c-0.335,0.592-0.79,1.082-1.364,1.473c-0.574,0.391-1.24,0.686-1.998,0.885s-1.567,0.299-2.428,0.299h-1.818v3.707h1.459v3.158
				h-7.703v-3.158h1.339v-10.43h-1.339V247.012z M37.283,250.121v4.162h1.077c0.702,0,1.268-0.172,1.698-0.514
				c0.431-0.344,0.646-0.834,0.646-1.471c0-0.719-0.195-1.26-0.586-1.627c-0.391-0.367-0.937-0.551-1.639-0.551H37.283z"/>
			<path style="fill:#F9F0EF;" d="M46.35,247.012h7.942v3.156h-1.483v10.383h1.483v3.182H46.35v-3.182h1.507v-10.383H46.35V247.012z
				"/>
			<path style="fill:#F9F0EF;" d="M55.631,253.303v-6.291h15.693v3.182l-8.708,10.381h4.426v-3.061h4.258v6.219H55.488v-3.109
				l8.708-10.455h-4.521v3.135H55.631z"/>
			<path style="fill:#F9F0EF;" d="M72.712,253.303v-6.291h15.693v3.182l-8.708,10.381h4.426v-3.061h4.258v6.219H72.568v-3.109
				l8.708-10.455h-4.521v3.135H72.712z"/>
			<path style="fill:#F9F0EF;" d="M108.38,263.732h-9.593V260.6h2.273l-0.502-1.627h-4.904L95.15,260.6h1.866v3.133h-7.607V260.6
				h1.626l3.23-10.502h-0.981v-3.086h9.186l4.234,13.588h1.675V263.732z M96.538,256.102h3.134l-1.579-5.168L96.538,256.102z"/>
			<path style="fill:#F9F0EF;" d="M115.317,247.012h7.751c1.387,0,2.512,0.139,3.373,0.418s1.531,0.654,2.009,1.125
				s0.802,1.012,0.969,1.627c0.167,0.613,0.251,1.264,0.251,1.949c0,0.797-0.167,1.49-0.502,2.08
				c-0.335,0.592-0.79,1.082-1.364,1.473c-0.574,0.391-1.24,0.686-1.998,0.885s-1.567,0.299-2.428,0.299h-1.818v3.707h1.459v3.158
				h-7.703v-3.158h1.339v-10.43h-1.339V247.012z M121.561,250.121v4.162h1.077c0.702,0,1.268-0.172,1.698-0.514
				c0.431-0.344,0.646-0.834,0.646-1.471c0-0.719-0.195-1.26-0.586-1.627c-0.391-0.367-0.937-0.551-1.639-0.551H121.561z"/>
			<path style="fill:#F9F0EF;" d="M130.628,247.012h7.56v3.156h-1.268v10.383h3.086v-3.037h4.019v6.219h-13.396v-3.182h1.315
				v-10.383h-1.315V247.012z"/>
			<path style="fill:#F9F0EF;" d="M163.952,263.732h-9.593V260.6h2.273l-0.502-1.627h-4.904l-0.502,1.627h1.866v3.133h-7.607V260.6
				h1.626l3.23-10.502h-0.981v-3.086h9.186l4.234,13.588h1.675V263.732z M152.11,256.102h3.134l-1.579-5.168L152.11,256.102z"/>
			<path style="fill:#F9F0EF;" d="M183.233,250.098h-1.579v13.635h-5.143l-6.101-9.113v6.027h1.842v3.086h-7.344v-3.086h1.411
				v-10.549h-1.387v-3.086h6.866l5.885,8.779v-5.693h-1.65v-3.086h7.201V250.098z"/>
			<path style="fill:#F9F0EF;" d="M184.429,247.012h14.425v5.287h-4.139v-2.131h-3.828v3.303h4.545v3.182h-4.545v3.898h3.828v-2.225
				h4.139v5.406h-14.425v-3.182h1.507v-10.383h-1.507V247.012z"/>
			<path style="fill:#F9F0EF;" d="M215.864,247.012v6.219h-3.517v-3.063h-2.009v10.383h1.985v3.182h-8.899v-3.182h1.961v-10.383
				h-2.057v3.063h-3.517v-6.219H215.864z"/>
		</g>
	</g>
	<g>
		<path style="fill:#C22D05;" d="M141.311,34.559l1.779,0.4c0.355,0.08,0.711,0.172,1.055,0.275
			c18.557,4.968,33.079,16.254,41.942,32.624c0.056,0.09,0.107,0.183,0.156,0.273l0.942,1.742l-1.696,1.027l-68.214,37.723
			L141.311,34.559z"/>
		<path style="fill:#494241;" d="M142.65,36.91c0.31,0.07,0.62,0.15,0.92,0.24c18.45,4.94,32.45,16.28,40.79,31.72
			c0.06,0.09,0.11,0.19,0.16,0.28l-63.78,35.27L142.65,36.91 M139.971,32.207l-1.126,3.469l-21.91,67.51l-3.128,9.64l8.869-4.904
			l63.78-35.27l3.504-1.938l-1.941-3.502c-0.067-0.123-0.131-0.237-0.196-0.346c-9.125-16.827-24.048-28.432-43.165-33.564
			c-0.361-0.106-0.74-0.205-1.129-0.292L139.971,32.207L139.971,32.207z"/>
	</g>
	<circle style="fill:#F1F4ED;" cx="156.721" cy="58.355" r="8.25"/>
	<circle style="fill:#F1F4ED;" cx="132.971" cy="88.105" r="4"/>
	<circle style="fill:#F1F4ED;" cx="109.971" cy="50.105" r="4"/>
	<circle style="fill:#F1F4ED;" cx="72.971" cy="115.105" r="4"/>
	<circle style="fill:#F1F4ED;" cx="157.721" cy="100.355" r="8.25"/>
	<circle style="fill:#F1F4ED;" cx="77.721" cy="73.355" r="8.25"/>
	<circle style="fill:#F1F4ED;" cx="157.971" cy="100.105" r="4"/>
	<circle style="fill:#F1F4ED;" cx="101.971" cy="105.105" r="4"/>
	<g>
		<path style="fill:#C22D05;" d="M227,145v46H28v-46H227 M229,143h-2H28h-2v2v46v2h2h199h2v-2v-46V143L229,143z"/>
	</g>
	<g>
		<rect x="30" y="147" style="fill:#C22D05;" width="195" height="42"/>
		<path style="fill:#494241;" d="M223,149v38H32v-38H223 M227,145h-4H32h-4v4v38v4h4h191h4v-4v-38V145L227,145z"/>
	</g>
	<text transform="matrix(1 0 0 1 34.4697 176.6279)" style="fill:#F9F0EF; font-family:'ChunkFiveEx'; font-size:23.9226;">PIZZA PLANET</text>
</g>
<g id="base">
	<radialGradient id="SVGID_22_" cx="63.0107" cy="633.0254" r="69.0254" gradientUnits="userSpaceOnUse">
		<stop  offset="0" style="stop-color:#000000;stop-opacity:0.43"/>
		<stop  offset="0.1152" style="stop-color:#795244;stop-opacity:0.46"/>
		<stop  offset="1" style="stop-color:#C22D05"/>
	</radialGradient>
	<circle style="fill:url(#SVGID_22_);" cx="63.011" cy="633.025" r="69.025"/>
	<circle style="fill:#C22D05;" cx="1629.181" cy="477.195" r="156.196"/>
	<radialGradient id="SVGID_23_" cx="341.8081" cy="659.8086" r="13.8079" gradientUnits="userSpaceOnUse">
		<stop  offset="0" style="stop-color:#000000;stop-opacity:0.43"/>
		<stop  offset="0.1152" style="stop-color:#795244;stop-opacity:0.46"/>
		<stop  offset="1" style="stop-color:#FFEDF7"/>
	</radialGradient>
	<circle style="fill:url(#SVGID_23_);" cx="341.808" cy="659.808" r="13.808"/>
</g>
</svg>
