<?xml version="1.0" encoding="iso-8859-1"?>
<!-- Generator: Adobe Illustrator 15.1.0, SVG Export Plug-In . SVG Version: 6.00 Build 0)  -->
<!DOCTYPE svg PUBLIC "-//W3C//DTD SVG 1.1//EN" "http://www.w3.org/Graphics/SVG/1.1/DTD/svg11.dtd">
<svg version="1.1" id="Layer_1" xmlns="http://www.w3.org/2000/svg" xmlns:xlink="http://www.w3.org/1999/xlink" x="0px" y="0px"
	 width="360px" height="360px" viewBox="0 0 360 360" style="enable-background:new 0 0 360 360;" xml:space="preserve">
<g>
	<g>
		<g>
			
				<rect x="75.403" y="219.442" transform="matrix(-0.806 0.5919 -0.5919 -0.806 276.027 365.116)" style="fill:#3D6D00;" width="5.564" height="16.693"/>
		</g>
		<g>
			
				<rect x="82.088" y="199.777" transform="matrix(-0.9876 0.1571 -0.1571 -0.9876 200.7921 398.9407)" style="fill:#3D6D00;" width="5.085" height="15.256"/>
		</g>
		<g>
			
				<rect x="103.315" y="128.266" transform="matrix(0.8904 0.4551 -0.4551 0.8904 75.3755 -33.4536)" style="fill:#3D6D00;" width="7.695" height="23.087"/>
		</g>
		<g>
			
				<rect x="144.67" y="36.535" transform="matrix(-0.875 -0.4842 0.4842 -0.875 254.7291 155.4415)" style="fill:#3D6D00;" width="5.53" height="16.591"/>
		</g>
		<g>
			
				<rect x="220.155" y="80.033" transform="matrix(-0.8368 0.5475 -0.5475 -0.8368 461.0199 44.7591)" style="fill:#3D6D00;" width="7.368" height="22.107"/>
		</g>
		<g>
			
				<rect x="290.011" y="158.882" transform="matrix(-0.4006 0.9163 -0.9163 -0.4006 565.8599 -32.0328)" style="fill:#3D6D00;" width="6.794" height="20.383"/>
		</g>
		<g>
			
				<rect x="276.418" y="252.343" transform="matrix(-0.4731 0.881 -0.881 -0.4731 644.9955 141.5257)" style="fill:#3D6D00;" width="7.523" height="22.569"/>
		</g>
		<g>
			
				<rect x="263.233" y="264.235" transform="matrix(-0.229 0.9734 -0.9734 -0.229 595.4487 78.1364)" style="fill:#3D6D00;" width="7.096" height="21.286"/>
		</g>
		<g>
			
				<rect x="94.484" y="305.877" transform="matrix(-0.9422 0.3351 -0.3351 -0.9422 295.8765 580.8308)" style="fill:#3D6D00;" width="6.707" height="20.12"/>
		</g>
		<g>
			
				<rect x="117.137" y="190.283" transform="matrix(0.7072 -0.707 0.707 0.7072 -107.0174 144.4124)" style="fill:#3D6D00;" width="7.42" height="22.259"/>
		</g>
		<g>
			
				<rect x="127.717" y="153.498" transform="matrix(0.8926 -0.4509 0.4509 0.8926 -59.2618 76.4101)" style="fill:#3D6D00;" width="6.062" height="18.185"/>
		</g>
		<g>
			
				<rect x="196.914" y="118.527" transform="matrix(0.6357 0.7719 -0.7719 0.6357 172.8103 -107.6797)" style="fill:#3D6D00;" width="7.145" height="21.435"/>
		</g>
		<g>
			
				<rect x="288.408" y="92.757" transform="matrix(-0.9408 -0.3389 0.3389 -0.9408 531.466 298.8073)" style="fill:#3D6D00;" width="6.829" height="20.486"/>
		</g>
	</g>
</g>
<g>
	<g>
		<g>
			
				<rect x="141.626" y="280.332" transform="matrix(-0.2174 0.9761 -0.9761 -0.2174 457.3903 211.278)" style="fill:#E2201A;" width="4.733" height="17.356"/>
		</g>
		<g>
			
				<rect x="192.235" y="309.877" transform="matrix(-0.7261 -0.6875 0.6875 -0.7261 116.6573 685.7054)" style="fill:#E2201A;" width="5.314" height="19.485"/>
		</g>
		<g>
			
				<rect x="255.319" y="200.245" transform="matrix(0.977 0.2133 -0.2133 0.977 50.3507 -50.1354)" style="fill:#E2201A;" width="4.372" height="16.031"/>
		</g>
		<g>
			
				<rect x="168.736" y="145.165" transform="matrix(0.891 -0.454 0.454 0.891 -52.0363 94.9156)" style="fill:#E2201A;" width="5.814" height="21.317"/>
		</g>
		<g>
			
				<rect x="102.062" y="77.976" transform="matrix(0.9889 0.1488 -0.1488 0.9889 14.325 -14.6258)" style="fill:#E2201A;" width="5.7" height="20.901"/>
		</g>
		<g>
			
				<rect x="230.632" y="63.888" transform="matrix(-0.418 0.9084 -0.9084 -0.418 394.7787 -110.1556)" style="fill:#E2201A;" width="4.083" height="14.972"/>
		</g>
		<g>
			
				<rect x="175.206" y="230.246" transform="matrix(-0.5736 -0.8191 0.8191 -0.5736 82.8407 525.5521)" style="fill:#E2201A;" width="5.984" height="21.941"/>
		</g>
		<g>
			
				<rect x="98.249" y="264.258" transform="matrix(-0.6684 0.7438 -0.7438 -0.6684 369.3673 378.6636)" style="fill:#E2201A;" width="4.044" height="14.828"/>
		</g>
		<g>
			
				<rect x="54.157" y="219.728" transform="matrix(-0.9956 0.0939 -0.0939 -0.9956 133.4002 447.8488)" style="fill:#E2201A;" width="4.002" height="14.673"/>
		</g>
		<g>
			
				<rect x="75.541" y="153.437" transform="matrix(-0.8914 0.4532 -0.4532 -0.8914 222.3321 274.0564)" style="fill:#E2201A;" width="5.58" height="20.459"/>
		</g>
		<g>
			
				<rect x="186.576" y="47.265" transform="matrix(-0.1335 -0.991 0.991 -0.1335 158.6513 250.8123)" style="fill:#E2201A;" width="4.791" height="17.568"/>
		</g>
	</g>
</g>
</svg>
