<?xml version="1.0" encoding="iso-8859-1"?>
<!-- Generator: Adobe Illustrator 15.1.0, SVG Export Plug-In . SVG Version: 6.00 Build 0)  -->
<!DOCTYPE svg PUBLIC "-//W3C//DTD SVG 1.1//EN" "http://www.w3.org/Graphics/SVG/1.1/DTD/svg11.dtd">
<svg version="1.1" id="Layer_1" xmlns="http://www.w3.org/2000/svg" xmlns:xlink="http://www.w3.org/1999/xlink" x="0px" y="0px"
	 width="360px" height="360px" viewBox="0 0 360 360" style="enable-background:new 0 0 360 360;" xml:space="preserve">
<g>
	<g>
		<g>
			
				<rect x="440.402" y="320.443" transform="matrix(-0.8059 0.592 -0.592 -0.8059 995.007 331.4108)" style="fill:#3D6D00;" width="5.564" height="16.693"/>
		</g>
		<g>
			
				<rect x="447.088" y="300.777" transform="matrix(-0.9876 0.1571 -0.1571 -0.9876 942.1235 542.3555)" style="fill:#3D6D00;" width="5.086" height="15.256"/>
		</g>
		<g>
			
				<rect x="468.315" y="229.266" transform="matrix(0.8904 0.4552 -0.4552 0.8904 161.3534 -188.5208)" style="fill:#3D6D00;" width="7.696" height="23.087"/>
		</g>
		<g>
			
				<rect x="509.67" y="137.535" transform="matrix(-0.875 -0.4842 0.4842 -0.875 890.1879 521.542)" style="fill:#3D6D00;" width="5.53" height="16.591"/>
		</g>
		<g>
			
				<rect x="585.155" y="181.032" transform="matrix(-0.8369 0.5474 -0.5474 -0.8369 1186.7634 30.4831)" style="fill:#3D6D00;" width="7.369" height="22.108"/>
		</g>
		<g>
			
				<rect x="655.011" y="259.882" transform="matrix(-0.4006 0.9162 -0.9162 -0.4006 1169.6335 -224.9908)" style="fill:#3D6D00;" width="6.794" height="20.383"/>
		</g>
		<g>
			
				<rect x="641.418" y="353.343" transform="matrix(-0.4731 0.881 -0.881 -0.4731 1271.6713 -31.2476)" style="fill:#3D6D00;" width="7.523" height="22.569"/>
		</g>
		<g>
			
				<rect x="628.234" y="365.236" transform="matrix(-0.229 0.9734 -0.9734 -0.229 1142.3706 -153.0173)" style="fill:#3D6D00;" width="7.095" height="21.285"/>
		</g>
		<g>
			
				<rect x="459.484" y="406.877" transform="matrix(-0.9422 0.3351 -0.3351 -0.9422 1038.6248 654.6825)" style="fill:#3D6D00;" width="6.706" height="20.12"/>
		</g>
		<g>
			
				<rect x="482.137" y="291.283" transform="matrix(0.7072 -0.707 0.707 0.7072 -71.5492 432.0684)" style="fill:#3D6D00;" width="7.42" height="22.259"/>
		</g>
		<g>
			
				<rect x="492.717" y="254.499" transform="matrix(0.8926 -0.4509 0.4509 0.8926 -65.5978 251.8788)" style="fill:#3D6D00;" width="6.061" height="18.184"/>
		</g>
		<g>
			
				<rect x="561.914" y="219.527" transform="matrix(0.6357 0.7719 -0.7719 0.6357 383.7531 -352.6453)" style="fill:#3D6D00;" width="7.145" height="21.435"/>
		</g>
		<g>
			
				<rect x="653.408" y="193.757" transform="matrix(-0.9408 -0.3389 0.3389 -0.9408 1205.6333 618.5349)" style="fill:#3D6D00;" width="6.829" height="20.486"/>
		</g>
	</g>
</g>
<g>
	<g>
		<g>
			
				<rect x="506.625" y="381.331" transform="matrix(-0.2174 0.9761 -0.9761 -0.2174 1000.3335 -22.015)" style="fill:#E2201A;" width="4.734" height="17.357"/>
		</g>
		<g>
			
				<rect x="557.234" y="410.877" transform="matrix(-0.726 -0.6876 0.6876 -0.726 677.1644 1111.0156)" style="fill:#E2201A;" width="5.314" height="19.484"/>
		</g>
		<g>
			
				<rect x="620.319" y="301.246" transform="matrix(0.977 0.2133 -0.2133 0.977 80.296 -125.6691)" style="fill:#E2201A;" width="4.372" height="16.031"/>
		</g>
		<g>
			
				<rect x="533.737" y="246.165" transform="matrix(0.891 -0.4541 0.4541 0.891 -58.1038 271.6659)" style="fill:#E2201A;" width="5.814" height="21.318"/>
		</g>
		<g>
			
				<rect x="467.063" y="178.976" transform="matrix(0.9889 0.1487 -0.1487 0.9889 33.3944 -67.774)" style="fill:#E2201A;" width="5.7" height="20.901"/>
		</g>
		<g>
			
				<rect x="595.631" y="164.888" transform="matrix(-0.4182 0.9083 -0.9083 -0.4182 1004.2167 -298.4208)" style="fill:#E2201A;" width="4.084" height="14.972"/>
		</g>
		<g>
			
				<rect x="540.206" y="331.245" transform="matrix(-0.5736 -0.8191 0.8191 -0.5736 574.494 983.4612)" style="fill:#E2201A;" width="5.984" height="21.941"/>
		</g>
		<g>
			
				<rect x="463.249" y="365.258" transform="matrix(-0.6683 0.7439 -0.7439 -0.6683 1053.4392 275.6158)" style="fill:#E2201A;" width="4.043" height="14.828"/>
		</g>
		<g>
			
				<rect x="419.158" y="320.728" transform="matrix(-0.9956 0.0939 -0.0939 -0.9956 871.2759 615.112)" style="fill:#E2201A;" width="4.002" height="14.674"/>
		</g>
		<g>
			
				<rect x="440.541" y="254.436" transform="matrix(-0.8914 0.4532 -0.4532 -0.8914 958.4651 299.7002)" style="fill:#E2201A;" width="5.579" height="20.459"/>
		</g>
		<g>
			
				<rect x="551.576" y="148.265" transform="matrix(-0.1335 -0.991 0.991 -0.1335 472.2823 727.0286)" style="fill:#E2201A;" width="4.791" height="17.568"/>
		</g>
	</g>
</g>
<rect x="-114.685" y="247.605" transform="matrix(0.9962 0.0874 -0.0874 0.9962 22.4892 10.3048)" style="fill:#BBACAD;" width="16.493" height="28.76"/>
<rect x="-246.725" y="247.171" transform="matrix(0.9941 0.1084 -0.1084 0.9941 26.9366 27.3557)" style="fill:#BBACAD;" width="16.926" height="28.759"/>
<rect x="-163.616" y="141.714" transform="matrix(0.9962 0.0874 -0.0874 0.9962 13.0489 14.1778)" style="fill:#BBACAD;" width="16.491" height="28.759"/>
<rect x="-273.429" y="93.962" transform="matrix(0.9916 -0.1291 0.1291 0.9916 -16.193 -33.1905)" style="fill:#BBACAD;" width="18.503" height="28.759"/>
<g>
	<defs>
		<circle id="SVGID_1_" cx="-264.289" cy="108.781" r="31.468"/>
	</defs>
	<clipPath id="SVGID_2_">
		<use xlink:href="#SVGID_1_"  style="overflow:visible;"/>
	</clipPath>
	<g style="clip-path:url(#SVGID_2_);">
		<g>
			<circle style="fill:#BCBCBC;" cx="-273.278" cy="36.853" r="72.48"/>
		</g>
	</g>
</g>
<rect x="-49.55" y="105.938" transform="matrix(-0.9804 -0.197 0.197 -0.9804 -104.7508 230.2168)" style="fill:#BBACAD;" width="17.246" height="28.76"/>
<g>
	<defs>
		<circle id="SVGID_3_" cx="-47.041" cy="124.37" r="31.468"/>
	</defs>
	<clipPath id="SVGID_4_">
		<use xlink:href="#SVGID_3_"  style="overflow:visible;"/>
	</clipPath>
	<g style="clip-path:url(#SVGID_4_);">
		<g>
			<circle style="fill:#BCBCBC;" cx="-50.634" cy="196.769" r="72.481"/>
		</g>
	</g>
</g>
<rect x="-121.364" y="38.037" transform="matrix(0.4532 0.8914 -0.8914 0.4532 -14.6957 128.7893)" style="fill:#BBACAD;" width="18.085" height="28.759"/>
<g>
	<defs>
		<circle id="SVGID_5_" cx="-105.214" cy="49.939" r="31.469"/>
	</defs>
	<clipPath id="SVGID_6_">
		<use xlink:href="#SVGID_5_"  style="overflow:visible;"/>
	</clipPath>
	<g style="clip-path:url(#SVGID_6_);">
		<g>
			<circle style="fill:#BCBCBC;" cx="-43.615" cy="11.729" r="72.481"/>
		</g>
	</g>
</g>
<g>
	<defs>
		<circle id="SVGID_7_" cx="-237.498" cy="261.803" r="31.468"/>
	</defs>
	<clipPath id="SVGID_8_">
		<use xlink:href="#SVGID_7_"  style="overflow:visible;"/>
	</clipPath>
	<g style="clip-path:url(#SVGID_8_);">
		<g>
			<circle style="fill:#BCBCBC;" cx="-226.254" cy="190.194" r="72.48"/>
		</g>
	</g>
</g>
<rect x="-216.439" y="-21.008" transform="matrix(0.5927 0.8054 -0.8054 0.5927 -89.8111 164.338)" style="fill:#BBACAD;" width="18.103" height="28.759"/>
<g>
	<defs>
		<circle id="SVGID_9_" cx="-200.29" cy="-6.857" r="31.468"/>
	</defs>
	<clipPath id="SVGID_10_">
		<use xlink:href="#SVGID_9_"  style="overflow:visible;"/>
	</clipPath>
	<g style="clip-path:url(#SVGID_10_);">
		<g>
			<circle style="fill:#BCBCBC;" cx="-151.299" cy="-60.282" r="72.48"/>
		</g>
	</g>
</g>
<g>
	<defs>
		<circle id="SVGID_11_" cx="-154.251" cy="153.33" r="31.468"/>
	</defs>
	<clipPath id="SVGID_12_">
		<use xlink:href="#SVGID_11_"  style="overflow:visible;"/>
	</clipPath>
	<g style="clip-path:url(#SVGID_12_);">
		<g>
			<circle style="fill:#BCBCBC;" cx="-153.743" cy="80.844" r="72.48"/>
		</g>
	</g>
</g>
<g>
	<defs>
		<circle id="SVGID_13_" cx="-107.053" cy="263.923" r="31.468"/>
	</defs>
	<clipPath id="SVGID_14_">
		<use xlink:href="#SVGID_13_"  style="overflow:visible;"/>
	</clipPath>
	<g style="clip-path:url(#SVGID_14_);">
		<g>
			<circle style="fill:#BCBCBC;" cx="-100.258" cy="336.091" r="72.48"/>
		</g>
	</g>
</g>
<circle style="fill:#E2201A;" cx="76.637" cy="73.728" r="25.818"/>
<circle style="fill:#E2201A;" cx="214.637" cy="148.728" r="25.818"/>
<circle style="fill:#E2201A;" cx="68.637" cy="221.728" r="25.818"/>
<circle style="fill:#E2201A;" cx="279.637" cy="289.728" r="25.818"/>
<circle style="fill:#E2201A;" cx="297.637" cy="94.728" r="25.818"/>
</svg>
